<svg version="1.1" xmlns="http://www.w3.org/2000/svg" xmlns:xlink="http://www.w3.org/1999/xlink" width="145.58503" height="187.39174" viewBox="0,0,145.58503,187.39174"><g transform="translate(-247.3325,-86.14323)"><g data-paper-data="{&quot;isPaintingLayer&quot;:true}" fill-rule="nonzero" stroke="none" stroke-width="0.5" stroke-linecap="butt" stroke-linejoin="miter" stroke-miterlimit="10" stroke-dasharray="" stroke-dashoffset="0" style="mix-blend-mode: normal"><path d="M293.13059,250.44807c0.65464,-0.18421 3.47533,0.41455 4.61417,0.64689c-0.62254,-1.06509 -0.89521,-1.88066 -1.56195,-3.43194c-1.53044,-3.23169 -0.65629,-6.56525 -0.12787,-9.99999c0.98232,-6.38505 2.50133,-12.61486 2.52792,-19.09924c-0.68082,-0.26986 -1.24574,-0.67803 -1.58328,-1.29459c-0.64634,-1.18063 -0.18892,-3.91371 0.18106,-5.236c0.4636,-1.6569 1.29756,-3.18941 1.84605,-4.82018c0.3806,-1.13158 0.40271,-2.35583 0.69214,-3.51408c0.82262,-3.29207 1.82709,-6.59726 2.90821,-9.81343c0.30924,-2.16466 1.21386,-4.19106 1.42069,-6.34147c0.01642,-0.17077 0.02603,-0.34182 0.03075,-0.51311c-3.0504,1.75992 -6.29948,3.4006 -8.45923,6.32031c-0.74575,1.00818 -1.11067,2.31997 -2.04222,3.15948c-0.49123,0.44269 -1.24802,0.52671 -1.71809,0.9918c-0.34228,0.33867 -0.31362,0.92942 -0.60845,1.3101c-1.60079,2.06688 -3.84872,3.43595 -5.48657,5.49642c-1.34891,1.79788 -3.00419,3.34899 -4.36929,5.09796c-1.72779,2.21363 -3.3092,5.23296 -4.56187,7.73833c-0.61539,1.2308 -2.15474,2.69318 -2.42227,4.02261c-0.21542,1.0705 0.05059,2.18367 0.0422,3.2756c-0.00482,0.62822 -0.00482,1.25672 -0.02846,1.88451c-0.00921,0.24439 -0.31151,0.69169 -0.07002,0.73033c0.43773,0.07004 0.7757,-0.62659 1.21191,-0.54762c1.03729,0.18776 2.17771,0.5103 2.88751,1.28966c0.62123,0.68212 0.59781,1.75796 0.72083,2.67234c0.37237,2.76757 -0.77471,4.97088 -1.86416,7.40817c-0.46051,0.25802 -3.09415,1.79058 -3.7088,1.92235c-3.51425,0.75338 -7.53079,-1.08093 -7.75585,-5.04986c-0.06249,-1.10201 0.14634,-2.27039 0.66753,-3.24336c0.25967,-0.48475 1.09417,-0.34694 1.47048,-0.74794c0.8828,-0.94066 -0.78335,-2.54818 -1.25365,-2.96037c-0.46259,-0.40542 -0.8517,-0.93234 -1.41013,-1.19023c-0.51018,-0.23561 -1.1101,-0.18188 -1.6698,-0.23212c-3.6126,-0.32425 -1.96758,3.41875 -4.36945,5.13859c-1.77246,1.26917 -5.70731,0.65809 -7.64095,0.60669c-1.10568,-0.77581 -3.16187,-2.02399 -3.80236,-3.29878c-1.99049,-3.96181 2.35983,-8.49957 5.14945,-10.71891c1.98914,-1.58251 4.1397,-2.68234 6.66765,-1.66923c1.39943,0.56086 2.57646,1.6308 4.01465,2.08312c0.33239,0.10453 0.76742,0.5296 1.00782,0.27738c0.36273,-0.38058 0.02641,-1.07223 0.21684,-1.56229c0.58992,-1.51806 1.51005,-2.88795 2.18492,-4.3702c1.71495,-3.76654 4.51072,-6.94818 6.69688,-10.44106c1.94816,-2.37938 3.13437,-5.22143 4.64699,-7.87594c1.35086,-2.37061 3.14821,-4.48798 4.51809,-6.84813c1.61013,-2.77407 2.9981,-5.64301 4.86852,-8.27456c1.24678,-1.75415 2.4633,-3.54272 3.89851,-5.14635c0.52651,-0.5883 1.06401,-1.29217 1.82188,-1.51346c1.19095,-0.34776 2.48003,-0.08562 3.72055,-0.10493c2.86138,-0.04451 5.08099,0.37362 7.52782,1.43375c0.00404,-0.03521 0.00965,-0.07579 0.0175,-0.1205c-2.86644,-1.90056 -6.27421,-3.27407 -8.42484,-6.04112c-0.75368,-0.96971 -1.86349,-3.08832 -2.12464,-4.31048c-0.12224,-0.57207 0.13895,-1.18348 0.01373,-1.7549c-0.10518,-0.48003 -0.53763,-0.83675 -0.68442,-1.30571c-0.59046,-1.8864 -0.93299,-3.85105 -1.16912,-5.81354c-0.40404,-3.35799 0.84169,-6.26712 2.20251,-9.19116c2.27069,-4.87917 4.55376,-9.3627 9.31054,-12.21676c3.15753,-3.17472 8.34968,-7.09366 12.92218,-7.94653c0.19185,-0.03578 6.23985,-0.02741 6.60252,-0.02741c0.80545,0 1.59853,0.00938 2.3837,0.02895c-0.3231,-0.45003 -0.3231,-0.99815 -0.3231,-0.99815v-2.18282c0.02736,-0.94493 -0.35133,-1.86284 -0.64223,-2.76229c-0.69932,-2.16218 -0.87449,-5.84149 -0.42072,-8.08629c0.17362,-0.85891 1.14375,-2.8552 1.6134,-3.72024c0.20517,-0.3779 3.00874,-5.25362 3.05086,-5.31064c1.45113,-1.96455 3.64138,-3.60455 5.77397,-5.12605l1.14776,-1.4347c0.28881,-0.36741 0.73729,-0.60339 1.24087,-0.60339c0.77538,0 1.4201,0.55945 1.55252,1.29672l0.34371,1.7185c1.81866,5.49518 2.12701,11.05227 2.41114,16.66787c0.00518,-0.01528 0.0103,-0.03053 0.01541,-0.04575c0.76355,-2.27999 0.77211,-4.63339 1.45317,-6.90606c0.98069,-3.27257 2.97278,-6.92774 5.65935,-9.15084c1.32581,-1.0971 3.16387,-1.35507 4.75469,-2.01132c1.94429,-0.80206 3.88857,-1.60414 5.83286,-2.4062c6.86478,-2.82627 14.20534,-4.07792 21.23623,-6.39691c2.53985,-0.83773 6.71246,-2.64269 9.47013,-1.33077c2.56894,1.22215 2.95179,5.54975 2.91801,7.78819c-0.12611,8.35717 -2.86481,15.98637 -6.06459,23.54384c-3.415,8.04231 -9.64461,14.37714 -16.31394,19.8543c-2.5195,2.06913 -5.79085,4.26218 -9.19842,4.54322c-3.83218,0.31606 -7.58451,-0.39016 -10.97045,-1.98396c-0.19732,0.84767 -0.45886,1.68399 -0.63681,2.534c-0.25285,1.20788 0.30487,2.50992 -0.01373,3.70214c-0.17662,0.66094 -1.50168,2.99047 -1.91525,3.92181c-1.29905,2.9254 -2.54488,5.82375 -3.98347,8.68871c-1.61021,4.83064 -4.34329,8.46796 -8.62552,11.28462c-0.99528,0.65466 -2.0441,1.19477 -3.10954,1.69756c2.47473,0.81864 5.21213,1.70763 7.24667,3.36097c8.90449,7.2361 14.19196,18.89972 16.87979,29.80026c0.73678,1.47725 1.10696,3.11379 1.77527,4.62326c0.21893,0.49447 0.7749,0.78656 0.99754,1.27938c0.11141,0.24662 -0.32129,0.77015 -0.05365,0.81007c0.3243,0.04837 0.37169,-0.58752 0.67259,-0.71776c0.8919,-0.38603 1.88374,-1.09182 2.80698,-0.7883c2.19669,0.72218 4.48066,5.8457 4.44891,8.02998c-0.04567,3.14193 -1.44084,4.85541 -3.81752,6.69247c-0.7305,0.56463 -1.42579,1.41026 -2.34708,1.47078c-1.96237,0.12893 -3.43641,-1.64301 -4.44524,-3.69225c-0.19065,2.24497 -0.91313,3.99875 -3.26967,5.30312c-0.86585,0.47926 -1.83578,1.03172 -2.82004,0.9285c-1.30224,-0.13657 -2.82498,-2.11309 -3.73711,-2.91875c-2.23605,-1.97506 -3.33974,-3.29881 -2.68451,-6.64732c0.32353,-1.65331 1.61458,-2.92847 3.07419,-3.62424c0.43947,-0.20948 1.03169,0.10552 1.45412,-0.13648c0.77684,-0.44504 0.1522,-1.83396 -0.13312,-2.68258c-0.58981,-1.75423 -1.86398,-3.42868 -2.96023,-4.89385c-2.66809,-2.65951 -5.46758,-5.46422 -7.72785,-8.47866c-2.86157,-3.81638 -5.38592,-7.86728 -8.78979,-11.30698c-0.15561,1.21192 -0.26677,2.42866 -0.36257,3.58421c-0.24198,2.91896 -0.45915,5.83458 -0.72901,8.74956c-0.39612,4.27874 0.06088,8.41933 -0.69851,12.60615c0.05537,1.97763 0.17368,4.05225 -0.0301,5.95934c-0.66043,6.18012 -3.12693,12.12246 -4.01224,18.278c-0.39532,2.74868 -0.3958,5.55915 -0.72112,8.31787c-0.42216,3.57985 -0.54994,6.74572 0.30907,10.28307l0.70005,2.10013c0.05994,0.16669 0.0926,0.34642 0.0926,0.53375c0,0.43266 -0.17419,0.82462 -0.45625,1.10961c-0.02001,0.06183 -0.0351,0.09707 -0.0351,0.09707c-1.87636,4.35095 -5.25718,9.98643 -9.3085,12.66858c-1.52627,1.01046 -3.32616,0.65547 -4.9357,0.23461c-4.1858,-1.09448 -5.8263,-4.04976 -6.91918,-8.022c-0.22056,-0.80163 -0.48053,-2.11119 -0.49637,-3.21457c-0.38798,0.44686 -0.78226,0.88752 -1.18107,1.32234c-0.1689,0.18413 -3.94979,4.08397 -4.50453,4.12327c-6.13914,0.43494 -9.07004,-10.1834 -5.82473,-14.25874c0.40214,-0.50499 1.17202,-0.55891 1.69367,-0.93919c0.68198,-0.49715 1.08377,-1.44911 1.89615,-1.67771zM297.54048,261.07294c1.47971,-1.61198 2.90171,-3.31167 4.14968,-5.12091c-0.71172,-0.61888 -1.38573,-1.3633 -1.94822,-2.04856c-0.45661,0.35173 -1.03665,0.35173 -1.03665,0.35173l-1.40076,-0.03063c-1.07947,-0.21603 -2.16787,-1.12386 -3.21108,-0.77223c-0.50423,0.16996 -0.59548,0.90444 -1.01427,1.2327c-0.34672,0.27177 -0.90614,0.2036 -1.21674,0.51601c-0.51335,0.51633 -0.35401,2.41487 -0.31636,2.80363c0.20162,2.08148 0.44697,3.87735 1.96365,5.44973c0.34172,0.35428 0.76994,0.82483 1.25924,0.77127c0.37725,-0.04128 0.33954,-0.68862 0.59011,-0.97365c0.67858,-0.77192 1.48638,-1.42197 2.1814,-2.17912zM310.76523,255.13278c0.12808,-0.02562 0.25614,-0.05122 0.38421,-0.07684c-0.46368,-0.64849 -0.87037,-1.38741 -0.9233,-2.17034c-0.05412,-0.80054 0.6013,-1.49547 0.77624,-2.27854c0.57283,-2.56416 0.50135,-5.59775 0.31918,-8.20718c-0.11546,-1.65395 -0.92402,-3.18462 -1.39529,-4.77421c-0.54009,-1.82167 -0.97481,-3.67296 -1.46931,-5.50755c-0.14737,-0.54675 -0.27581,-1.09315 -0.38775,-1.63957c-0.0636,0.2764 -0.1236,0.55349 -0.17904,0.83145c-0.92949,4.66043 -1.07164,9.77422 -0.69826,14.4998c0.16203,2.05079 0.29184,4.1377 -0.01733,6.17153c-0.14366,0.94515 -0.53442,2.97535 -1.1906,4.22505c0.38827,0.03771 0.77955,0.0844 1.15426,0.01566c1.24161,-0.22776 2.38997,-0.83759 3.62697,-1.08924zM311.7955,270.16506c3.18874,-2.58459 5.91815,-6.60325 7.65289,-10.37692l-0.99153,-0.42494l0.03121,-0.07283c-1.63862,-0.42015 -3.28061,-0.98529 -4.68909,-1.83293l-0.59602,0.40514c-0.60633,0.12127 -1.21267,0.24255 -1.81901,0.36381c-1.2461,0.24421 -2.3994,0.86844 -3.64908,1.09358c-1.42251,0.25626 -1.89494,-0.62348 -2.72525,0.55317c-1.88916,2.67717 0.03578,8.29364 2.76411,9.58163c0.89293,0.42154 3.03248,1.51214 4.0218,0.71027zM323.68546,212.07414c0,0 0,-0.62126 0.38989,-1.084c0.12609,-8.20304 0.6387,-16.50233 1.80943,-24.6097c0.46601,-3.22709 1.82923,-6.25893 2.17511,-9.51698c0.09976,-0.93971 0.0788,-1.88567 0.04482,-2.83232c-0.08351,0.04211 -0.16685,0.08459 -0.24998,0.12749c-2.00713,1.03559 -4.29751,2.96135 -6.59504,3.43431c-2.02411,0.41668 -6.32094,0.45918 -8.3647,0c-0.3488,-0.07836 -2.71172,-1.33667 -3.19421,-1.55144c-0.61162,-0.27224 -1.19371,-0.49802 -1.7782,-0.70805v0.47987c-0.00354,2.90431 -0.49092,5.49467 -0.73158,8.35991c-0.13735,1.63513 0.17139,1.98267 -0.00371,3.68164c-0.2379,2.30861 -1.15923,4.44195 -1.48973,6.75544c-1.473,4.45369 -2.21428,9.17557 -3.67571,13.5939c-0.69423,2.09886 -1.67372,3.99591 -2.11061,6.20826c-0.07876,0.39883 -0.35534,0.81205 -0.22792,1.19808c0.06807,0.2062 0.43404,0.03223 0.64738,0.07262c0.4098,0.07758 0.80308,0.25428 1.21929,0.28082c1.02544,0.06538 2.05731,-0.07502 3.08255,-0.00656c0.52219,0.03486 5.29212,0.77308 5.96373,0.72817c2.3777,-0.15897 4.91554,-1.67021 7.19559,-2.16669c1.98139,-0.43145 3.93196,-0.76569 5.91329,-1.19496c-0.01172,-0.42273 -0.01969,-0.8403 -0.01969,-1.24973zM323.69183,219.20862c0.09841,-0.92299 0.11646,-1.88813 0.10293,-2.86176c-1.68405,0.54382 -3.26088,0.80946 -5.33562,1.25552c-2.56944,0.55239 -4.96294,2.0438 -7.63386,2.22974c-0.11108,0.00772 -0.23015,0.01132 -0.3561,0.01126v0.23448c0,0.32494 0.00022,0.64902 0.00124,0.97231c0.03557,0.22898 0.03259,0.45723 0.00357,0.685c0.02457,3.23718 0.17186,6.40247 1.0354,9.58577c0.95336,3.51438 2.66771,7.18638 2.95625,10.81879c0.23191,2.91947 0.27349,6.39815 -0.40842,9.25534c-0.1176,0.49269 -0.59447,0.86005 -0.67898,1.35948c-0.11203,0.66206 0.96371,0.9452 1.51783,1.32446c1.46571,1.00322 3.03229,1.41912 4.29853,2.33564c-0.74658,-3.63844 -0.66703,-6.95309 -0.22828,-10.68673c0.32809,-2.79207 0.33274,-5.63504 0.7341,-8.41706c0.43822,-3.03754 1.31091,-6.07472 1.9803,-9.06774c0.66574,-2.97665 1.68694,-5.99388 2.01113,-9.03453zM307.31434,219.50027c-1.08848,-0.16844 -2.15262,-0.34574 -2.89461,-0.39521c-0.66113,-0.04409 -1.64466,0.00003 -2.69125,-0.0309c-0.13106,6.46696 -1.57353,12.68688 -2.55572,19.07123c-0.40426,2.62776 -1.44198,5.75763 -0.12787,8.19014c0.94505,2.21176 1.78451,3.98505 3.3824,5.79632c0.31003,0.35144 0.69279,0.63835 1.01251,0.97947c0.12036,-0.22256 0.23759,-0.44672 0.35154,-0.67254c0.16985,-1.21088 0.61646,-2.39754 0.61259,-3.62053c-0.01387,-4.38283 -0.6513,-8.79139 -0.35921,-13.21717c0.31458,-4.76655 1.64111,-9.92846 3.27094,-14.67025c-0.00014,-0.04177 -0.00027,-0.08358 -0.0004,-0.12538h-0.00092zM303.02963,183.56252c0,0 0.30612,-0.91836 1.15815,-1.07643c0.18553,-1.67188 0.41996,-3.27376 0.52484,-4.95127c-0.1032,-0.03568 -0.16435,-0.06627 -0.16435,-0.06627c-2.94708,-1.47676 -6.55699,-2.34688 -9.88735,-1.7574c-0.29497,0.05222 -0.41997,0.42968 -0.5997,0.66936c-0.60029,0.80052 -1.13461,1.64922 -1.73765,2.44767c-1.23838,1.63965 -2.48003,3.28309 -3.57413,5.02232c-2.53936,4.03672 -5.24291,8.13332 -7.59688,12.27928c-1.55958,2.74685 -2.80685,5.66338 -4.81187,8.13139c-2.07413,3.32342 -4.77492,6.35049 -6.40003,9.93188c-0.67159,1.48006 -1.44891,2.90984 -2.18071,4.36107c-0.45997,0.91214 -0.38981,2.23456 -1.23838,2.80335c-1.50163,1.00652 -4.56639,0.09432 -5.98101,-0.59025c-0.25601,-0.12389 -2.15057,-1.81614 -3.09941,-1.67257c-0.96433,0.14593 -1.75325,0.88713 -2.51284,1.49889c-1.75233,1.41132 -3.99926,3.58649 -4.50054,5.8783c-0.25182,1.15125 1.50893,2.06105 2.20958,2.65978c0.75802,-0.02998 4.03475,0.37081 4.72835,-0.12093c0.24006,-0.1702 0.14516,-0.5714 0.2461,-0.84783c0.26354,-0.7218 1.23779,-3.23356 1.77879,-3.74342c1.72311,-1.62395 5.17901,-1.60522 7.21558,-0.68876c2.27391,1.02326 4.63951,3.5548 4.57232,6.1698c-0.02449,0.95315 -0.19069,1.96279 -0.68763,2.77651c-0.27871,0.45639 -1.10089,0.29375 -1.43993,0.70728c-0.70049,0.85438 0.31592,2.74994 1.19401,3.07985c1.88407,0.70789 3.06341,-0.07273 4.7438,-0.71945c0.5551,-1.76321 1.05956,-3.08941 1.04626,-4.96111c-0.00228,-0.32189 0.17231,-0.69819 -0.00677,-0.96569c-0.58906,-0.87993 -2.30523,0.61601 -3.17665,0.01444c-0.90071,-0.62178 -1.22204,-1.85606 -1.52524,-2.9077c-0.35044,-1.21544 -0.28732,-5.199 0.01373,-6.48156c0.39196,-1.6699 1.16983,-2.03564 2.0124,-3.3773c1.94071,-3.0903 3.30162,-6.69364 5.55555,-9.60033c1.35856,-1.75201 3.01576,-3.2929 4.36197,-5.08852c1.62137,-2.01555 3.88752,-3.39309 5.42751,-5.41764c0.36538,-0.48034 0.42191,-1.17169 0.84677,-1.60032c0.53017,-0.53489 1.34477,-0.70485 1.91994,-1.19101c1.37678,-1.16373 1.84707,-3.06341 3.26698,-4.35905c1.24997,-1.14057 2.42121,-2.37984 3.77941,-3.38909c1.38164,-1.02668 3.35392,-1.72668 4.84019,-2.61958l-0.3211,-0.2376zM337.38897,178.02865c-1.69199,-1.39559 -4.08743,-2.1367 -6.18385,-2.8176c-0.00105,1.04277 -0.00328,1.94027 -0.00802,1.98496c-0.2773,2.61971 -1.22131,5.08686 -1.85674,7.6094c-0.00076,0.003 -0.00151,0.00601 -0.00227,0.009l1.40579,1.40579c3.59271,3.59819 6.25469,7.82973 9.25932,11.83475c2.20319,2.93673 4.95721,5.65395 7.55186,8.25626c2.22635,2.96271 6.31401,8.51742 2.72751,12.06891c-0.53589,0.53064 -1.48562,0.30625 -2.18391,0.59112c-1.38741,0.56603 -1.49117,1.98943 -1.29144,3.29079c0.15166,0.98825 1.00314,1.13049 1.68112,1.71737c0.51867,0.44899 0.9806,0.95992 1.45522,1.45522c0.22031,0.2299 0.3129,0.67727 0.62852,0.71928c1.25883,0.16758 2.46807,-2.12159 2.60174,-3.0545c0.23616,-1.64821 -0.52199,-3.7782 -0.01268,-5.3598c0.01603,-0.04978 0.03274,-0.09927 0.05011,-0.14849l-0.02716,-0.00544l0.35807,-1.79036c0.13242,-0.73727 0.77714,-1.29672 1.55252,-1.29672c0.58467,0 1.09504,0.31807 1.3675,0.79063l1.07654,1.79421l-0.07876,0.04726l0.19742,0.19551c0.36241,1.76788 0.89892,2.9533 1.7305,4.53917c0.31167,0.59437 0.42056,2.0321 1.02218,1.73464c0.27129,-0.13415 0.3577,-0.49 0.56335,-0.71203c1.71481,-1.85141 3.46395,-2.71557 2.45192,-5.57245c-0.32037,-0.90439 -0.87785,-1.70666 -1.29188,-2.57219c-0.18126,-0.37892 -0.13228,-1.00482 -0.52863,-1.14387c-0.33516,-0.11758 -0.49792,0.54367 -0.83104,0.6669c-0.95533,0.35339 -1.99106,1.03427 -2.96544,0.73746c-0.82464,-0.2512 -1.00422,-1.40146 -1.50885,-2.10036c-1.46048,-2.0228 -1.90777,-4.19195 -3.04802,-6.46666c-2.62893,-10.38653 -7.40411,-21.4316 -15.86245,-28.40815zM328.65934,124.39775c0,0 0,0.62972 -0.39789,1.09342c2.26888,0.12224 4.51024,0.33941 6.83756,0.67196c1.92678,0.2753 3.09477,0.18047 4.58776,0.60094c-0.10897,-0.46985 -0.22137,-0.93906 -0.32559,-1.40948c-0.20919,-0.47009 -0.34624,-0.98732 -0.39101,-1.55926c-0.02056,-0.26276 -0.02245,-0.53133 -0.00824,-0.80444c-0.80146,-7.78686 -0.2678,-15.487 -2.54355,-23.04081c-1.04737,1.66211 -3.55385,2.57926 -4.81191,4.30883c-1.09954,1.51165 -1.87491,3.23485 -2.76999,4.87584c-1.3764,2.5234 -1.53117,4.96929 -1.27624,7.83152c0.17781,1.9964 1.05834,3.14266 1.09908,5.24867v2.18282zM350.1237,132.76522c0,0 0,1.42024 -1.34762,1.56547c0.73756,0.57069 1.35675,1.28473 1.66923,2.43775c0.00823,0.03039 0.01617,0.06073 0.02384,0.09101c3.17354,1.7929 6.77744,2.60281 10.51213,2.34217c2.77153,-0.19342 5.5311,-2.16541 7.54656,-3.84095c6.24829,-5.19448 12.21195,-11.05617 15.41801,-18.65208c1.39797,-3.30184 3.23959,-6.71658 4.08301,-10.22614c0.70739,-2.94358 1.00533,-6.1881 1.4035,-9.19008c0.2698,-2.034 0.53689,-3.67112 0.16389,-5.7108c-0.1426,-0.77977 -0.2647,-1.88193 -1.00953,-2.15319c-0.44336,-0.16146 -0.93624,0.11961 -1.4059,0.16492c-1.93077,0.18622 -3.82173,0.72911 -5.66295,1.33943c-6.95244,2.30453 -14.23694,3.51248 -21.02353,6.31798c-1.94429,0.80206 -3.88857,1.60414 -5.83286,2.4062c-1.35748,0.56 -2.98003,0.67565 -4.08982,1.63727c-4.43973,3.84697 -4.29222,9.40346 -5.98437,14.50252c-0.73152,2.20434 -2.20468,4.86145 -2.44196,7.27337c0.06451,0.50355 0.15699,1.00273 0.26263,1.49992c1.05407,1.60396 4.64087,2.01837 5.70583,2.99247c1.57668,1.44215 1.58993,2.68759 1.97925,4.5296l0.03063,0.67316zM346.5084,138.02893c0,0 -1.04532,-0.78399 -0.51966,-1.87628c-0.73949,-0.33676 -1.53171,-0.59574 -2.13697,-1.12468c-0.53272,-0.46555 -0.8646,-1.12009 -1.29689,-1.68014l-0.21728,-0.19485c0,0 -0.70336,-0.70335 -0.43448,-1.55154c-2.03207,-1.41484 -4.32605,-1.89776 -7.28854,-2.32088c-3.78932,-0.54122 -7.32094,-0.75878 -11.17072,-0.75878c-2.00563,0 -4.04303,-0.38324 -6.01685,-0.02743c-4.0984,0.73879 -8.75251,4.53386 -11.56631,7.33318c-4.35805,2.61482 -6.30336,6.5991 -8.39596,11.07009c-1.1156,2.38356 -2.28667,4.77001 -1.91913,7.54028c0.22796,1.71837 0.49187,3.44751 1.0137,5.10054c0.17865,0.56588 0.64055,1.02578 0.77078,1.60472c0.45336,2.01558 0.12555,3.04842 1.52712,4.8487c2.06273,2.64954 5.62655,3.77056 8.22002,5.75816c1.71584,0.55409 2.26894,0.6825 3.91593,1.41348c0.90103,0.3999 1.66355,1.14862 2.62663,1.35897c1.69583,0.3704 5.21791,0.3247 6.91503,0c1.97739,-0.37833 4.04632,-2.22189 5.77424,-3.11414c0.95812,-0.49474 2.03465,-0.72964 3.0004,-1.20932c5.57584,-2.76948 9.60428,-6.23599 11.59479,-12.20748c1.44306,-2.89734 2.70675,-5.82097 4.0202,-8.77381c0.51083,-1.14843 1.38321,-2.14404 1.72276,-3.35423c0.32183,-1.14702 -0.23844,-2.40398 -0.01373,-3.57391c0.12925,-0.67289 0.76555,-2.19764 0.92368,-3.52123c-0.35542,-0.23573 -0.70517,-0.48224 -1.04878,-0.73938zM344.62586,129.47478c-0.13014,-0.05748 -0.26167,-0.11609 -0.3941,-0.17603c0.98757,0.83741 1.88055,1.79509 2.66728,2.78142c-0.11802,-0.74602 -0.30648,-1.6944 -0.83074,-2.11585c-0.39575,-0.31815 -0.978,-0.28442 -1.44247,-0.48955z" fill="#000000"/><path d="M319.47607,259.77299c-1.73475,3.77367 -4.49209,7.83903 -7.68083,10.42362c-0.98932,0.80187 -3.14737,-0.29493 -4.04031,-0.71647c-2.72833,-1.28798 -4.66157,-6.94596 -2.77242,-9.62313c0.83031,-1.17665 1.30889,-0.30434 2.7314,-0.56061c1.2497,-0.22513 2.42137,-0.8572 3.66747,-1.10143c0.60634,-0.12127 1.22207,-0.2419 1.82841,-0.36316l0.59826,-0.40457c1.40848,0.84764 3.06723,1.42484 4.70585,1.84499l-0.03112,0.07295l0.99328,0.42777z" data-paper-data="{&quot;noHover&quot;:false,&quot;origItem&quot;:[&quot;Path&quot;,{&quot;applyMatrix&quot;:true,&quot;segments&quot;:[[[256.44307,359.41781],[-5.05373,-4.09622],[1.56793,1.27086]],[[262.81709,358.29213],[-1.41519,0.66808],[4.32404,-2.04129]],[[267.19782,343.10653],[2.99407,4.24296],[-1.31593,-1.86483]],[[262.87865,342.22982],[2.25449,0.40615],[-1.98059,-0.35681]],[[257.09535,340.49665],[1.9749,0.38706],[-0.96096,-0.19219]],[[254.21245,339.92007],[0.96096,0.19219],[0,0]],[[253.26783,339.27798],[0,0],[-2.23225,1.3434]],[[245.83625,342.18291],[2.59699,-0.66588],[0,0]],[245.88571,342.29833],[[244.31427,342.9718],[0,0],[2.74932,5.98077]]],&quot;closed&quot;:true}]}" fill="#9a3b00"/><path d="M301.7177,255.93665c-1.24797,1.80923 -2.68535,3.55342 -4.16506,5.16541c-0.69504,0.75715 -1.52341,1.40848 -2.202,2.18041c-0.25057,0.28503 -0.21449,0.93188 -0.59174,0.97316c-0.4893,0.05355 -0.92489,-0.42059 -1.26661,-0.77487c-1.51666,-1.57238 -1.77576,-3.39948 -1.97738,-5.48096c-0.03765,-0.38878 -0.19093,-2.30149 0.32242,-2.81783c0.31061,-0.31241 0.87464,-0.24913 1.22137,-0.52091c0.4188,-0.32827 0.51715,-1.06734 1.0214,-1.2373c1.04322,-0.35162 2.14981,0.55363 3.22928,0.76964l1.40921,0.0332c0,0 0.58381,0.00208 1.04042,-0.34965c0.56249,0.68526 1.24699,1.44082 1.9587,2.0597z" data-paper-data="{&quot;noHover&quot;:false,&quot;origItem&quot;:[&quot;Path&quot;,{&quot;applyMatrix&quot;:true,&quot;segments&quot;:[[[279.03535,345.00802],[-2.34515,-2.55479],[1.10152,1.19999]],[[282.4926,348.46164],[-1.07546,-1.2234],[0.39711,0.45174]],[[283.42785,350.00476],[-0.5979,-0.06543],[0.77548,0.08487]],[[285.42358,348.78241],[-0.54158,0.56148],[2.40372,-2.49201]],[[288.53569,340.14531],[-0.31953,3.29888],[0.05968,-0.61614]],[[288.03431,335.70192],[0.81359,0.81833],[-0.49228,-0.49514]],[[286.10593,334.8841],[0.54952,0.43073],[-0.66373,-0.52025]],[[284.49845,332.93042],[0.79916,0.26936],[-1.65335,-0.55728]],[[279.40932,334.15429],[1.71082,-0.34236],[0,0]],[277.1893,334.20284],[[275.54634,333.64539],[0.72367,0.55745],[-0.89148,1.08605]],[[272.45866,336.89207],[1.12797,-0.98084],[1.97787,2.8674]]],&quot;closed&quot;:true}]}" fill="#9a3b00"/><path d="M307.32316,220.77514h0.00092c0.00013,0.04182 0.00032,0.08362 0.00046,0.12541c-1.62984,4.74179 -2.93611,9.92188 -3.2507,14.68843c-0.29207,4.42578 0.32001,8.87774 0.33388,13.26058c0.00387,1.223 -0.44477,2.40984 -0.6146,3.62072c-0.11393,0.22581 -0.2319,0.45002 -0.35225,0.67257c-0.31971,-0.34112 -0.70439,-0.62801 -1.01443,-0.97945c-1.59789,-1.81126 -2.4475,-3.58651 -3.39257,-5.79829c-1.31411,-2.43251 -0.29295,-5.57659 0.11132,-8.20436c0.9822,-6.38435 2.45014,-12.65108 2.5812,-19.11806c1.04659,0.03093 2.03511,-0.01313 2.69623,0.03096c0.74199,0.04946 1.81143,0.22773 2.89991,0.39616z" data-paper-data="{&quot;noHover&quot;:false,&quot;origItem&quot;:[&quot;Path&quot;,{&quot;applyMatrix&quot;:true,&quot;segments&quot;:[[263.54511,281.18948],[[263.54365,281.18948],[0,0],[-0.00019,0.06626]],[[263.54302,281.3882],[0.00023,-0.06622],[2.58307,7.51511]],[[268.72703,304.63856],[-0.49857,-7.55435],[0.46293,7.01426]],[[268.15773,325.58601],[0.02199,-6.94621],[-0.00614,1.93827]],[[269.1286,331.32407],[-0.26917,-1.91907],[0.18059,0.35789]],[[269.68574,332.38996],[-0.19074,-0.35273],[0.50671,-0.54063]],[[271.29043,330.83764],[-0.49137,0.55698],[2.53245,-2.87063]],[[276.65109,321.65125],[-1.4978,3.50536],[2.08269,-3.85522]],[[276.44844,308.67096],[0.64071,4.16466],[-1.55665,-10.11835]],[[272.39794,278.44562],[0.20771,10.24928],[-1.65871,0.04901]],[[268.13268,278.49458],[1.04778,-0.06986],[-1.17597,0.07841]],[[263.54511,279.12095],[1.72509,-0.26696],[0,0]]],&quot;closed&quot;:true}]}" fill="#9a3b00"/><path d="M323.80474,216.31686c0.01352,0.97364 -0.00323,1.93925 -0.10163,2.86222c-0.32419,3.04065 -1.34127,6.05981 -2.00699,9.03646c-0.66939,2.99303 -1.52781,6.06849 -1.96603,9.10603c-0.40136,2.78204 -0.4296,5.6452 -0.75769,8.43727c-0.43873,3.73364 -0.52113,7.04872 0.22544,10.68716c-1.26623,-0.91653 -2.84,-1.3325 -4.30571,-2.33573c-0.55411,-0.37928 -1.63296,-0.66295 -1.52093,-1.32502c0.08451,-0.49943 0.5621,-0.86663 0.67969,-1.35932c0.68193,-2.8572 0.6334,-6.33816 0.40149,-9.25763c-0.28855,-3.6324 -2.01308,-7.35414 -2.96644,-10.86852c-0.86354,-3.18329 -1.00044,-6.3562 -1.02502,-9.59337c0.02903,-0.22777 0.03248,-0.45625 -0.00309,-0.68523c-0.00103,-0.3233 -0.0006,-0.64764 -0.0006,-0.97257l0.00014,-0.23454c0.12595,0.00006 0.24558,-0.00374 0.35666,-0.01148c2.67093,-0.18594 5.07789,-1.67933 7.64732,-2.23174c2.07475,-0.44604 3.65931,-0.71016 5.34336,-1.25398z" data-paper-data="{&quot;noHover&quot;:false,&quot;origItem&quot;:[&quot;Path&quot;,{&quot;applyMatrix&quot;:true,&quot;segments&quot;:[[[237.58898,278.65865],[-0.15596,-1.46279],[0.51379,4.81901]],[[240.77634,292.97717],[-1.05508,-4.71759],[1.06089,4.74353]],[[243.91484,307.34831],[-0.69453,-4.81409],[0.6361,4.40914]],[[245.07828,320.68821],[-0.51999,-4.42506],[0.69534,5.91731]],[[244.7165,337.62524],[1.18321,-5.76644],[2.0068,-1.45256]],[[251.52908,333.92357],[-2.32296,1.58998],[0.8782,-0.60109]],[[253.93464,331.82447],[0.17756,1.04929],[-0.13394,-0.79154]],[[252.85855,329.66987],[0.18637,0.78086],[-1.08075,-4.52828]],[[252.21126,315.0014],[-0.36754,4.62697],[0.4573,-5.75686]],[[256.89651,297.85508],[-1.51094,5.56981],[1.3686,-5.04508]],[[258.53749,282.66293],[-0.03894,5.13048],[-0.046,-0.36099]],[[258.54315,281.57729],[-0.05638,0.3629],[0.00161,-0.51238]],[[258.54511,280.03633],[0,0.51498],[0,0]],[[258.54511,279.66469],[0,0],[-0.19962,0.00009]],[[257.98074,279.64684],[0.17604,0.01226],[-4.23306,-0.2947]],[[245.88209,276.11298],[4.07222,0.87549],[-3.2882,-0.70694]],[[237.42585,274.12315],[2.669,0.86189],[-0.02143,1.54308]]],&quot;closed&quot;:true}]}" fill="#9a3b00"/><path d="M304.21143,182.46515c-0.85203,0.15807 -1.15812,1.07644 -1.15812,1.07644l0.27364,0.27919c-1.48627,0.89291 -3.45767,1.59387 -4.83932,2.62055c-1.3582,1.00926 -2.48359,2.20517 -3.73356,3.34574c-1.41991,1.29564 -1.88916,3.1965 -3.26592,4.36021c-0.57519,0.48618 -1.39023,0.65561 -1.9204,1.1905c-0.42484,0.42865 -0.48049,1.12102 -0.84586,1.60136c-1.53998,2.02456 -3.80412,3.4048 -5.42549,5.42037c-1.34621,1.79564 -3.00729,3.37601 -4.36585,5.12801c-2.25393,2.90669 -3.64864,6.51733 -5.58933,9.60763c-0.84258,1.34168 -1.59654,1.64903 -1.98851,3.31893c-0.30105,1.28256 -0.36768,5.26484 -0.01725,6.48028c0.30322,1.05165 0.62161,2.28521 1.52232,2.90699c0.87142,0.60155 2.58348,-0.89491 3.17253,-0.01498c0.17907,0.2675 0.00051,0.70677 0.00279,1.02866c0.0133,1.8717 -0.49193,3.19784 -1.04704,4.96107c-1.68039,0.6467 -2.86439,1.42657 -4.74846,0.71869c-0.87809,-0.32991 -1.8965,-2.22603 -1.19601,-3.08041c0.33905,-0.41352 1.17874,-0.31149 1.45745,-0.76787c0.49694,-0.81371 0.64685,-1.76238 0.67134,-2.71554c0.06717,-2.615 -2.30691,-5.15022 -4.58082,-6.17348c-2.03659,-0.91646 -5.49805,-0.9396 -7.22115,0.68435c-0.541,0.50988 -1.47185,2.97586 -1.73538,3.69767c-0.10094,0.27643 -0.0481,0.72467 -0.28816,0.89486c-0.6936,0.49174 -3.97262,0.0887 -4.73064,0.11866c-0.70067,-0.59873 -2.46346,-1.511 -2.21165,-2.66225c0.50127,-2.2918 2.74686,-4.46891 4.49919,-5.88023c0.75958,-0.61176 1.6016,-1.38705 2.56593,-1.53296c0.94886,-0.14356 2.84081,1.5452 3.09681,1.66909c1.41462,0.68458 4.47397,1.59179 5.9756,0.58527c0.84857,-0.56879 0.74035,-1.84088 1.20032,-2.75304c0.73182,-1.45124 1.50699,-2.88286 2.17858,-4.36292c1.6251,-3.58137 4.33039,-6.65783 6.4045,-9.98126c2.00503,-2.46801 3.28015,-5.38778 4.83973,-8.13462c2.35396,-4.14596 5.06102,-8.24106 7.60038,-12.27778c1.0941,-1.73924 2.33659,-3.38223 3.57497,-5.02188c0.60304,-0.79843 1.13767,-1.64697 1.73795,-2.4475c0.17972,-0.23966 0.30487,-0.61704 0.59986,-0.66926c3.33036,-0.58947 6.94643,0.28518 9.89352,1.76194c0,0 0.06124,0.03068 0.16444,0.06636c-0.10488,1.6775 -0.33743,3.28133 -0.52297,4.9532z" data-paper-data="{&quot;noHover&quot;:false,&quot;origItem&quot;:[&quot;Path&quot;,{&quot;applyMatrix&quot;:true,&quot;segments&quot;:[[270.33575,222.16451],[[269.82686,222.54108],[0,0],[2.35555,1.41513]],[[277.49792,226.69276],[-2.18972,-1.62714],[2.15257,1.59953]],[[283.48777,232.06401],[-1.98103,-1.80765],[2.25036,2.05342]],[[288.66547,238.97251],[-2.18199,-1.84433],[0.91158,0.77051]],[[291.70832,240.86012],[-0.84025,-0.84773],[0.67333,0.67933]],[[293.05032,243.39642],[-0.57907,-0.76128],[2.44066,3.20866]],[[301.65218,251.98267],[-2.56965,-3.19441],[2.13357,2.84583]],[[308.5653,260.04729],[-2.15313,-2.77669],[3.57219,4.60672]],[[317.37009,275.26253],[-3.07575,-4.8977],[1.33535,2.12636]],[[320.55947,280.6151],[-0.62121,-2.64657],[0.47712,2.03268]],[[320.58124,290.8875],[0.55539,-1.92631],[-0.48054,1.66672]],[[318.16396,295.49583],[1.42751,-0.98544],[-1.38109,0.9534]],[[313.1294,295.47294],[0.93357,-1.39457],[-0.28381,0.42395]],[[313.11867,297.00344],[0.00362,-0.51016],[-0.02107,2.96639]],[[314.77685,304.86615],[-0.87977,-2.79446],[2.66319,1.02495]],[[322.29513,306.00639],[-2.98599,1.1219],[1.39166,-0.52288]],[[324.18747,301.12524],[1.11018,1.35407],[-0.53734,-0.65539]],[[321.90537,300.00431],[0.44172,0.7233],[-0.78759,-1.28963]],[[320.81556,295.60394],[0.03881,1.51061],[-0.10647,-4.14443]],[[328.06206,285.82564],[-3.60384,1.62173],[3.2277,-1.45246]],[[339.49778,286.91723],[-2.73089,-2.57375],[0.85741,0.80807]],[[342.31693,292.85006],[-0.41768,-1.14397],[0.15996,0.4381]],[[342.70697,294.19375],[-0.38047,-0.26974],[1.09926,0.77934]],[[350.20074,294.38539],[-1.20135,-0.04749],[1.11043,-0.9489]],[[353.70264,290.16999],[0.39909,1.82459],[-0.79446,-3.63221]],[[346.56989,280.85368],[2.7772,2.23674],[-1.20384,-0.96956]],[[342.58738,278.47816],[1.52833,0.23125],[-1.5038,-0.22754]],[[337.67523,281.12896],[0.40574,-0.19635],[-2.24197,1.08496]],[[328.19614,282.06443],[2.37988,1.59518],[-1.34488,-0.90144]],[[326.23348,277.6215],[0.72899,1.44564],[-1.15981,-2.3]],[[322.77735,270.70979],[1.06439,2.34569],[-2.57558,-5.67601]],[[312.63417,254.96908],[3.2872,5.26718],[-3.1777,-3.91147]],[[305.00799,242.08193],[2.47172,4.35337],[-3.73071,-6.57078]],[[292.96795,222.62093],[4.02455,6.39764],[-1.734,-2.75646]],[[287.30345,214.66123],[1.96266,2.59861],[-0.95574,-1.26542]],[[284.54949,210.78201],[0.95137,1.26871],[-0.28483,-0.37985]],[[283.59905,209.72117],[0.46751,0.08275],[-5.27818,-0.93424]],[[267.92892,212.50643],[4.67074,-2.34047],[0,0]],[[267.66845,212.61144],[0.16356,-0.05656],[0.16623,2.65861]],[[268.50026,220.45853],[-0.29405,-2.64969],[1.35035,0.25053]]],&quot;closed&quot;:true}]}" fill="#ffde00"/><path d="M331.18892,175.18403c2.0964,0.68088 4.49631,1.41977 6.1883,2.81536c8.45834,6.97655 13.26929,18.0714 15.89823,28.45793c1.14023,2.27473 1.58328,4.448 3.04375,6.4708c0.50463,0.69891 0.64499,1.79975 1.46963,2.05094c0.97438,0.2968 2.0068,-0.38107 2.96213,-0.73445c0.33312,-0.12321 0.49475,-0.78323 0.82991,-0.66565c0.39637,0.13905 0.39477,0.80659 0.57603,1.18551c0.41403,0.86554 0.97055,1.66882 1.29093,2.57321c1.01203,2.85688 -0.74239,3.72537 -2.4572,5.57678c-0.20566,0.22204 -0.29291,0.57844 -0.5642,0.71257c-0.60162,0.29746 -0.74323,-1.19421 -1.0549,-1.78859c-0.83156,-1.58586 -1.36926,-2.77055 -1.73166,-4.53843l-0.19735,-0.19556l0.07863,-0.04718l-1.0412,-1.74195c-0.27248,-0.47254 -0.78397,-0.7899 -1.36863,-0.7899c-0.77538,0 -1.42345,0.56126 -1.55587,1.29853l-0.3598,1.79109l0.0272,0.00542c-0.01737,0.04922 -0.03426,0.09878 -0.05029,0.14856c-0.50929,1.58159 0.24637,3.71241 0.01023,5.36064c-0.13367,0.93291 -1.34694,3.22299 -2.60577,3.05541c-0.3156,-0.04203 -0.40885,-0.4893 -0.62914,-0.71918c-0.47462,-0.49529 -0.93822,-1.00606 -1.45688,-1.45503c-0.67798,-0.58689 -1.53169,-0.72903 -1.68335,-1.71726c-0.19973,-1.30136 -0.09906,-2.78775 1.28835,-3.35376c0.69829,-0.28488 1.64417,-0.05989 2.18006,-0.59055c3.58649,-3.55149 -0.48897,-9.04429 -2.71531,-12.00701c-2.59463,-2.60231 -5.38358,-5.36237 -7.58676,-8.2991c-3.00463,-4.00503 -5.66061,-8.24609 -9.25333,-11.84428l-1.40569,-1.40587c0.00075,-0.003 0.00151,-0.00601 0.00227,-0.009c0.63543,-2.52253 1.58537,-4.99471 1.86267,-7.61441c0.00474,-0.04471 0.00796,-0.9428 0.009,-1.98557z" data-paper-data="{&quot;noHover&quot;:false,&quot;origItem&quot;:[&quot;Path&quot;,{&quot;applyMatrix&quot;:true,&quot;segments&quot;:[[[215.8808,213.39403],[2.68159,-2.21182],[-13.40533,11.0569]],[[190.74096,258.41714],[4.1665,-16.46126],[-1.80714,3.60512]],[[185.91025,268.66593],[2.31467,-3.20585],[-0.79977,1.10768]],[[183.51892,271.99472],[1.30694,-0.39811],[-1.54427,0.4704]],[[178.8191,270.82595],[1.51406,0.56006],[-0.52795,-0.1953]],[[177.50201,269.769],[0.53118,-0.18634],[-0.62817,0.22036]],[[176.66421,271.58188],[0.28727,-0.60053],[-0.65619,1.37176]],[[174.61674,275.65846],[0.50776,-1.43335],[-1.60394,4.52777]],[[178.50269,284.49005],[-2.71773,-2.93425],[0.32593,0.3519]],[[179.39551,285.61852],[-0.42996,-0.21259],[0.95348,0.47144]],[[181.01553,282.86935],[-0.49396,0.94201],[1.31793,-2.51339]],[[183.75813,275.67536],[-0.57436,2.80186],[0,0]],[184.07102,275.36551],[183.9462,275.29062],[[185.65236,272.44702],[0,0],[0.43183,-0.74893]],[[187.81967,271.19396],[-0.92661,0],[1.22888,0]],[[190.2802,273.24909],[-0.20987,-1.16847],[0,0]],[190.8477,276.08657],[[190.80465,276.09518],[0,0],[0.02753,0.07801]],[[190.88408,276.33051],[-0.0254,-0.07889],[0.80717,2.50662]],[[190.86397,284.82507],[-0.37427,-2.61221],[0.21184,1.47855]],[[194.98739,289.66605],[-1.99508,0.2656],[0.5002,-0.06659]],[[195.98349,288.5261],[-0.34913,0.36434],[0.75221,-0.78498]],[[198.28981,286.21979],[-0.82201,0.71156],[1.07452,-0.93014]],[[200.95416,283.49799],[-0.24038,1.56622],[0.31655,-2.06248]],[[198.90739,278.28254],[2.19887,0.89706],[-1.1067,-0.45149]],[[195.44618,277.34568],[0.84931,0.84102],[-5.68413,-5.62864]],[[199.76891,258.21808],[-3.52846,4.6955],[4.11215,-4.12432]],[[211.73758,245.13301],[-3.49176,4.65433],[4.76194,-6.34742]],[[226.41238,226.37652],[-5.69398,5.70265],[0,0]],[[228.64035,224.14855],[0,0],[-0.0012,-0.00475]],[[228.63676,224.13429],[0.0012,0.00475],[-1.00707,-3.99788]],[[225.69407,212.07441],[0.43948,4.15188],[-0.0075,-0.07083]],[[225.68137,208.92853],[0.00165,1.65264],[-3.32253,1.07912]]],&quot;closed&quot;:true}]}" fill="#ffde00"/><path d="M324.09256,211.01659c-0.38989,0.46275 -0.39115,1.0848 -0.39115,1.0848c0,0.40945 0.00715,0.82746 0.01886,1.25021c-1.98133,0.42926 -3.94073,0.76672 -5.92212,1.19818c-2.28006,0.49648 -4.82901,2.00797 -7.20671,2.16696c-0.67161,0.04491 -5.44964,-0.69572 -5.97185,-0.73058c-1.02524,-0.06845 -2.06038,0.07023 -3.08583,0.00485c-0.41623,-0.02654 -0.81081,-0.20406 -1.22059,-0.28164c-0.21335,-0.04039 -0.57991,0.13316 -0.64799,-0.07303c-0.12744,-0.38603 0.1486,-0.79965 0.22736,-1.19848c0.43689,-2.21233 1.41363,-4.11165 2.10786,-6.21053c1.46143,-4.41833 2.19271,-9.16625 3.66571,-13.61994c0.3305,-2.31348 1.26221,-4.46747 1.50013,-6.77608c0.1751,-1.69899 -0.12884,-2.05005 0.00851,-3.68518c0.24066,-2.86523 0.73505,-5.45869 0.73857,-8.363l0.00021,-0.47991c0.5845,0.21005 1.16891,0.43523 1.78053,0.70747c0.4825,0.21476 2.85033,1.47242 3.19913,1.55078c2.04375,0.45919 6.35442,0.41904 8.37854,0.00236c2.29753,-0.47296 4.59318,-2.39593 6.60032,-3.43152c0.08313,-0.0429 0.1666,-0.08529 0.25013,-0.12739c0.03399,0.94666 0.05663,1.8938 -0.04314,2.83353c-0.34588,3.25807 -1.70303,6.29604 -2.16904,9.52313c-1.17074,8.10736 -1.69136,16.45198 -1.81745,24.65504z" data-paper-data="{&quot;noHover&quot;:false,&quot;origItem&quot;:[&quot;Path&quot;,{&quot;applyMatrix&quot;:true,&quot;segments&quot;:[[[237.59908,267.3516],[0,0],[0,0.6489]],[[237.56787,269.33227],[0.01857,-0.67],[3.14014,0.68032]],[[246.93964,271.2261],[-3.14023,-0.68379],[3.61359,0.78686]],[[258.34369,274.66003],[-3.76833,-0.25197],[1.06442,0.07117]],[[267.79541,273.50597],[-0.82763,0.05526],[1.62486,-0.10849]],[[272.68083,273.51637],[-1.62518,0.10361],[0.65966,-0.04206]],[[274.61324,273.07131],[-0.64946,0.12297],[0.33814,-0.06402]],[[275.63925,272.95621],[-0.10788,0.3268],[0.20196,-0.61181]],[[275.27804,271.05742],[0.12482,0.63208],[-0.6924,-3.50627]],[[271.93301,261.21815],[1.10027,3.32643],[-2.31617,-7.00245]],[[266.1075,239.67365],[2.33451,7.0585],[-0.52379,-3.66656]],[[263.74648,228.96721],[0.37707,3.65883],[-0.27749,-2.69265]],[[263.7406,223.1323],[0.21767,2.59146],[-0.38142,-4.54102]],[[262.58115,209.88298],[0.00559,4.60294],[0,0]],[[262.58115,209.12247],[0,0],[-0.92635,0.33288]],[[259.76294,210.24465],[0.96933,-0.43147],[-0.7647,0.34038]],[[254.70055,212.70348],[0.55279,-0.12419],[-3.23908,0.72774]],[[241.44364,212.70348],[3.20794,0.66038],[-3.64126,-0.74958]],[[230.99138,207.26057],[3.18104,1.64128],[-0.13175,-0.06798]],[[230.59518,207.05852],[0.13237,0.06674],[-0.05387,1.50033]],[[230.66622,211.54737],[-0.15811,-1.48933],[0.54817,5.16358]],[[234.11347,226.63051],[-0.73856,-5.11452],[1.85547,12.84909]],[[236.98117,265.63359],[-0.19984,-13.00074],[0.61791,0.7334]]],&quot;closed&quot;:true}]}" fill="#ffde00"/><path d="M328.24875,125.52009c0.39789,-0.46368 0.39772,-1.0935 0.39772,-1.0935l-0.00247,-2.18405c-0.04074,-2.10601 -0.93302,-3.26362 -1.11083,-5.26002c-0.25491,-2.86222 -0.09666,-5.34536 1.27974,-7.86874c0.89509,-1.641 1.68733,-3.37403 2.78687,-4.88567c1.25807,-1.72957 3.77776,-2.64675 4.82513,-4.30885c2.27575,7.55381 1.75095,15.31235 2.55239,23.09921c-0.01422,0.27313 -0.01324,0.54217 0.00732,0.80493c0.04477,0.57192 0.18104,1.08955 0.39023,1.55964c0.10423,0.47042 0.21601,0.93992 0.32497,1.40977c-1.49299,-0.42045 -2.67036,-0.323 -4.59712,-0.59832c-2.32731,-0.33255 -4.58505,-0.55214 -6.85393,-0.6744z" data-paper-data="{&quot;noHover&quot;:false,&quot;origItem&quot;:[&quot;Path&quot;,{&quot;applyMatrix&quot;:true,&quot;segments&quot;:[[459.43239,256.79249],[[459.43239,249.87356],[0,0],[0.12913,-6.67548]],[[462.91619,233.23668],[-0.5636,6.32806],[0.80803,-9.07249]],[[458.87086,208.4129],[4.36281,7.99845],[-2.8372,-5.20152]],[[450.09074,192.95782],[3.48525,4.79151],[-3.98769,-5.48225]],[[434.83829,179.3],[3.31988,5.26842],[-7.21352,23.94353]],[[426.77594,252.33317],[2.54039,-24.68225],[0.04504,0.86571]],[[426.74982,254.88302],[0.06519,-0.83286],[-0.14189,1.81288]],[[425.51043,259.82545],[0.66309,-1.49004],[-0.33036,1.49112]],[[424.47843,264.29313],[0.34538,-1.48929],[4.73238,-1.33273]],[[439.02038,262.38831],[-6.10732,0.87266],[7.37696,-1.05407]],[[460.6936,260.25836],[-7.19173,0.38751],[-1.26121,-1.46977]]],&quot;closed&quot;:true}]}" fill="#04ff00"/><path d="M348.75547,134.3546c1.34764,-0.14523 1.34764,-1.56547 1.34764,-1.56547l-0.03109,-0.67356c-0.38933,-1.84203 -0.4069,-3.09218 -1.98358,-4.53434c-1.06497,-0.9741 -4.65536,-1.39471 -5.70943,-2.99868c-0.10564,-0.49718 -0.19881,-0.99807 -0.26332,-1.50162c0.23727,-2.41192 1.70858,-5.07773 2.44009,-7.28207c1.69215,-5.09907 1.55205,-10.67811 5.99176,-14.52508c1.1098,-0.96162 2.73716,-1.08186 4.09464,-1.64187c1.94429,-0.80206 3.89821,-1.60919 5.8425,-2.41126c6.78659,-2.8055 14.09818,-4.00965 21.05062,-6.3142c1.84122,-0.61032 3.73526,-1.15087 5.66603,-1.33711c0.46966,-0.04531 0.96321,-0.32579 1.40656,-0.16432c0.74485,0.27127 0.86845,1.37489 1.01105,2.15466c0.373,2.03968 0.1087,3.68015 -0.16108,5.71416c-0.39819,3.00197 -0.69192,6.25446 -1.39932,9.19804c-0.84342,3.50958 -2.6835,6.93903 -4.08147,10.24087c-3.20606,7.59591 -9.19718,13.48477 -15.44547,18.67923c-2.01546,1.67554 -4.78504,3.64713 -7.55656,3.84055c-3.73469,0.26064 -7.35027,-0.55422 -10.52381,-2.34712c-0.00766,-0.03028 -0.01568,-0.06067 -0.02391,-0.09104c-0.31246,-1.15301 -0.93427,-1.86909 -1.67185,-2.43976z" data-paper-data="{&quot;noHover&quot;:false,&quot;origItem&quot;:[&quot;Path&quot;,{&quot;applyMatrix&quot;:true,&quot;segments&quot;:[[391.39615,283.31509],[[391.49325,281.18136],[0,0],[1.23404,-5.83869]],[[397.76693,266.82375],[-4.99764,4.57123],[3.37567,-3.08765]],[[415.8529,257.3384],[-3.34113,5.08417],[0.33488,-1.57595]],[[416.68538,252.58407],[-0.20445,1.59611],[-0.75211,-7.64512]],[[408.94503,229.52946],[2.31872,6.98716],[-5.36366,-16.16267]],[[389.9762,183.56035],[14.0727,12.19387],[-3.51774,-3.0481]],[[377.01257,178.37066],[4.30286,1.77504],[-6.16287,-2.54234]],[[358.52396,170.74365],[6.16287,2.54234],[-21.51165,-8.89269]],[[291.88505,150.71734],[22.03735,7.30478],[-5.83617,-1.93453]],[[273.935,146.47171],[6.12004,0.59032],[-1.48871,-0.1436]],[[269.4787,145.94898],[1.40532,-0.51181],[-2.36094,0.85985]],[[266.27876,152.77401],[0.452,-2.47166],[-1.18231,6.46522]],[[266.79822,170.87571],[-0.85516,-6.44726],[1.26213,9.51546]],[[271.24697,200.00578],[-2.24227,-9.33036],[2.67341,11.12438]],[[284.189,232.41991],[-4.43121,-10.46593],[10.16236,24.07699]],[[333.05996,291.54197],[-19.8054,-16.46508],[6.38848,5.31102]],[[356.98052,303.71672],[-8.78497,-0.6131],[11.83796,0.82616]],[[390.30116,296.29267],[-10.05929,5.68299],[0.0243,-0.096]],[[390.37675,296.00421],[-0.0261,0.09631],[0.99046,-3.65474]],[[395.66778,288.27722],[-2.33788,1.8089],[-4.27162,-0.46034]]],&quot;closed&quot;:true}]}" fill="#04ff00"/><path d="M334.63056,129.25336c2.96249,0.42313 5.26305,0.91118 7.2951,2.32601c-0.26888,0.84819 0.43557,1.55273 0.43557,1.55273l0.21749,0.1951c0.43229,0.56005 0.76568,1.21647 1.2984,1.68202c0.92037,0.80433 2.27502,0.98737 3.21723,1.76601c1.31438,1.08619 -0.22199,4.41389 -0.43126,5.50341c-0.22471,1.16993 0.33672,2.43085 0.0149,3.57787c-0.33955,1.21019 -1.2113,2.20962 -1.72215,3.35807c-1.31344,2.95284 -2.5786,5.88955 -4.02164,8.78689c-1.9905,5.9715 -6.03675,9.45718 -11.61259,12.22667c-0.96576,0.47969 -2.04705,0.71615 -3.00517,1.21089c-1.72792,0.89225 -3.80558,2.73665 -5.78299,3.11498c-1.69713,0.3247 -5.22811,0.36871 -6.92394,-0.0017c-0.96308,-0.21035 -1.72915,-0.96054 -2.63018,-1.36045c-1.64699,-0.73098 -2.20463,-0.8621 -3.92047,-1.41617c-2.59348,-1.9876 -6.16555,-3.11733 -8.22828,-5.76687c-1.40155,-1.80029 -1.07647,-2.83844 -1.52984,-4.85401c-0.13022,-0.57895 -0.59285,-1.04085 -0.7715,-1.60674c-0.52183,-1.65303 -0.78703,-3.3883 -1.01501,-5.10667c-0.36753,-2.77028 0.80393,-5.16617 1.91953,-7.54975c2.09258,-4.47099 4.04661,-8.47161 8.40466,-11.08645c2.81381,-2.7993 7.48466,-6.60308 11.58305,-7.34188c1.97383,-0.35582 4.01936,0.02703 6.02498,0.02703c3.84978,0 7.39475,0.2218 11.18409,0.76302z" data-paper-data="{&quot;noHover&quot;:false,&quot;origItem&quot;:[&quot;Path&quot;,{&quot;applyMatrix&quot;:true,&quot;segments&quot;:[[[417.45305,279.62632],[6.44109,-4.48468],[0.8523,2.68853]],[416.07588,284.54431],[[415.38719,285.16194],[0,0],[-1.37026,1.7752]],[[411.27641,290.48755],[1.68858,-1.47569],[-2.91733,2.54951]],[[401.08485,296.07588],[2.98655,-2.46807],[-4.16623,3.44294]],[[402.45909,313.50478],[-0.66333,-3.4535],[0.71228,3.70835]],[[402.41556,324.83312],[-1.02009,-3.63575],[1.07628,3.83601]],[[407.87629,335.46517],[-1.61921,-3.64026],[4.16325,9.35972]],[[420.61921,363.27579],[-4.57406,-9.18378],[6.30934,18.92801]],[[457.37157,401.97023],[-17.67393,-8.77854],[3.06116,1.52046]],[[466.88201,405.80348],[-3.03698,-1.5682],[5.47704,2.82818]],[[485.18481,415.67447],[-6.26784,-1.19919],[5.37942,1.02921]],[[507.10357,415.67447],[-5.37532,1.17408],[3.05272,-0.66677]],[[515.42931,411.36689],[-2.85603,1.2676],[5.22049,-2.31702]],[[527.84177,406.88657],[-5.43875,1.75629],[8.22061,-6.30018]],[[553.89704,388.63474],[-6.53828,8.39832],[4.44258,-5.70643]],[[558.7376,373.26569],[-1.43704,6.38883],[0.41277,-1.83511]],[[561.18079,368.17915],[-0.56624,1.79371],[1.65406,-5.23964]],[[564.39396,352.01179],[-0.72264,5.44679],[1.16499,-8.78103]],[[558.31081,328.11113],[3.53616,7.55527],[-6.63297,-14.17186]],[[531.69787,293.0219],[13.81387,8.28832],[-8.91903,-8.87309]],[[495.03575,269.77768],[12.99082,2.3418],[-6.25649,-1.12783]],[[475.96395,269.86459],[6.35733,0],[-12.20279,0]],[[440.55575,272.26974],[12.01115,-1.71552],[-9.3903,1.34119]]],&quot;closed&quot;:true}]}" fill="#ff6e00"/><path d="M317.85181,155.72602c-1.49648,-0.49881 -0.99765,-1.99529 -0.99765,-1.99529l0.28286,-0.59282c0.0007,-4.79238 -0.06259,-9.55444 0.37028,-14.33088c0,0 0.14282,-1.57094 1.71376,-1.42812c1.57094,0.14282 1.42812,1.71376 1.42812,1.71376c-0.42687,4.68044 -0.35663,9.3493 -0.35732,14.04572l-0.44475,1.59c0,0 -0.49881,1.49648 -1.99529,0.99765z" fill="#000000"/><path d="M311.0746,154.3518c-1.57743,0 -1.57743,-1.57743 -1.57743,-1.57743v-0.36381c0,-4.96847 -0.27058,-9.82598 -0.72113,-14.7731c0,0 -0.14282,-1.57094 1.42812,-1.71376c1.57094,-0.14282 1.71376,1.42812 1.71376,1.42812c0.45751,5.04154 0.73408,9.99525 0.73408,15.05872v0.36381c0,0 0,1.57743 -1.57743,1.57743z" fill="#000000"/><path d="M302.19591,152.18946c1.31249,-0.87498 2.18749,0.43751 2.18749,0.43751l0.12055,0.55552c4.44225,2.23648 8.48283,6.67846 13.91216,5.68277c1.76543,-0.32376 4.18069,-2.54385 5.40303,-3.59794c1.68569,-1.45368 2.17903,-2.20461 3.48619,-3.84217c0,0 0.98542,-1.23177 2.21717,-0.24635c1.23177,0.98542 0.24635,2.21717 0.24635,2.21717c-3.90095,4.8662 -9.0373,9.81026 -15.78248,8.55347c-4.08491,-0.76113 -7.30547,-4.16566 -10.8933,-5.94518l-1.33465,-1.6273c0,0 -0.87498,-1.31249 0.43751,-2.18749z" fill="#000000"/><path d="M359.80018,101.81796c1.11539,-1.11541 2.2308,0 2.2308,0l0.62261,0.63167c2.31138,1.92798 5.16124,3.78464 7.40155,5.91164c0.37143,-0.39418 0.74432,-0.7871 1.10591,-1.18884c0.17584,-0.19537 0.35065,-0.39142 0.52483,-0.58763c-0.59512,-0.7692 -1.20162,-1.53486 -1.8156,-2.30222l-0.20128,0.06168c0,0 -1.41088,-0.70544 -0.70544,-2.11633c0.70544,-1.41088 2.11633,-0.70544 2.11633,-0.70544l1.25392,0.78928c0.50247,0.62819 0.99976,1.25552 1.49004,1.88454c2.28735,-2.46547 4.74342,-4.61592 8.24672,-5.35636c0,0 1.5468,-0.30935 1.85615,1.23743c0.30935,1.5468 -1.23743,1.85615 -1.23743,1.85615c-2.89608,0.5354 -5.02418,2.59407 -6.95441,4.78236c1.91389,2.60629 3.67053,5.29696 5.14551,8.24513c0,0 0.70545,1.41089 -0.70544,2.11633c-1.41089,0.70545 -2.11633,-0.70544 -2.11633,-0.70544c-1.2834,-2.56841 -2.79651,-4.92947 -4.44295,-7.2118c-0.04348,0.04878 -0.08698,0.09735 -0.13049,0.1457c-0.44363,0.49296 -0.88775,0.9688 -1.32009,1.44762c1.12056,1.55869 1.82898,3.05373 3.32655,4.52522c0,0 1.11541,1.11539 0,2.2308c-1.11539,1.11541 -2.2308,0 -2.2308,0c-1.36531,-1.38515 -2.1251,-2.80357 -3.115,-4.22516c-0.20146,0.30667 -0.39268,0.62497 -0.57146,0.9584c-0.54689,1.01996 -1.38472,2.91757 -2.18993,4.21877c1.58827,1.74158 2.92673,3.64353 3.44534,5.99068c0,0 0.30935,1.5468 -1.23743,1.85615c-1.5468,0.30935 -1.85615,-1.23743 -1.85615,-1.23743c-0.28213,-1.67123 -1.33313,-3.15335 -2.58935,-4.50455c-0.48497,0.30522 -0.96812,0.61417 -1.36837,1.01213c-0.52457,0.52154 -0.79109,1.25017 -1.18665,1.87525l-0.26541,0.55805c0,0 -0.70544,1.41088 -2.11633,0.70544c-1.41088,-0.70544 -0.70544,-2.11633 -0.70544,-2.11633l0.46219,-0.89716c0.57459,-0.83012 1.01145,-1.77494 1.72376,-2.49038c0.34453,-0.34605 0.77792,-0.59518 1.21254,-0.84071c-0.44937,-0.41975 -0.885,-0.82795 -1.284,-1.22695l-0.851,-0.53052c0,0 -1.31251,-0.875 -0.43751,-2.18749c0.875,-1.31251 2.18749,-0.43751 2.18749,-0.43751l1.33182,0.9247c0.41512,0.41512 0.83981,0.82771 1.26509,1.24222c1.02386,-1.7562 1.67391,-3.73914 2.8764,-5.39827c-2.20225,-2.12169 -5.05904,-3.96826 -7.35872,-5.88649l-0.83259,-0.82353c0,0 -1.11541,-1.11539 0,-2.2308z" fill="#039a00"/></g></g></svg>