<svg version="1.1" xmlns="http://www.w3.org/2000/svg" xmlns:xlink="http://www.w3.org/1999/xlink" width="769.11692" height="393" viewBox="0,0,769.11692,393"><g transform="translate(120.11692,16.5)"><g stroke="none" stroke-miterlimit="10"><path d="M-9,376.5v-393h658v393z" fill="#ff1919" stroke-width="0"/><g><g><g><path d="M9.82438,192.70156c0.22682,-4.1 0.23074,-8.2544 0.23074,-12.35879l-0.01909,-0.16839c2.43127,-0.30252 4.98842,-0.60612 7.44856,-0.84903c-0.72551,4.79324 -1.33897,9.87073 -1.3771,14.71862c-2.17384,-0.1193 -4.3883,-0.22604 -6.56103,-0.30721c0.25197,-0.5378 0.27793,-1.03521 0.27793,-1.03521z" fill="#ffffff" stroke-width="0.25"/><path d="M22.37746,180.05334l0.01433,-1.11999c4.92036,-0.27467 9.28859,-0.08421 11.7751,1.14432c1.37572,0.67971 -1.45259,12.62064 -1.98536,15.05145c-3.69051,-0.27741 -7.43769,-0.55678 -11.12618,-0.79534c-0.01219,-4.68182 0.59716,-9.64788 1.32212,-14.28044z" fill="#0084ff" stroke-width="0.25"/><path d="M4.89828,192.41151c0,0 -0.03426,0.57104 0.20349,1.18002c-4.02493,-0.08891 -8.11555,-0.08222 -12.13529,0.04461l-0.00625,-0.83679c-0.27667,-3.26354 -0.85094,-6.55383 -1.5839,-9.74978c-0.15324,-0.66817 -0.75441,-1.3161 -0.57741,-1.97837c0.09316,-0.34857 0.63653,0.39742 0.99631,0.4247c1.57452,0.1194 3.18293,-0.00886 4.76197,-0.00602c2.18523,-0.00084 5.21065,-0.28755 8.55915,-0.68829c-0.00011,3.85984 -0.0028,7.752 -0.21807,11.60991z" fill="#ff0000" stroke-width="0.25"/><path d="M-53.23879,202.88396c0.1999,-0.23946 0.62365,-0.82465 0.67784,-1.55965c4.00682,-0.1414 8.04743,-0.25383 12.05873,-0.34706c-4.27349,6.98012 -6.37572,16.68303 -6.66347,24.59278c0.20257,0.27864 0.38775,0.5762 0.56532,0.88183c-4.80979,-0.03804 -9.68402,-0.13822 -14.48391,0.01342c-0.90145,0.02848 -1.82162,0.0234 -2.70167,0.22075c-0.72594,0.16279 -1.36404,1.08056 -2.06854,0.84145c-0.08226,-0.02793 -0.11769,-0.06859 -0.11783,-0.11848c0.0825,-0.09353 0.22909,-0.26833 0.29735,-0.38186c0.27121,-0.24425 0.63696,-0.47021 0.78811,-0.71612c0.44596,-0.72554 0.77421,-1.51813 1.17252,-2.27088c0.94718,-1.79002 1.8045,-3.63238 2.71018,-5.44375c2.59408,-5.18814 5.34728,-10.43807 7.76537,-15.71243z" fill="#ffffff" stroke-width="0.5"/><path d="M-68.95959,223.45451c-3.93059,0.62931 -7.85586,0.41773 -11.82415,0.54503c-8.69837,0.27904 -17.71127,0.26655 -26.45961,0.9801c1.41885,-5.88621 2.78874,-11.80176 3.76821,-17.67887c0.23941,-1.43654 -0.8777,-3.50503 0.29543,-4.36801c0.63421,-0.46654 5.12838,-0.30505 5.56012,-0.30179c13.15935,-0.01169 26.38907,-0.57634 39.54807,-1.0743c-3.12583,6.79193 -6.59587,13.52119 -10.00075,20.17091c-0.24876,0.48583 -0.56818,1.07852 -0.8873,1.72692z" fill="#000000" stroke-width="0.5"/><path d="M-26.04283,224.65787c-2.91645,0.09071 -15.46238,1.6869 -16.36474,-0.41255c0.76799,-7.00344 2.70231,-15.95576 6.82406,-21.77082l0.5514,-1.58808c1.97923,-0.02907 3.96199,-0.05336 5.94282,-0.06021c16.26444,-2.95717 32.5932,-2.56699 48.9042,-1.57041c1.42541,7.93468 0.40664,16.86897 0.36653,24.93618c-15.35965,-0.00428 -30.87038,-0.01163 -46.22427,0.46589z" fill="#000000" stroke-width="0.5"/><path d="M24.83415,199.58179c3.75064,0.25152 7.51052,0.51236 11.27089,0.76553c10.31514,2.81929 20.3458,3.31556 29.06682,10.29733c5.81985,4.65918 12.1727,13.13946 18.68781,18.02317c-19.69107,-0.3294 -39.09868,-4.20435 -58.77226,-4.46376c0.03288,-7.99922 0.88988,-16.66741 -0.25326,-24.62228z" fill="#000000" stroke-width="0.5"/><g><path d="M4.85823,192.38158c0.21527,-3.85791 0.22074,-7.68682 0.22085,-11.54666c-3.3485,0.40074 -6.32489,0.70272 -8.51012,0.70356c-1.57904,-0.00284 -3.1626,0.11088 -4.73712,-0.00852c-0.35978,-0.02728 -0.90185,-0.77472 -0.99501,-0.42615c-0.177,0.66227 0.42848,1.30438 0.58172,1.97255c0.73296,3.19595 1.2983,6.42214 1.57497,9.68568l0.00359,0.83458c4.01974,-0.12683 8.04239,-0.12725 12.06732,-0.03834c-0.23775,-0.60898 -0.20621,-1.17669 -0.20621,-1.17669zM9.85053,192.65893c0,0 -0.02758,0.49646 -0.27955,1.03426c2.17273,0.08117 4.34606,0.18432 6.5199,0.30362c0.03813,-4.84789 0.64446,-9.83421 1.36997,-14.62745c-2.46014,0.24291 -4.96998,0.5466 -7.40125,0.84912l0.01947,0.16818c0,4.10439 -0.00173,8.17228 -0.22855,12.27228zM22.4083,180.09272c-0.72496,4.63256 -1.33136,9.52239 -1.31917,14.20421c3.68849,0.23856 7.37822,0.51075 11.06873,0.78816c0.53277,-2.43081 3.35083,-14.29097 1.97511,-14.97068c-2.48651,-1.22853 -6.79292,-1.41423 -11.71328,-1.13956l-0.0114,1.11786zM37.19924,176.16498c4.38337,3.42514 1.07956,14.30545 -0.02435,19.33502c11.10726,2.99823 21.63709,3.71224 31.04925,11.23684c5.21542,4.1695 17.8751,18.97439 22.37841,20.19713c20.89009,3.13104 46.00529,-2.8866 65.65827,6.1317c4.16703,3.13585 9.358,4.69789 12.45807,9.26137c4.56843,6.72499 3.48339,39.89502 -2.86847,45.31331c-2.68491,2.29029 -6.17956,1.72914 -9.29768,1.75238c-4.70482,0 -9.1055,0.06469 -13.6274,-0.63411c-5.4681,9.23243 -16.28078,17.43976 -29.98078,18.60118c0,0 -2.49137,0.20761 -2.69898,-2.28375c-0.1029,-1.23479 0.4572,-1.90859 1.04837,-2.27415c-1.19627,-0.6621 -2.38559,-1.33682 -3.56632,-2.02606c-5.88179,-2.94221 -9.83,-6.34299 -12.1918,-9.90449c-26.07415,-2.11021 -52.54392,-1.52275 -78.57721,0.74369c-5.68356,0.43736 -45.41699,2.02976 -48.32785,-0.19583c-0.09337,-0.07139 -0.18138,-0.14676 -0.26447,-0.22579c-0.14688,0.17777 -0.26042,0.27711 -0.26042,0.27711l-1.67607,1.4592c-2.99576,2.91814 -3.93074,6.96454 -7.51897,9.48905c-5.16959,3.63709 -12.0226,4.26206 -18.13233,4.05001c-2.94261,-0.10213 -5.87493,-0.05913 -8.62311,-1.35342c-1.32699,-0.62497 -2.41266,-1.66885 -3.61899,-2.50327c-2.89629,-3.89923 -7.67263,-8.46334 -9.33021,-13.27549c-0.05769,-0.0105 -0.08976,-0.01852 -0.08976,-0.01852c-24.46049,-6.11753 -45.62132,2.40213 -37.44719,-32.57137c-0.64016,-0.30453 -1.29667,-0.92914 -1.29667,-2.21026c0,-1.79436 1.2879,-2.30083 2.01493,-2.44378c0.82546,-4.91657 2.34751,-13.16897 3.99767,-21.69212c-0.73584,-0.21163 -1.74337,-0.79118 -1.74337,-2.37826c0,-2.5 2.5,-2.5 2.5,-2.5l-0.08539,0.01931c0.09487,-0.01174 0.18977,-0.02336 0.28471,-0.03488c2.57053,-13.04094 5.18676,-25.34324 5.80629,-25.89512c2.59081,-2.3079 6.21021,-1.93274 9.27374,-1.95166c22.69882,0.0217 45.31036,-1.88054 68.08318,-1.78747c5.82641,-1.05934 11.66134,-1.70493 17.50293,-2.05076l0.0035,-0.64444c-0.26066,-3.18922 -1.52848,-6.47909 -1.57078,-9.6382c-0.02542,-1.8988 -0.51985,-4.12032 0.58172,-5.66713c1.2906,-1.81225 8.19305,-1.33122 9.54723,-1.33346c8.39648,0.00337 34.69689,-5.00984 40.63031,-0.3735zM-72.41283,235.85831c0,0 1.54603,0 2.20652,1.21579c13.51251,-0.93481 28.28196,1.05346 39.20696,-0.31217c22.79695,-0.03336 45.43358,-1.12831 68.23834,-1.12831c21.19661,0 42.00324,3.42322 63.13967,3.37045c19.13355,0 36.08309,5.04795 54.48927,9.27657c0,0 0.43752,0.10096 0.89892,0.40273c1.59007,-2.23778 3.84144,-4.01709 6.44773,-5.03486l0.77197,-0.33314c-2.69419,-2.50132 -6.36738,-3.77291 -9.28763,-5.95591c-17.39827,-8.09752 -45.10208,-2.68347 -64.21622,-5.55251c-0.18759,-0.06333 -0.37515,-0.13128 -0.56265,-0.20368c-0.27186,2.06476 -2.47256,2.06476 -2.47256,2.06476c-21.29286,0 -42.10875,-4.49393 -63.36437,-4.49393c-7.88154,0 -53.00261,2.2066 -64.59614,1.14706c-0.69251,1.0999 -2.13867,1.0999 -2.13867,1.0999c-6.52904,0 -13.41395,0.68232 -19.89408,0.22254c-2.02205,-0.14347 -4.67194,0.66826 -6.02263,-0.84333c-0.56062,-0.6274 -0.82111,-1.37105 -0.8787,-2.16834c-3.39608,0.31312 -6.77524,0.20507 -10.21377,0.31662c-5.02667,0.16307 -10.00902,0.72302 -15.02444,0.89781c-4.28145,0.14922 -8.51971,0.04307 -12.76675,0.30226c-0.57207,2.3797 -1.13499,4.76051 -1.66586,7.1426c2.59335,-0.49451 6.10359,-0.08472 7.82047,-0.08472c10.02634,0 19.87857,-1.34232 29.88461,-1.34818zM-93.37067,250.9339c-0.53737,0.55887 -1.05175,1.15001 -1.54161,1.77518c-5.03447,3.83385 -12.09298,3.58719 -18.37459,4.17376c-0.0071,0.09238 -0.01406,0.18476 -0.02088,0.27714c-7.03086,30.11364 9.4001,22.08137 31.47869,26.80737c-2.34358,-23.07899 23.94825,-24.97745 39.89779,-11.66081c4.09304,2.72317 9.04623,5.41907 11.84776,9.64811c1.02687,1.55012 0.18893,4.10143 1.56227,5.35493c0.17878,0.16318 6.47575,-0.44519 7.11447,-0.44519c12.56548,0 25.43093,0.74618 37.95559,-0.23253c25.39716,-2.20588 51.1862,-2.81432 76.64762,-0.95354c-3.82598,-15.12806 16.78318,-30.56824 37.05196,-25.06535c15.50462,1.38592 19.18354,12.40834 14.97523,23.41714c3.73565,0.43719 7.41611,0.36262 11.32912,0.36262c0.35473,0.0032 4.89772,0.41849 5.98168,-0.49459c1.97311,-1.66207 3.28044,-9.82679 3.72739,-18.28814c-3.49719,0.15917 -9.39953,0.13538 -11.63003,-2.73268c-1.04709,-1.34639 -1.02521,-3.27202 -1.2424,-4.96376c-0.21102,-1.64367 -0.0936,-3.25363 0.29621,-4.77441c-18.00861,-4.17539 -34.59007,-9.13508 -53.30694,-9.13508c-21.14426,-0.04628 -41.94159,-3.37045 -63.13967,-3.37045c-22.70175,0 -45.23394,1.15531 -67.92765,1.11865c-16.96817,2.12102 -45.04002,-4.7929 -60.12957,6.89077c-0.38772,0.5055 -0.87638,1.04514 -1.46934,1.62304c-0.30982,0.30194 -0.67998,0.51156 -1.0831,0.66782zM-102.66965,246.69304c0.06139,0.00856 0.12298,0.01712 0.18465,0.02568c-0.03235,-0.06097 -0.06226,-0.12344 -0.08958,-0.18728c-0.0325,0.05215 -0.0642,0.106 -0.09507,0.16161zM166.42459,260.59897c0.06112,-5.15928 -0.22212,-9.96162 -0.89586,-12.93549l-1.60543,0.684c-3.92303,1.26082 -5.6726,5.19254 -5.55537,9.10337c0.02227,0.74268 -0.32816,1.62339 0.10578,2.22652c0.34433,0.47858 1.1616,0.20514 1.73682,0.33448c2.02875,0.45617 4.13658,0.69866 6.21406,0.58712zM-80.79232,223.95027c3.96828,-0.1273 7.86204,0.1037 11.79263,-0.52561c0.31912,-0.64841 0.63541,-1.23635 0.88417,-1.72217c3.40488,-6.64972 6.87304,-13.33238 9.99887,-20.12432c-13.159,0.49796 -26.30283,1.07008 -39.46217,1.08177c-0.43175,-0.00326 -4.92201,-0.17123 -5.55622,0.29531c-1.17313,0.86298 -0.05261,2.92276 -0.29202,4.3593c-0.97947,5.87712 -2.35228,11.75738 -3.77113,17.64359c8.74834,-0.71356 17.7075,-0.72882 26.40587,-1.00786zM-53.23876,202.93394c-2.4181,5.27436 -5.12762,10.44996 -7.72169,15.63811c-0.90568,1.81137 -1.77011,3.64396 -2.71729,5.43398c-0.39832,0.75275 -0.72837,1.5435 -1.17433,2.26904c-0.15115,0.24591 -0.58658,0.5436 -0.85779,0.78785c-0.06826,0.11354 -0.14515,0.21663 -0.22765,0.31017c0.00014,0.04989 0.03523,0.09024 0.1175,0.11816c0.70449,0.23911 1.3405,-0.68054 2.06644,-0.84333c0.88005,-0.19735 1.79491,-0.19622 2.69636,-0.2247c4.79989,-0.15164 9.62314,-0.05332 14.43293,-0.01528c-0.17758,-0.30563 -0.3625,-0.60332 -0.56507,-0.88197c0.28775,-7.90975 2.37906,-17.53251 6.65255,-24.51263c-4.01131,0.09323 -8.01994,0.21949 -12.02676,0.36089c-0.05418,0.735 -0.47532,1.32026 -0.67522,1.55972zM-26.00459,224.62565c15.35388,-0.47752 30.77985,-0.45631 46.13951,-0.45203c0.04011,-8.06721 1.05916,-16.9641 -0.36625,-24.89878c-16.311,-0.99657 -32.55086,-1.37975 -48.8153,1.57742c-1.98083,0.00685 -3.9608,0.02589 -5.94003,0.05496l-0.55017,1.58516c-4.12174,5.81505 -6.05619,14.73127 -6.82419,21.73471c0.90237,2.09945 13.43998,0.48927 16.35643,0.39857zM36.14495,200.37746c-3.76037,-0.25317 -7.5153,-0.52204 -11.26594,-0.77357c1.14314,7.95486 0.28857,16.58467 0.25568,24.58389c19.67359,0.25941 38.98907,4.12854 58.68014,4.45794c-6.51511,-4.88372 -12.87071,-13.32659 -18.69056,-17.98577c-8.72102,-6.98177 -18.66418,-7.46321 -28.97932,-10.2825z" fill="#000000" stroke-width="0.5"/><path d="M160.19344,260.05884c-0.57522,-0.12934 -1.40406,0.13808 -1.74839,-0.3405c-0.43394,-0.60313 -0.0933,-1.49284 -0.11557,-2.23552c-0.11723,-3.91083 1.68393,-7.92276 5.60696,-9.18358l1.61434,-0.68063c0.67374,2.97387 0.96165,7.86335 0.90053,13.02263c-2.07748,0.11154 -4.22912,-0.12622 -6.25787,-0.58239z" fill="#fff700" stroke-width="0.25"/><path d="M-70.25629,237.07329c-0.66049,-1.21578 -2.10655,-1.21355 -2.10655,-1.21355c-10.00604,0.00587 -19.85825,1.34733 -29.8846,1.34733c-1.71689,0 -5.32711,-0.41085 -7.92047,0.08365c0.53087,-2.38209 1.09389,-4.76555 1.66596,-7.14525c4.24704,-0.25919 8.48534,-0.1535 12.76678,-0.30271c5.01542,-0.17479 9.99785,-0.73565 15.02451,-0.89872c3.43852,-0.11155 6.91721,0.00616 10.3133,-0.30696c0.05759,0.79729 0.31818,1.53987 0.8788,2.16728c1.35068,1.51159 3.9009,0.6919 5.92294,0.83537c6.48013,0.45978 13.36515,-0.22379 19.89419,-0.22379c0,0 1.44627,-0.00096 2.13878,-1.10086c11.59353,1.05954 56.74757,-1.18812 64.62911,-1.18812c21.25562,0 42.138,4.53693 63.43086,4.53693c0,0 2.10118,0.00975 2.37305,-2.05501c0.1875,0.0724 0.47445,0.12934 0.66204,0.19267c19.11413,2.86903 46.81824,-2.54012 64.21651,5.5574c2.92026,2.183 6.59342,3.45681 9.28761,5.95812l-0.77198,0.33327c-2.60629,1.01777 -4.85778,2.79911 -6.44785,5.03689c-0.46141,-0.30177 -0.99863,-0.41033 -0.99863,-0.41033c-18.40617,-4.22862 -35.35585,-9.27307 -54.48941,-9.27307c-21.13643,0.05278 -41.9412,-3.35673 -63.13782,-3.35673c-22.80476,0 -45.34327,1.08313 -68.14022,1.11649c-10.925,1.36562 -25.79442,-0.62511 -39.30693,0.3097z" fill="#ffffff" stroke-width="0.5"/><path d="M-93.42038,250.92845c0.40312,-0.15627 0.77332,-0.36621 1.08313,-0.66815c0.59296,-0.5779 1.08172,-1.11829 1.46943,-1.62379c15.08955,-11.68367 43.16446,-4.78157 60.13263,-6.90259c22.69371,0.03666 45.29463,-1.14509 67.99638,-1.14509c21.19809,0 42.0215,3.35604 63.16576,3.40232c18.71687,0 35.29985,4.96839 53.30846,9.14377c-0.38981,1.52078 -0.50711,3.13258 -0.29609,4.77626c0.21719,1.69175 0.19537,3.61932 1.24246,4.96571c2.23051,2.86806 8.13284,2.89286 11.63003,2.73369c-0.44695,8.46135 -1.7548,16.63269 -3.72791,18.29476c-1.08396,0.91308 -5.62702,0.49829 -5.98175,0.49509c-3.91301,0 -7.69218,0.05861 -11.42783,-0.37859c4.20831,-11.00881 0.52873,-22.02134 -14.97589,-23.40726c-20.26878,-5.50289 -40.78036,9.95097 -36.95438,25.07903c-25.46142,-1.86078 -51.31672,-1.22124 -76.71388,0.98464c-12.52465,0.97871 -25.41642,0.208 -37.9819,0.208c-0.63872,0 -6.93665,0.60628 -7.11543,0.4431c-1.37334,-1.2535 -0.53707,-3.80925 -1.56394,-5.35936c-2.80153,-4.22904 -7.75676,-6.93417 -11.8498,-9.65734c-15.94955,-13.31664 -42.14259,-11.43343 -39.79901,11.64556c-22.07859,-4.726 -38.60865,3.31296 -31.57779,-26.80069c0.00682,-0.09239 0.01379,-0.18486 0.02089,-0.27724c6.28162,-0.58656 13.34028,-0.34201 18.37475,-4.17586c0.48986,-0.62517 1.00433,-1.2171 1.54169,-1.77597z" fill="#ffffff" stroke-width="0.5"/></g></g><path d="M-114.12909,239.39554l1.19165,-1.34061c0.45813,-0.52022 1.12915,-0.84844 1.87683,-0.84844c0.40342,0 0.78452,0.09555 1.12191,0.26526c0.14628,-0.02665 0.297,-0.04057 0.45097,-0.04057c1.38071,0 2.5,1.11929 2.5,2.5v3.37045c0,3.09017 0.01619,5.93299 -0.37766,8.79533c-0.04272,0.62836 -0.07278,1.18404 -0.07295,1.61872l-0.03427,0.07602l0.03062,0.00191l-0.22355,3.57687c-0.07146,1.31668 -1.16176,2.36232 -2.49627,2.36232c-1.11643,0 -2.06193,-0.73181 -2.38299,-1.74189c-0.22379,-0.1845 -0.38774,-0.39134 -0.50627,-0.60611c-0.22385,0.06576 -0.46075,0.10104 -0.70588,0.10104c-1.22888,0 -2.25067,-0.88665 -2.46053,-2.05512l-0.65488,-3.27441c-0.03842,-0.17418 -0.05867,-0.35518 -0.05867,-0.54091v-3.81984h0.01062c-0.00873,-0.53884 -0.01062,-1.13222 -0.01062,-1.79757v-3.37045c0,-1.15346 0.78116,-2.12447 1.84332,-2.41286c0.21444,-0.31713 0.52236,-0.63006 0.95865,-0.81915z" fill="#ff0000" stroke-width="0.5"/></g><path d="M-13.03051,261.97983c0.11004,0.23862 0.97439,2.2795 -1.12892,3.33116c-2.23607,1.11803 -3.3541,-1.11803 -3.3541,-1.11803c-0.83309,-1.68875 -1.30552,-2.42595 -1.65062,-3.70132c-0.50984,-0.50695 -0.93786,-1.3332 -0.4764,-2.56376c0.00536,-0.01429 0.01077,-0.02845 0.01624,-0.0425c-0.16346,-1.47162 -0.19009,-2.95806 -0.2883,-4.43624c-0.10123,-1.52375 -1.00202,-3.23175 -0.27231,-4.57324c1.89701,-3.48743 9.67077,-3.04538 12.92717,-2.67672c1.62407,0.18386 3.48899,-0.0749 4.82655,0.86444c2.87143,2.01653 4.63178,9.10081 2.18612,12.11859c-0.96062,1.18533 -2.53719,1.77456 -3.9883,2.24581c-1.47318,0.47842 -3.06879,0.44578 -4.61434,0.54793c-0.04444,0.00294 -2.30197,0.00372 -4.18279,0.00388zM-14.45164,256.98509c2.9399,0.02665 5.88776,0.12635 8.80216,-0.35234c0.48514,-0.07968 1.08067,-0.08055 1.40441,-0.45054c0.55488,-0.63415 -0.23081,-4.53513 -0.95962,-4.95834c-1.41386,-0.821 -3.2698,-0.03037 -4.90475,-0.02952c-1.58818,0.00083 -3.17422,0.13512 -4.76238,0.14393c-0.30006,0.00166 -0.8753,-0.42878 -0.89089,-0.12912c-0.03155,0.60641 0.70688,1.03239 0.81279,1.63031c0.29467,1.66352 0.37235,2.95207 0.49827,4.14562z" fill="#000000" stroke-width="0.5"/><path d="M4.76682,264.70225c-0.28937,-1.15749 0.11176,-1.90067 0.61023,-2.36137c-0.92985,-1.35462 -1.61682,-2.89033 -1.7923,-4.47827c-0.14566,-1.31814 -0.37917,-2.74302 0.10649,-3.97705c2.0186,-5.12914 8.95807,-6.3681 13.11266,-3.00727c2.7174,2.19823 2.91756,4.46751 2.53149,7.68098c-0.15451,1.28608 -0.32279,2.67002 -1.0513,3.74107c-0.81279,1.19493 -2.05423,2.11917 -3.35835,2.74188c-1.91114,0.91255 -4.17448,0.73814 -6.22843,1.25436l-0.89879,0.2247c0,0 -2.42536,0.60634 -3.0317,-1.81902zM10.65168,260.97483c1.86379,-0.27033 3.48635,-0.796 3.72118,-3.02647c0.121,-1.14927 0.49376,-2.31969 -0.61426,-3.10444c-0.36441,-0.25809 -0.8357,-0.35189 -1.28019,-0.39465c-1.13876,-0.10954 -2.32006,-0.3294 -3.43156,-0.05857c-2.36187,0.5755 0.56183,5.50994 1.26128,6.13988c0,0 0.16486,0.16486 0.34355,0.44424z" fill="#000000" stroke-width="0.5"/><path d="M25.36133,241.25103c2.5,0 2.5,2.06148 2.5,2.06148v0.74113c0,6.64224 0.66789,13.20311 0.67409,19.82525c0,0 0,2.06148 -2.5,2.06148c-2.5,0 -2.5,-2.06148 -2.5,-2.06148c0.00669,-6.61841 -0.67409,-13.18464 -0.67409,-19.82525v-0.74113c0,0 0,-2.06148 2.5,-2.06148z" fill="#000000" stroke-width="0.5"/><path d="M33.14461,255.19887c2.5,0 2.5,2.5 2.5,2.5l-0.00864,0.65701c-0.15137,1.79834 -0.21744,3.60509 -0.21606,5.4098c0,0 0,2.5 -2.5,2.5c-2.5,0 -2.5,-2.5 -2.5,-2.5c0.00139,-1.94323 0.07344,-3.88838 0.23333,-5.82502l-0.00864,-0.24178c0,0 0,-2.5 2.5,-2.5z" fill="#000000" stroke-width="0.5"/><path d="M30.53226,247.81223c0,-1.38071 1.11929,-2.5 2.5,-2.5c1.38071,0 2.5,1.11929 2.5,2.5c0,1.38071 -1.11929,2.5 -2.5,2.5c-1.38071,0 -2.5,-1.11929 -2.5,-2.5z" fill="#000000" stroke-width="0.5"/><path d="M53.50797,262.69365c0,2.5 -2.5,2.5 -2.5,2.5h-2.69636c-1.24004,-0.02229 -2.51916,0.24275 -3.72013,-0.06688c-6.49279,-1.67395 -7.93101,-8.10832 -2.85668,-12.41473c2.93385,-2.48985 3.61108,-2.06934 7.05916,-2.39767c0,0 2.49264,-0.19174 2.68438,2.30089c0.19174,2.49264 -2.30089,2.68438 -2.30089,2.68438c-2.17654,0.109 -2.48177,-0.24682 -4.17565,1.19747c-1.85213,1.57923 -2.12165,3.23834 0.73846,3.76341c0.84332,0.15482 1.71424,-0.04459 2.57137,-0.06688h2.69636c0,0 2.5,0 2.5,2.5z" fill="#000000" stroke-width="0.5"/><path d="M69.67485,247.59138c2.49136,-0.20761 2.69898,2.28375 2.69898,2.28375c0.03501,1.23151 0.51089,2.5313 0.10504,3.69454c-0.89266,2.55854 -4.53335,5.28147 -7.35525,6.9759c2.04116,0.50476 4.48464,0.40607 5.77519,0.31638c0.79461,-0.05522 1.51918,-0.51424 2.14235,-1.07167c0.12084,-0.70736 0.59536,-2.0962 2.45871,-2.0962c2.5,0 2.5,2.5 2.5,2.5l-0.73223,2.44186c-2.36057,2.23956 -2.18506,2.74287 -5.70516,3.18177c-2.36902,0.29538 -6.31902,0.06999 -8.63389,-0.81464c-2.28994,-0.87511 -4.75089,-2.63323 -5.71107,-5.02355c-2.51631,-6.26424 2.72336,-15.24386 10.06762,-13.17301c0.61342,0.17297 1.14076,0.53081 1.64644,0.93513c0.21629,-0.07451 0.46266,-0.12687 0.74328,-0.15025zM65.7389,251.56141c-2.62198,-1.20056 -3.96732,2.69399 -4.02028,5.20288c1.84395,-0.94501 4.25039,-2.45709 5.25563,-4.24919c-0.38178,-0.36619 -0.761,-0.73649 -1.23535,-0.95369z" fill="#000000" stroke-width="0.5"/></g><path d="M288.01047,150.75537c13.76766,2.40009 26.03082,12.09614 33.04906,28.95081c1.37597,6.24463 4.22643,14.12885 2.73237,20.6676c-3.16337,13.84457 -34.3492,21.64496 -45.90442,21.64496c-0.91926,0 -1.84254,-0.00054 -2.7618,-0.00054l-3.15031,2.11033c0,0 -1.13658,1.13652 -0.67576,2.49828c-1.31853,-0.1261 -2.63894,-0.18217 -3.87633,-0.15227c-0.63113,-0.32188 -1.27008,-0.32245 -1.27008,-0.32245c-21.84204,0.29196 -39.14575,-43.75722 -20.49158,-60.71956c5.49856,-5.07865 11.38404,-8.90282 17.35378,-11.44309c1.14152,-0.02326 2.12246,-0.07562 2.90121,-0.16291c6.62326,-0.74237 12.85929,-2.41988 19.60627,-2.65026c0.90692,-0.04697 1.72206,-0.20652 2.48759,-0.42089z" fill="#ffba00" stroke-width="0.5"/><path d="M280.07086,203.94789c-2.5,0 -2.5,-2.5 -2.5,-2.5v-0.68945c0,-4.34707 -0.60293,-9.21946 0.03228,-13.49983c0.21885,-1.47474 1.04796,-2.79922 1.39956,-4.24806c0.57597,-2.37342 0.42563,-4.86604 0.64675,-7.29832c0,0 0.22634,-2.48973 2.71607,-2.2634c2.48973,0.22634 2.26339,2.71607 2.26339,2.71607c-0.23851,2.62364 -0.12503,5.30583 -0.73214,7.86938c-0.32633,1.37795 -1.14303,2.62561 -1.3582,4.02523c-0.61566,4.00468 0.03228,8.62642 0.03228,12.69892v0.68945c0,0 0,2.5 -2.5,2.5z" fill="#000000" stroke-width="0.5"/><path d="M298.02526,200.77019c-2.5,0 -2.5,-2.5 -2.5,-2.5l0.17881,-2.30736c1.58215,-3.80104 1.05293,-7.93573 2.76925,-11.74873c1.71616,-3.81264 4.76211,-6.23695 7.20411,-9.50602c0,0 1.5,-2 3.5,-0.5c2,1.5 0.5,3.5 0.5,3.5c-2.12277,2.82016 -5.15424,5.14423 -6.58471,8.41944c-1.64157,3.75856 -1.24993,7.83127 -2.74627,11.69227l0.17881,0.4504c0,0 0,2.5 -2.5,2.5z" fill="#000000" stroke-width="0.5"/><path d="M289.75197,213.18012c-0.85711,0 -1.42037,-0.29386 -1.79051,-0.68007c-3.82043,0.0315 -7.8634,0.08265 -11.50065,-0.88375c-1.56246,-0.41513 -2.89466,-1.48475 -4.44752,-1.93444c-5.50484,-1.59413 -10.30367,3.3531 -10.09672,8.58211c0,0 0,2.5 -2.5,2.5c-2.5,0 -2.5,-2.5 -2.5,-2.5c0.02792,-1.13315 -0.28679,-2.32822 0.08375,-3.39943c2.36804,-6.8458 8.45239,-11.97585 16.01829,-10.08057c1.66526,0.41716 3.08818,1.55131 4.74392,2.00475c3.75614,1.02864 8.12742,0.70255 11.98944,0.70195l2.5,3.18944c0,0 0,2.5 -2.5,2.5z" fill="#000000" stroke-width="0.5"/><path d="M303.72744,163.54527c2.32119,0.92847 1.39272,3.24967 1.39272,3.24967l-1.52067,3.74354c-2.43643,3.1652 -2.76383,6.36818 -4.66079,9.98417c-0.76003,1.44877 -0.75824,4.00125 -2.36682,4.29968c-1.83484,0.34042 -3.45308,-1.62862 -4.73853,-2.98145c-3.7114,-3.90594 -1.79559,-4.95347 -3.70168,-9.38446c-0.49313,-1.14635 -1.76972,-1.86402 -2.18269,-3.04163c-0.39166,-1.11686 -0.08553,-2.36556 -0.12829,-3.54834c0,0 0,-2.5 2.5,-2.5c2.5,0 2.5,2.5 2.5,2.5c-0.04276,0.65573 -0.37813,1.35942 -0.12829,1.9672c0.39954,0.97191 1.53697,1.50935 1.95396,2.47391c0.68516,1.58483 0.68034,3.4006 1.2849,5.0179c0.23932,0.64021 0.63932,1.21097 1.02099,1.78812c0.46776,-0.79139 1.0333,-1.55016 1.34537,-2.40628c0.42659,-1.1703 0.26574,-2.51812 0.77185,-3.65629c0.49741,-1.11861 1.44745,-1.97477 2.17118,-2.96215l1.2371,-3.15087c0,0 0.92848,-2.32119 3.24967,-1.39272z" fill="#000000" stroke-width="0.5"/><path d="M185.81413,197.84159c1.11803,2.23607 -1.11803,3.35411 -1.11803,3.35411l-0.07156,-0.94029c-0.33692,1.1672 -0.24039,2.56223 -1.01074,3.5016c-3.353,4.08866 -7.79547,4.92497 -12.29157,2.20813c-1.23777,-0.74794 -1.97362,-2.13742 -3.13505,-2.99915c-1.42801,-1.05954 -3.36542,-1.43326 -4.58408,-2.72814c-1.43765,-1.52758 -2.45658,-3.47412 -3.1245,-5.46263c-0.43407,-1.29229 -0.08065,-2.72563 -0.08375,-4.08887c-0.00506,-2.22481 0.69069,-4.44442 1.57492,-6.48597c0.46049,-1.0632 0.47133,-2.39118 1.26086,-3.23916c1.32067,-1.41844 3.19056,-2.20146 4.80421,-3.27492c5.02911,-3.34555 10.4505,-6.02624 15.63587,-9.13747c0,0 2.14373,-1.28624 3.42997,0.8575c1.28624,2.14373 -0.85749,3.42997 -0.85749,3.42997c-2.32556,1.39533 -4.58844,2.9011 -6.97763,4.18443c-5.37511,2.88718 -12.27842,5.10684 -13.9376,11.48224c-0.64922,2.49464 -0.12311,6.40042 1.82001,8.20872c1.13868,1.05967 2.821,1.3547 4.07198,2.27911c2.0222,1.49428 5.80356,5.97116 8.18573,2.06588c0.35538,-0.5826 0.24543,-1.34262 0.36814,-2.01393l2.68621,-2.31917c0,0 2.23606,-1.11804 3.3541,1.11803z" fill="#000000" stroke-width="0.5"/><path d="M222.8037,198.18567c1.40018,6.74824 3.23327,13.82642 3.26194,16.6311c0,0 0,2.5 -2.5,2.5c-2.5,0 -2.5,-2.5 -2.5,-2.5c0.05921,-4.32331 -1.87345,-10.45958 -3.21704,-16.62587c-0.49739,-0.35648 -0.9196,-0.96166 -0.9196,-1.98904c0,-0.51987 0.10811,-0.93163 0.27936,-1.25776c-0.04566,-0.2646 -0.08939,-0.52868 -0.13095,-0.79208c-0.18592,0.38894 -0.41783,0.74667 -0.70672,1.05984c-0.87493,0.94846 -2.46484,0.77541 -3.65817,1.26639c-2.73124,1.12374 -5.3801,2.70675 -8.02262,4.02801l-1.40913,0.11672c0.15099,0.74446 0.08076,1.82868 -1.22631,2.57558c-2.17061,1.24034 -3.41096,-0.93026 -3.41096,-0.93026c-1.56782,-2.77267 -2.79152,-5.7601 -3.67828,-8.81941c-0.70148,-2.42011 -3.0621,-8.87029 -1.18139,-11.52604c3.55187,-5.01559 13.02712,-7.30962 18.51584,-4.49048c2.70159,1.3876 4.2045,3.67005 4.93043,6.24435c0.61286,-2.09063 1.71359,-3.92169 3.4949,-5.36009c7.17062,-5.79022 12.46759,-2.88307 13.20627,2.86753c0.87435,-7.45731 3.77783,-14.33088 9.21175,-19.40017c3.33949,-3.07369 6.80914,-5.71676 10.35825,-7.93139c-11.92197,-0.40258 -27.71533,-1.13244 -35.59895,0.75292c-0.69643,1.04492 -1.33833,2.16994 -2.46294,2.58581c-0.82365,0.30458 -1.72094,0.19342 -2.608,-0.05644c-0.68015,0.32568 -1.71706,0.5052 -2.75397,-0.53171c-0.25628,-0.25628 -0.43826,-0.51257 -0.56209,-0.76347c-4.29708,-2.25439 -9.30843,-7.74375 -10.42105,-12.05746c-0.73474,-2.84864 -0.70857,-5.9645 -0.02383,-8.82557c0.48199,-2.0139 1.80344,-3.81685 2.01361,-5.87693c0.19297,-1.89156 -0.33799,-4.20105 0.14625,-6.04258c0.43524,-1.6552 1.53716,-3.08077 2.00276,-4.72769c0.71717,-2.53679 0.52831,-5.30315 1.44132,-7.77622c0.89495,-2.42415 2.05944,-4.74638 2.89102,-7.193c3.70702,-4.9681 26.92525,-25.9092 32.48472,-26.15314c6.03558,-0.26484 20.63379,16.16941 27.41526,17.24535c0.7842,0.12442 7.98304,-10.59068 9.28409,-11.65282c1.74462,-2.31271 12.0072,-14.86873 14.53677,-15.24064c0.25248,-0.03712 8.65544,12.11405 10.47469,13.73173c12.20628,10.85381 22.22157,3.39655 33.44205,-5.01319c2.33154,-1.51267 7.19698,-4.955 9.58024,-4.249c1.5795,0.4679 1.92874,14.1201 1.93463,15.9511c0.05733,17.8158 6.20497,34.80004 6.20497,52.91304c-0.17649,2.17951 0.60391,4.66855 -0.52949,6.53853c-2.07484,3.42325 -13.6165,1.65091 -17.13821,1.65091c-11.77857,0 -24.15476,-1.0575 -36.00684,-0.36192c11.46006,4.83366 21.28312,14.7018 27.36023,29.51437c1.58396,7.07168 4.73844,16.0936 2.7826,23.48072c-4.37835,16.53687 -36.38447,25.27366 -50.67015,25.27366c-0.91926,0 -1.83851,0 -2.75777,0l0.12038,0.20018c3.24529,0.67083 5.98606,1.73582 6.8812,2.96249c0.41766,0.57235 0.3245,6.58457 0.3245,7.43671c0,0.7421 -0.0047,1.48756 -0.01322,2.23599c0.94578,-0.03945 1.88793,-0.04256 2.81207,0.13521c1.70917,0.32878 3.18732,1.42796 4.86001,1.90906c4.06552,1.16932 8.51451,1.04977 12.56749,2.27233c4.87797,1.47142 9.03584,3.42902 14.07567,4.39104c5.28805,1.0094 8.53402,3.00107 13.22301,5.41406c1.42737,0.73454 3.41689,0.77662 4.33809,2.09129c1.11662,1.59355 0.62394,3.84886 1.13903,5.72528c0.72377,2.63657 1.79746,5.20656 2.13389,7.91989c0.5293,4.26887 0.29996,7.17389 1.90875,11.10159l0.17881,2.9968c0,0 0,2.5 -2.5,2.5c-2.5,0 -2.5,-2.5 -2.5,-2.5l0.17881,-1.13984c-2.09677,-5.34639 -1.33577,-10.65345 -2.84411,-16.11198c-0.33219,-1.20216 -1.1189,-2.25708 -1.38655,-3.47524c-0.28143,-1.28085 0.44205,-2.80671 -0.23985,-3.92689c-0.45788,-0.75218 -1.74748,-0.31833 -2.55633,-0.66648c-2.62418,-1.12949 -4.78784,-3.22225 -7.4742,-4.19463c-1.44163,-0.52182 -3.01846,-0.53988 -4.52573,-0.82041c-5.18713,-0.9654 -9.48316,-2.96152 -14.47777,-4.48419c-4.05796,-1.23712 -8.53797,-1.1154 -12.6198,-2.28705c-1.53107,-0.43948 -2.86293,-1.49175 -4.42476,-1.80485c-0.64695,-0.12969 -1.30558,-0.13523 -1.96792,-0.10129c-0.31836,11.50153 -1.07305,23.48194 0.78489,34.54604c1.33171,7.93038 4.01232,17.00193 4.13707,24.84458c6.14817,23.9456 10.39095,21.05578 31.56519,29.70863c3.93838,1.60942 17.19427,6.32691 15.95809,12.53767c-0.71879,3.61129 -8.17075,3.95142 -10.8383,4.33885c-9.94278,1.43883 -33.96563,8.83171 -42.41421,4.18536c-7.62794,-4.19504 -7.21934,-35.14148 -9.69122,-37.6801c-0.5478,-0.56259 -0.5334,1.47873 -0.74246,2.23561c-0.44349,1.60566 -1.02402,3.21302 -1.93545,4.60734c-1.0429,6.15263 1.3438,20.30779 -4.47315,23.88457c-3.59864,2.21276 -53.09554,3.59117 -57.39441,1.54256c-5.91808,-2.82024 -4.30106,-10.97494 -4.30106,-16.09852c0,-5.73201 -2.58705,-21.16337 0.73223,-25.8982c0.75975,-1.08376 34.54209,-0.79449 46.91326,-0.28619c0.23956,-2.73149 1.02311,-5.54181 2.23691,-7.9832c0.51155,-1.02892 1.55444,-1.73001 2.06832,-2.75777c0.42376,-0.84751 0.26213,-1.91204 0.68944,-2.75777c0.4739,-0.93791 1.55442,-1.50199 1.95396,-2.4739c0.24984,-0.60778 -0.08553,-1.31146 -0.1283,-1.9672c0,-6.15411 -0.58795,-27.36069 0.32337,-43.19704c-0.67124,-0.05621 -1.33682,-0.06374 -1.98212,0.10323c-1.24172,0.32129 -2.05804,1.61926 -3.2781,2.01495c-2.71724,0.88127 -5.74661,0.14782 -8.53535,0.76665c-0.89191,0.19791 -1.56736,0.96313 -2.42584,1.27569c-2.29201,0.83451 -4.99204,1.16935 -6.72414,2.88678c-2.36478,2.34474 -2.43686,5.72129 -2.64984,8.8788c-0.33656,4.98967 0.41132,9.62838 0.64981,14.54126l3.09291,0.70579c0,0 2.37171,0.79057 1.58114,3.16228c-0.79057,2.37171 -3.16228,1.58114 -3.16228,1.58114l-5.18039,-2.05197c-2.00702,-6.08121 -2.41689,-11.87846 -1.96943,-18.28131c0.31802,-4.55061 0.74147,-8.70768 4.10604,-12.07503c2.20205,-2.20387 5.51563,-2.94304 8.44356,-4.00762c1.07349,-0.39032 1.97469,-1.234 3.08969,-1.48207c2.61428,-0.58161 5.47828,0.25777 8.01123,-0.61224c1.3218,-0.454 2.25821,-1.79185 3.61632,-2.12169c1.1902,-0.28905 2.42645,-0.21853 3.66255,-0.14915c0.40988,-4.72038 1.00338,-8.63571 1.85314,-11.03502c-15.80041,-4.60839 -27.3834,-25.58477 -27.17139,-44.4789c-0.72478,3.09438 -2.53444,6.49103 -5.68492,9.63181c-1.57837,1.15813 -3.31506,2.1726 -5.15771,2.85293zM221.86548,193.23291c1.00894,-0.42853 1.96115,-1.01224 2.81991,-1.67744c9.98982,-10.02364 0.83906,-14.68465 -2.94671,-7.49627c-0.81223,1.54225 -0.5579,5.03647 0.12679,9.17371zM200.95351,195.83985c0.32024,-0.06966 0.55002,-0.06967 0.55002,-0.06967l0.95029,0.26393c2.71298,-1.35649 5.64796,-3.29957 8.52396,-4.24529c0.58922,-0.19376 1.36543,0.2653 1.85736,-0.11249c0.99085,-0.76096 -0.05576,-2.49849 -0.04279,-3.74776c0.02299,-2.21408 -0.36334,-4.89833 -2.7806,-6.05037c-3.14831,-1.50045 -9.55308,-0.26919 -11.81956,2.40393c-0.34612,0.40822 0.26005,1.04412 0.29582,1.57812c0.0525,0.78409 -0.19124,1.5877 -0.03229,2.3573c0.54844,2.65544 1.40213,5.19012 2.49779,7.6223zM212.25113,151.51252c0.63203,-0.34903 1.32119,-0.66333 2.06128,-0.94591c0.22681,-0.72871 0.81796,-1.67841 2.35882,-1.67841c0.74737,0 1.27131,0.22343 1.63863,0.53669c12.43459,-2.61533 32.85338,0.01205 44.39521,-0.29734c8.75394,-3.56825 17.71715,-4.67952 26.18919,-3.36371c1.72874,-0.55203 3.25599,-1.42951 5.37834,-1.683c10.55902,-1.26119 22.0617,-0.01873 32.70918,-0.01873c5.74526,0 11.4908,-0.01633 17.23603,0c1.41439,0.00402 3.98988,1.66512 4.23445,0.27203c0.20184,-1.14966 -0.35299,-2.30765 -0.52948,-3.46147c0,-14.08093 -2.75071,-27.11791 -5.47042,-40.71977c-1.12036,-5.60313 -0.71416,-11.72268 -1.40526,-17.40333c-0.16404,-1.34833 -0.43858,-2.77002 -0.35684,-4.12561c-0.80474,0.66917 -1.76667,1.17674 -2.62527,1.73342c-8.94369,6.71259 -21.36527,16.7956 -33.08075,9.72888c-3.89279,-2.34811 -9.54264,-6.55352 -11.89222,-10.54705c-0.90517,-1.5385 -1.8298,-3.09424 -2.46873,-4.75925c-1.51094,4.66979 -7.4921,7.74935 -10.28697,11.48313c-3.63633,2.82904 -7.34605,12.9936 -12.42193,13.14918c-6.41294,0.19656 -24.4841,-17.56158 -27.74001,-17.2267c-3.62074,0.37241 -25.22343,19.65618 -28.18608,23.4866c-0.73357,2.24968 -1.78026,4.38528 -2.62451,6.59582c-0.88173,2.30867 -0.67372,5.11021 -1.31644,7.39149c-0.43983,1.56112 -1.49293,2.90368 -1.93644,4.46376c-0.49671,1.74725 0.16201,3.64528 -0.0512,5.4492c-0.53888,4.55918 -3.30045,8.04556 -2.14687,12.87514c0.5732,2.39977 4.1657,6.19576 6.02365,7.65956c0.70921,0.55875 1.52615,0.96092 2.31466,1.40539zM286.34568,151.2259c-6.74698,0.23039 -12.95717,1.90417 -19.58043,2.64654c-0.77876,0.08729 -1.75653,0.13816 -2.89805,0.16142c-5.96974,2.54027 -11.83643,6.34752 -17.335,11.42618c-18.65416,16.96234 -1.37383,60.93752 20.46821,60.64556c0,0 0.63744,0.00001 1.26857,0.32188c1.23739,-0.0299 2.55328,0.02478 3.8718,0.15088c-0.46082,-1.36176 0.67571,-2.4983 0.67571,-2.4983l3.14665,-2.11111c0.91926,0 1.83851,0 2.75777,0c11.55523,0 42.68821,-7.76376 45.85158,-21.60833c1.49405,-6.53875 -1.35696,-14.39886 -2.73293,-20.6435c-7.01824,-16.85467 -19.24174,-26.51249 -33.00939,-28.91258c-0.76553,0.21436 -1.57757,0.37439 -2.48449,0.42136zM256.41217,307.73569c0.69169,0.32853 1.59529,1.06561 1.33373,2.63493c-0.411,2.46598 -2.87698,2.05498 -2.87698,2.05498c-10.35666,-1.74885 -21.49603,-0.65542 -31.99273,-0.65542c-4.44566,0 -9.43413,0.71861 -13.78882,0c-0.40498,-0.06683 -0.9479,-1.14053 -0.99,-0.73224c-0.703,6.81827 0.73224,15.29627 0.73224,22.36267c0,1.28015 -1.32628,10.71221 1.21447,11.47912c4.32917,1.30674 49.02837,0.34717 52.91614,-1.2152c0.52898,-0.21258 0.89359,-0.83867 0.97904,-1.40232c0.99913,-6.59051 0.13563,-13.29067 1.4077,-20.0248c19.03957,-29.87903 10.98748,24.9597 19.37967,28.26336c10.57351,4.16236 28.46993,-3.14862 39.33793,-4.72531c1.65775,-0.2396 3.28331,-0.74443 4.9466,-0.90755c-3.46939,-1.23458 -8.35262,-5.2125 -11.25598,-6.39843c-23.70639,-9.68336 -27.93872,-6.35242 -34.62114,-33.71993c0.14749,-7.62421 -2.84397,-17.01183 -4.12567,-24.75823c-2.2581,-13.64755 -0.71915,-28.57074 -0.71915,-42.423c0,-1.66126 1.24732,-3.59185 0.3245,-4.97323c-0.71947,-1.07698 -12.87281,-1.20957 -13.59875,-0.58252c-1.7466,1.50868 -1.71954,50.48858 -1.71954,57.26381c-0.04276,1.18278 0.26337,2.43147 -0.12829,3.54833c-0.41296,1.17761 -1.62885,1.92334 -2.18268,3.04163c-0.42052,0.84912 -0.26569,1.91025 -0.68944,2.75776c-1.55542,3.11084 -3.68002,5.59422 -3.88286,9.11158z" fill="#000000" stroke-width="0.5"/><path d="M260.25689,298.65645c0.42376,-0.84751 0.26338,-1.91664 0.6839,-2.76576c0.55383,-1.11829 1.76448,-1.87797 2.17745,-3.05558c0.39166,-1.11687 0.08918,-2.3972 0.13194,-3.57998c0,-6.77523 0.01531,-55.7838 1.76192,-57.29247c0.72594,-0.62705 12.89063,-0.49382 13.6101,0.58316c0.92282,1.38137 -0.32403,3.31204 -0.32403,4.97331c0,13.85225 -1.51442,28.7875 0.74368,42.43505c1.2817,7.7464 4.27706,17.20438 4.12957,24.82859c6.68241,27.36752 10.84111,23.96894 34.5475,33.6523c2.90335,1.18593 7.86043,5.23126 11.32982,6.46583c-1.66328,0.16312 -3.29057,0.66981 -4.94832,0.90941c-10.868,1.57669 -28.78693,8.90101 -39.36044,4.73865c-8.3922,-3.30367 -0.35851,-58.14084 -19.39808,-28.26181c-1.27207,6.73413 -0.40795,13.43435 -1.40708,20.02486c-0.08545,0.56365 -0.45087,1.18967 -0.97985,1.40224c-3.88777,1.56236 -48.61868,2.50588 -52.94785,1.19914c-2.54075,-0.76691 -1.21847,-10.20398 -1.21847,-11.48413c0,-7.0664 -1.44188,-15.5578 -0.73888,-22.37607c0.0421,-0.40829 0.68,0.63414 1.08498,0.70097c4.35469,0.71861 9.34155,-0.00414 13.78721,-0.00414c10.49669,0 21.61772,-1.1151 31.97438,0.63376c0,0 2.41369,0.49618 2.82469,-1.9698c0.26155,-1.56932 -0.64719,-2.30979 -1.33888,-2.63832c0.20283,-3.51736 2.31933,-6.00836 3.87475,-9.11921z" fill="#0500ff" stroke-width="0.5"/><path d="M209.89282,150.13152c-1.85795,-1.4638 -5.45313,-5.26537 -6.02633,-7.66514c-1.15359,-4.82958 1.60564,-8.32335 2.14451,-12.88253c0.21321,-1.80392 -0.44623,-3.70562 0.05049,-5.45287c0.44351,-1.56008 1.49623,-2.90562 1.93606,-4.46674c0.64273,-2.28128 0.4345,-5.08824 1.31622,-7.39691c0.84425,-2.21054 1.89127,-4.35127 2.62484,-6.60095c2.96265,-3.83043 24.57715,-23.14107 28.19788,-23.51347c3.25591,-0.33488 21.33942,17.41292 27.75236,17.21636c5.07587,-0.15558 8.81896,-10.32652 12.45529,-13.15556c2.79487,-3.73377 8.78592,-6.8107 10.29686,-11.48049c0.63894,1.66501 1.56842,3.2229 2.47359,4.7614c2.34959,3.99353 8.01593,8.21236 11.90872,10.56048c11.71549,7.06673 24.05377,-2.96174 32.99746,-9.67433c0.85861,-0.55668 1.90884,-1.11118 2.71358,-1.78036c-0.08173,1.35559 0.194,2.77965 0.35803,4.12798c0.6911,5.68065 0.28868,11.81179 1.40904,17.41492c2.71971,13.60186 5.468,26.66645 5.468,40.74738c0.17649,1.15383 0.73059,2.3136 0.52876,3.46326c-0.24457,1.39309 -2.82045,-0.26714 -4.23484,-0.27116c-5.74523,-0.01633 -11.49356,0.00529 -17.23882,0.00529c-10.64748,0 -22.16754,-1.22532 -32.72656,0.03587c-2.12236,0.25349 -3.65667,1.13441 -5.38541,1.68645c-8.47204,-1.31581 -17.47096,-0.2042 -26.2249,3.36405c-11.54183,0.30938 -31.98555,-2.33826 -44.42014,0.27706c-0.36732,-0.31327 -0.89176,-0.53751 -1.63913,-0.53751c-1.54086,0 -2.04641,0.898 -2.27322,1.62672c-0.74009,0.28258 -1.51486,0.64856 -2.14689,0.99759c-0.78851,-0.44447 -1.60624,-0.848 -2.31545,-1.40676z" fill="#0500ff" stroke-width="0.5"/><path d="M231.96005,219.71118c2,1.5 0.5,3.5 0.5,3.5l-2.06832,2.75777c-2.04914,2.72233 -6.61667,8.84893 -9.98431,9.24101c-1.3729,0.15984 -1.43845,-2.44416 -2.54275,-3.27538c-0.6576,-0.49498 -1.73561,-0.01469 -2.42519,-0.46404c-2.46299,-1.60496 -3.76105,-4.52063 -5.56486,-6.84194c-2.21565,-2.8513 -3.48585,-2.48296 -5.10108,-5.96285c-0.76508,-1.64832 -1.02479,-3.487 -1.53719,-5.23049c0,0 -0.6868,-2.40381 1.71701,-3.09061c2.40381,-0.6868 3.09061,1.71701 3.09061,1.71701c0.40334,1.46159 0.59686,2.99805 1.21003,4.38475c0.75687,1.71168 3.59022,3.85726 4.56164,5.10514c1.32286,1.69932 2.05311,4.3594 4.08732,5.56799c0.92359,0.54873 2.31322,0.17308 3.09034,0.91484c0.54264,0.51795 -0.48707,2.50435 0.21502,2.24015c0.98211,-0.36957 0.77221,-1.97131 1.36731,-2.83559c1.11105,-1.6136 2.64363,-2.90043 3.81609,-4.46999l2.06832,-2.75777c0,0 1.5,-2 3.5,-0.5z" fill="#000000" stroke-width="0.5"/><g stroke-width="0.5"><path d="M413.7028,169.66553c-0.70508,-2.27099 -0.44708,-4.71145 -0.91511,-7.05161c0.08494,-19.22483 3.53885,-30.46149 23.17054,-34.67564l1.63521,1.63286c5.87825,5.85043 6.79714,13.41252 9.8448,20.72974c-0.4394,19.74665 0.19575,28.64312 -15.44791,41.08249c-0.7261,0.00799 -1.45702,0.01387 -2.18598,0.01666c-3.18727,-3.47316 -7.31163,-6.06487 -11.97731,-8.02301c-1.10546,-4.62196 -2.72683,-9.21057 -4.12424,-13.71148z" fill="#04ff00"/><path d="M475.83023,200.58276c21.31944,10.66241 30.18638,27.17311 38.20907,48.62096c1.78177,5.18818 3.5524,9.78595 4.92192,15.26478c0.48851,1.95432 0.59062,4.0514 1.46862,5.86443c0.20444,0.42217 1.5643,0.9369 1.09881,0.8791c-17.00215,-2.11133 -35.71733,-0.82498 -52.5956,-4.24002c-9.3612,-2.67102 -20.4266,-4.7818 -28.92495,-9.78418c-5.87472,-3.45804 -11.43068,-7.51059 -16.93849,-11.62485c8.80818,-7.31025 13.73743,-16.9973 13.73743,-34.73809c-0.0781,-5.73527 -1.28767,-10.46448 -3.38012,-14.36494c0.08195,-0.06394 0.16374,-0.12803 0.24499,-0.19183c14.30744,-0.25886 28.18355,-1.26829 42.1583,4.31464z" fill="#04ff00"/><path d="M400.36746,253.37138c-0.06721,-0.08166 -0.14153,-0.16346 -0.22337,-0.2453c-1.76777,-1.76777 -3.5389,0.002 -3.5389,0.002l-3.60064,3.60306c-1.79679,2.27062 -2.52964,3.15453 -5.14701,4.16951c-18.28543,-7.01255 -56.69504,-6.38521 -61.60613,-31.53001c-4.85355,-23.57341 6.13412,-55.70349 34.08695,-50.11292c20.44553,4.08903 72.19688,-1.01775 71.56009,31.58593c0,26.6624 -11.90233,32.82249 -31.53099,42.52773z" fill="#ff6e00"/><path d="M355.34914,226.85188v-2c0,-8.16667 0,-16.33333 0,-24.5c0,0 0,-2.5 2.5,-2.5c2.5,0 2.5,2.5 2.5,2.5c0,8.16667 0,18.33333 0,26.5c0,0 0,2.5 -2.5,2.5c-2.5,0 -2.5,-2.5 -2.5,-2.5z" fill="#000000"/><path d="M366.50286,239.25236c0,2.5 -2.5,2.5 -2.5,2.5c-0.83333,0 -2.66667,0 -3.5,0c0,0 -0.20564,0 -0.49897,-0.05898c-0.22181,0.04774 -0.36963,0.05552 -0.36963,0.05552l-4.50691,0.23721c-2.38693,0.12237 -4.79185,0.24249 -7.1342,0.7177c0,0 -0.24514,0.04903 -0.59589,0.03856c-0.51719,0.62444 -1.02325,1.23205 -1.52269,1.80056l0.05345,0.7122c0.04804,-0.00277 0.07484,-0.00277 0.07484,-0.00277c6.82842,0 13.62459,-0.5 20.5,-0.5c1.26779,0 3.73223,0.73223 3.73223,0.73223c0,0 -0.62582,-1.96641 -0.72007,-2.98589c-0.51502,-5.5713 -2.02427,-7.76672 -7.51217,-7.74634c-1.90577,-0.00842 -5.1511,-0.15092 -6.94405,0.76605c-0.84481,0.43206 -1.64459,0.98019 -2.40741,1.60477c0.73783,-0.04953 1.47612,-0.09043 2.21315,-0.13015l4.50691,-0.23721c0,0 0.26885,-0.01415 0.63473,0.05506c0.2921,-0.05852 0.49666,-0.05852 0.49666,-0.05852c0.83333,0 1.66667,0 2.5,0h1c0,0 2.5,0 2.5,2.5zM343.66615,248.74869c-0.05321,0.00242 -0.10764,0.00366 -0.1633,0.00366c-2.5,0 -2.5,-2.5 -2.5,-2.5l0.12829,-3.29057c2.99573,-4.32739 6.91902,-9.5638 11.81576,-11.97548c2.51766,-1.23997 6.34848,-1.2238 9.05595,-1.23395c7.58049,0.02386 18.30936,12.72617 11.76777,19.26777c-1.02632,1.02632 -24.58233,1.23223 -27.76777,1.23223c0,0 -1.78134,0 -2.3367,-1.50366z" fill="#000000"/><path d="M342.39768,225.84217l-0.5,-2.5c-1.32064,-6.75593 -0.54855,-14.12311 -0.54855,-20.99029c0,0 0,-2.5 2.5,-2.5c2.5,0 2.5,2.5 2.5,2.5c0,6.49613 -0.85978,13.62901 0.45145,20.00971l0.5,2.5c0,0 0.49029,2.45145 -1.96116,2.94174c-2.45145,0.49029 -2.94174,-1.96116 -2.94174,-1.96116z" fill="#000000"/><path d="M364.3056,236.67741l-0.99783,0.0035c-0.83333,0 -1.65475,0.01232 -2.48808,0.01232c0,0 -0.20056,0.00263 -0.49266,0.06115c-0.36589,-0.06921 -0.62755,-0.05156 -0.62755,-0.05156l-4.4529,0.22561c-0.73703,0.03973 -1.55483,0.02146 -2.29266,0.071c0.76282,-0.62458 1.57904,-1.19039 2.42385,-1.62245c1.79295,-0.91697 5.09525,-0.77285 7.00102,-0.76443c5.4879,-0.02038 7.01644,2.22549 7.53146,7.7968c0.09424,1.01948 0.71686,2.99587 0.71686,2.99587c0,0 -2.46636,-0.72834 -3.73416,-0.72834c-6.87541,0 -13.76139,0.49554 -20.58982,0.49554c0,0 -0.02684,-0.00009 -0.07488,0.00268l-0.05441,-0.71463c0.49945,-0.56851 1.00395,-1.18123 1.52114,-1.80567c0.35075,0.01047 0.69285,-0.06301 0.69285,-0.06301c2.34235,-0.47521 4.74095,-0.60981 7.12789,-0.73219l4.43008,-0.24623c0,0 0.14371,-0.0033 0.36552,-0.05105c0.29333,0.05898 0.49626,0.06265 0.49626,0.06265c0.83333,0 2.66,0.01454 3.49334,0.01454c0,0 2.49846,0.01835 2.49846,-2.48165c0,-2.5 -2.49379,-2.48047 -2.49379,-2.48047z" fill="#ffffff"/><path d="M430.22085,142.56131l0.57974,1.80028c0.16219,0.96578 0.43091,1.70614 0.78774,2.369c0.47234,-1.78874 0.80084,-3.57973 0.76081,-5.37871v-1.5c0,0 0,-2.5 2.5,-2.5c2.5,0 2.5,2.5 2.5,2.5v1.5c-0.05165,3.40424 -1.49569,5.55997 -2.02416,8.84675c-0.13896,0.86427 0.15171,1.76785 -0.02094,2.62602c-0.32832,1.63195 -1.31383,3.11601 -1.46706,4.77358c-0.02672,0.28898 -0.03916,0.57864 -0.04235,0.86873c0.73544,-0.36829 1.45621,-0.76597 2.15954,-1.1897l1.89497,-1.42538c0,0 2,-1.5 3.5,0.5c1.5,2 -0.5,3.5 -0.5,3.5l-2.10503,1.57462c-1.62461,0.97159 -3.3138,1.84897 -5.06057,2.57981c-0.74453,6.27261 -2.27819,12.57922 -3.37245,18.78003c0,0 -0.43446,2.46196 -2.89642,2.0275c-2.46196,-0.43446 -2.0275,-2.89642 -2.0275,-2.89642c0.34855,-1.97508 0.74222,-3.96096 1.14044,-5.95294c-0.2806,-0.17918 -0.44625,-0.34483 -0.44625,-0.34483c-2.05881,-2.06744 -3.68169,-4.19929 -5.41164,-6.54295l-1.14178,-2.79634c0,0 -0.92847,-2.32119 1.39272,-3.24967c2.32119,-0.92847 3.24967,1.39272 3.24967,1.39272l0.85822,2.20366c0.89456,1.16837 1.7474,2.28358 2.66392,3.36351c0.48253,-2.6295 0.90292,-5.26141 1.16884,-7.88504c0.16807,-1.65817 -0.17515,-3.34256 0,-5c0.15392,-1.45655 0.49736,-2.90731 0.91155,-4.35534c-1.93404,-2.5774 -3.16189,-4.17822 -3.87517,-7.40803l-0.42026,-1.19972c0,0 -0.79057,-2.37171 1.58114,-3.16228c2.37171,-0.79057 3.16228,1.58114 3.16228,1.58114z" fill="#039a00"/><path d="M503.84916,239.85188c0,2.5 -2.5,2.5 -2.5,2.5h-1.5c-4.71772,-0.10498 -8.79039,2.12353 -13.04286,3.38303c6.46833,4.183 12.86431,8.17978 19.02766,10.81911c0,0 2.29786,0.9848 1.31306,3.28266c-0.9848,2.29786 -3.28266,1.31306 -3.28266,1.31306c-7.04849,-3.0231 -16.58913,-9.29653 -25.99779,-15.15121c-0.31221,-0.09512 -0.62744,-0.20331 -0.94589,-0.32546c0,0 -0.79272,-0.31709 -1.26634,-1.04392c-5.07536,-3.1228 -10.0516,-6.03831 -14.51191,-8.16377c3.64144,4.91599 7.28821,9.99415 11.47449,14.11873l1.31236,1.88102c0,0 1.38675,2.08013 -0.69338,3.46688c-2.08013,1.38675 -3.46688,-0.69338 -3.46688,-0.69338l-0.68764,-1.11898c-5.92882,-6.00012 -10.8458,-13.58612 -16.17827,-20.19839c0,0 -0.18093,-0.22435 -0.34375,-0.58214c-0.10042,-0.02019 -0.20017,-0.0394 -0.29925,-0.05762c-2.12786,-0.60796 -4.41257,-0.74086 -6.4314,-1.64735c-0.41982,-0.18851 -0.79758,-0.44798 -1.1563,-0.73968c-0.56614,-0.01723 -1.19753,-0.25845 -1.77545,-0.98085c-0.2714,-0.33925 -0.43668,-0.66671 -0.52453,-0.97623c-0.17418,-0.11291 -0.35471,-0.2152 -0.54372,-0.30324c-0.92121,-0.42911 -3.13134,-0.28685 -3.97958,-0.28227h-1c0,0 -2.5,0 -2.5,-2.5c0,-2.5 2.5,-2.5 2.5,-2.5h1c2.13022,0.00943 3.96427,-0.17133 6.02042,0.71773c0.48299,0.20884 0.90752,0.51826 1.31041,0.86495c4.63466,-3.50088 9.92772,-7.01371 13.42923,-11.37784l2.23994,-1.70484c0,0 2,-1.5 3.5,0.5c1.5,2 -0.5,3.5 -0.5,3.5l-1.76006,1.29516c-3.186,3.99444 -7.89313,7.30635 -12.24549,10.53292c1.19202,0.26101 2.42286,0.40752 3.59458,0.7423c8.70468,1.85026 17.80788,7.27914 26.87438,13.10631c6.38488,1.46972 13.11271,-4.07921 19.5366,-4.17669h1.5c0,0 2.5,0 2.5,2.5z" fill="#039a00"/><path d="M365.98745,260.77808c-19.51564,-4.39299 -40.60547,-10.89766 -44.58977,-30.43594c-5.29579,-27.13168 8.09321,-62.31145 39.94174,-55.94174c13.39725,2.6795 34.36883,2.0041 50.81509,6.91226c-0.99685,-3.44403 -2.21237,-6.8506 -3.20174,-10.24844c-0.77089,-2.64747 -0.55438,-5.28053 -1.09148,-7.96602c-0.08729,-23.29106 3.31851,-35.24219 27.99754,-40.1978h-0.00001c0,0 1.28235,-0.25647 2.17761,0.52904c0.64933,0.22352 1.08045,0.65464 1.08045,0.65464l2,2c6.60609,6.6338 7.95117,14.92001 11.18712,23.295c0.29486,19.43144 -0.38958,29.99546 -12.68408,41.82461c12.93438,-0.23619 25.51607,-0.23291 38.25333,4.86756c22.62193,11.30843 32.27433,28.68437 40.83253,51.44627c1.07611,3.35469 9.14605,24.89696 6.50354,27.00456c-2.66139,2.12265 -51.23241,-1.50878 -57.44923,-2.74061c-9.84756,-2.81694 -21.13909,-5.04628 -30.11036,-10.23611c-6.51966,-3.77159 -12.63152,-8.31737 -18.70809,-12.87407c-4.44174,3.0134 -9.62876,5.73048 -15.46843,8.66485c17.77184,3.37415 25.98691,13.65899 27.19212,32.32305c0.23741,3.67653 1.49449,10.83489 -0.95852,14.06936c3.34816,-3.17861 12.99118,-1.74319 15.59243,1.55898c1.90716,2.42105 1.55441,5.29572 1.5499,8.06432c-0.00936,5.74374 -2.1087,9.87735 -7.42145,12.75538c-2.35327,1.27482 -5.20641,1.24429 -7.79841,1.91106c-3.39571,0.87351 -7.22356,2.48978 -10.78014,2.39265v0.94091c0,1.38071 -1.11929,2.5 -2.5,2.5c-0.69036,0 -1.31536,-0.27982 -1.76777,-0.73223l-2,-2l0.08409,-0.08409c-0.19112,-0.16651 -0.3717,-0.34545 -0.53925,-0.53972c-0.81986,-0.95058 -0.49251,-2.46182 -0.73612,-3.69325c-0.28454,-1.43832 -0.97884,-2.77973 -1.22037,-4.22589c-0.0449,-0.26884 0.58376,-0.83812 0.32586,-0.74994c-0.86034,0.29417 -1.55286,1.91808 -2.32145,1.43228c-0.85532,-0.54062 -1.47865,-1.38433 -1.94746,-2.3283c0.54358,2.60117 1.11035,5.18521 1.12247,7.92115v2.5c0,0 0,1.78491 -1.50818,2.33836c-0.06628,5.56943 -0.51231,11.14437 -0.49182,16.66164v1.51762c0.15123,0.63586 -0.01542,1.18606 -0.25328,1.60575c-0.20128,0.46095 -0.5625,0.94512 -1.21077,1.19828c-7.62484,5.0971 -21.28586,5.31517 -30.84985,0.88894c-25.65977,3.07822 -49.67298,-18.71059 -14.1861,-18.71059c0.96518,0.51131 1.18043,-1.90015 1.37273,-2.97533c0.70932,-3.96585 2.66323,-24.34255 4.19392,-26.10964c0.14246,-0.16446 0.30741,-0.31761 0.49308,-0.46011c1.02904,-5.07946 -0.09102,-9.68656 -0.54756,-14.70857c-0.45758,-5.03348 0.15721,-10.11424 0.67741,-15.12957c-8.71559,2.15334 -8.65887,6.19483 -7.70163,16.63805c0.24186,2.63865 -0.19518,5.0859 1.19146,7.52036c1.46357,2.56951 4.07725,4.21056 4.31012,7.49624c0.32975,4.65269 -3.48133,6.71031 -6.66201,9.08764c-4.38978,0.15816 -9.75921,-3.76061 -13.09895,-3.36954c-1.63743,0.19173 -2.40314,2.50969 -4.00411,2.9032c-2.54982,0.62674 -8.68317,-2.30385 -9.55981,-5.00047c-1.35215,-4.15932 3.90889,-8.66819 5.58405,-11.97928c2.82155,-5.57703 3.56658,-11.92592 5.93011,-17.84145c1.825,-4.52621 4.62682,-11.41468 8.69421,-14.46966c3.94447,-2.96265 9.32641,-5.04155 13.6858,-7.36656zM354.94159,301.02549c-3.97373,-14.29482 -1.77516,-25.47318 12.51719,-28.74974c0.05699,-2.15062 -0.07225,-4.32372 -0.2262,-6.49905c-3.97077,2.05969 -8.66726,3.90068 -12.25648,6.4733c-1.20781,0.86572 -1.72988,2.41717 -2.62698,3.60186c-1.97954,2.61415 -3.46673,5.8699 -4.67881,8.92848c-2.41826,6.03842 -3.23072,12.42647 -6.06989,18.15855c-1.43186,2.89083 -7.32263,5.41846 -5.41595,8.02072c0.24212,0.33044 0.81332,0.1816 1.16465,0.39226c2.12192,1.27232 4.80814,-1.25802 7.27143,-1.48953c3.94775,-0.37102 7.7388,3.25466 11.90105,3.63046c0.90262,-0.81755 3.62119,-2.3656 3.33799,-3.91236c-0.57238,-3.12617 -4.01869,-5.31982 -4.918,-8.55493zM404.19412,288.34317c-0.11895,-0.01063 -0.29748,-0.03422 -0.50396,-0.0866c0.3727,7.77564 1.11764,15.13443 2.58749,19.59031c0.37831,0.53809 0.69162,1.12648 0.94317,1.71443c0.28272,0.66079 0.03392,5.1589 0.11613,6.04423c0.00381,0.04104 0.00772,0.08206 0.01172,0.12304c0.76956,-2.93303 3.68239,-5.35508 4.70203,-7.86019c0.43625,-1.07179 0.35747,-5.14631 0.31059,-5.77016c-0.14291,-1.90163 -0.82004,-5.46691 -1.71635,-7.0667c-1.42033,-2.5351 -4.3666,-4.46003 -6.45081,-6.68836zM425.44157,307.46781c-0.30694,-23.03751 3.17934,-40.08349 -22.09361,-45.07452c-0.01044,5.18008 -0.08276,13.09795 0.15858,21.10638c0.46319,-0.14779 0.84258,-0.14779 0.84258,-0.14779l3,1c2.16732,2.96135 5.90327,5.06133 7.70419,8.32036c0.50305,0.91035 0.42833,2.03732 0.71206,3.03797c1.0544,3.7186 1.91159,6.33258 1.57523,10.34787c-0.34568,4.12659 -2.13836,4.69704 -3.77703,7.95407c-0.39051,0.77617 -0.5501,1.6487 -0.7982,2.4814c-0.04372,0.14674 -0.07291,0.29939 -0.09836,0.45342c0.16546,-0.09903 0.34321,-0.13466 0.53567,-0.06996c2.46434,0.82844 5.50498,6.16325 5.35018,9.65293c3.89118,-1.33798 7.80389,-2.31889 11.8312,-3.35409c2.28096,-0.58631 4.82392,-0.44262 6.88652,-1.57935c3.66665,-2.02074 4.58657,-4.41221 4.57855,-8.24462c-0.00473,-2.25995 0.72801,-4.80946 -1.90149,-5.6682c-1.79751,-0.58703 -4.7853,-0.7651 -6.62574,-0.37691c-0.87821,0.18523 -1.60266,0.98166 -2.5,1c-1.81473,0.03709 -3.58688,-0.5593 -5.38032,-0.83895zM369.34914,254.85186c1.60538,0 2.17986,1.0309 2.38544,1.76871c6.04337,1.27732 11.66971,2.52769 16.11191,4.23129c2.61737,-1.01498 3.34304,-1.89669 5.13983,-4.16731l3.59505,-3.60046c0,0 1.68743,-1.68744 3.41366,-0.11635c0.24608,-0.07358 0.52895,-0.11587 0.85411,-0.11587c0.14412,0 0.27994,0.00831 0.40793,0.02397c5.18706,-2.56839 9.81469,-4.90644 13.80374,-7.47682c-0.32975,-0.62777 -0.48072,-1.52174 0.28833,-2.54715c1.5,-2 3.5,-0.5 3.5,-0.5l0.24089,0.18066c8.17608,-6.48895 12.75912,-15.12055 12.75912,-31.68066c0.21185,-10.84659 -5.36669,-17.5154 -13.65916,-21.73626c-0.25076,0.24278 -0.59131,0.45498 -1.05028,0.60797v-0.00001c-2.37171,0.79057 -3.16228,-1.58114 -3.16228,-1.58114l-0.32487,-1.00882c-16.75133,-6.2764 -40.82816,-5.33723 -53.2937,-7.83029c-27.95283,-5.59056 -38.91181,26.48485 -34.05826,50.05826c3.43716,17.59826 23.25329,22.55317 41.10685,26.34622c0.36192,-0.46922 0.95846,-0.85592 1.94169,-0.85592zM371.33699,292.10552c0.42598,4.68569 1.24427,9.02431 0.83096,13.63777c6.2261,-0.63111 15.24653,0.60858 18.6812,0.60858c3.29353,0.01778 6.44906,-0.61842 9.77704,-0.50849c-2.56752,-12.299 -2.27704,-34.03414 -2.27704,-44.49151c0,-0.13319 0,-0.27277 0,-0.41772c-0.1866,-0.21909 -0.34135,-0.48996 -0.42965,-0.82415c-0.17189,0.07605 -0.78633,0.31861 -1.47983,0.24305c-2.69873,3.27502 -4.30251,4.17379 -8.58785,5.49883c-4.61286,-1.37125 -10.08411,-2.52324 -15.88214,-3.76681c0.23273,4.09218 0.6951,8.20551 0.38837,12.2513c0.01214,0.25828 -0.00996,0.49048 -0.05812,0.69912c-0.49212,5.62838 -1.47909,11.3928 -0.96296,17.07005zM402.02796,310.78036c-0.03131,-0.07908 -0.06235,-0.15917 -0.09313,-0.24023c-3.42303,-0.49587 -7.64181,0.79649 -11.08568,0.81175c-3.09769,0 -6.19545,0.00421 -9.29319,0.00592c0.67344,0.03933 1.14912,0.27066 1.4851,0.57783c0.55715,0.47502 0.73478,1.13703 0.78382,1.62355c0.02426,0.17896 0.02426,0.2927 0.02426,0.2927l-0.00786,0.00157c0.00085,0.07735 -0.00116,0.14466 -0.00407,0.19912c0.59839,3.18155 0.62518,6.35586 1.84373,9.39782c1.67759,4.18789 4.82692,7.51704 5.98136,11.84415c0.11673,0.29017 0.18683,0.6387 0.18683,1.05734c0,0.73577 -0.21655,1.255 -0.52218,1.62142c-0.29936,0.37156 -0.76604,0.68573 -1.48753,0.83003c-0.42184,0.08437 -0.78562,0.08163 -1.09881,0.01926c-2.89905,0.56355 -5.97086,1.02239 -9.03773,1.36701c-0.23049,0.72652 -0.82424,1.66228 -2.35375,1.66228c-1.24017,0 -1.86513,-0.61521 -2.18007,-1.23526c-0.86722,0.06583 -1.72677,0.12184 -2.57443,0.16781c-1.18399,0.06421 -2.40567,-0.37717 -3.55604,-0.0898c-0.30774,0.07688 0.19891,0.6024 0.29837,0.9036c0.02078,3.84962 2.58788,6.79814 6.35233,8.82444c0.0917,-0.01193 0.17478,-0.0242 0.24884,-0.03677c0,0 1.95636,-0.32606 2.67446,1.34519c7.72749,2.86072 18.31447,2.67702 23.73654,-0.67672v-0.70248c0.01881,-5.97587 0.5,-11.97423 0.5,-18c0,0 0,-1.77845 1.5,-2.33534v-1.16466c0.02354,-4.3601 -1.60104,-8.41401 -1.98783,-12.75366c-0.09607,-1.07785 -0.03752,-2.16451 -0.01217,-3.24634c0.00811,-0.34629 0.14029,-0.82291 0.20945,-1.2504c-0.36538,-0.40798 -0.53064,-0.82113 -0.53064,-0.82113zM350.07435,342.66121c-5.59693,5.92684 8.31074,7.6719 17.96323,7.93151c-2.30681,-2.56527 -3.69291,-5.73138 -3.67627,-9.48718c0.08036,-0.25353 0.13497,-0.52613 0.17817,-0.80717c-0.97945,0.81646 -2.19045,1.36056 -3.69034,1.55351c-2.61841,0 -8.82597,-1.25437 -10.77479,0.80932zM367.15737,336.33734c1.53306,-0.41487 3.2976,-0.27811 4.8851,-0.52231c0.96976,-0.14918 1.94562,-0.27239 2.92484,-0.38087c0.55185,-7.41098 2.88527,-14.6248 3.90695,-21.93582c0,0 0.01608,-0.1126 0.06541,-0.28633c0.11736,-0.4747 0.38682,-1.10493 1.00555,-1.49638c0.26399,-0.18012 0.59085,-0.3135 0.99479,-0.35751c-2.53032,0.0011 -5.06062,0.00025 -7.59088,-0.00623c-1.03153,-0.00264 -2.61952,-1.34462 -3.06664,-0.41503c-2.46585,5.12667 -0.33425,17.95381 -3.12512,25.40048zM381.40184,326.12908c-0.62369,2.92705 -1.16936,5.86535 -1.41497,8.8235c2.04506,-0.18909 4.08429,-0.39719 6.09282,-0.7255c-1.22403,-2.7615 -3.37083,-5.35546 -4.67785,-8.098zM413.74549,169.63953c1.39741,4.50091 2.99909,9.07114 4.10455,13.6931c4.66568,1.95814 8.76752,4.54424 11.95479,8.0174c0.72896,-0.00279 1.45644,-0.00859 2.18254,-0.01658c15.64366,-12.43937 14.96748,-21.26214 15.40688,-41.00879c-3.04766,-7.31722 -3.93463,-14.85457 -9.81288,-20.705l-1.63221,-1.63221c-19.63169,4.21415 -23.02725,15.39326 -23.11219,34.61809c0.46803,2.34016 0.20344,4.76299 0.90852,7.03398zM475.82498,200.63249c-13.97475,-5.58293 -27.80966,-4.58849 -42.1171,-4.32963c-0.08125,0.0638 -0.16284,0.12768 -0.24479,0.19162c2.09245,3.90046 3.30794,8.62214 3.38604,14.35741c0,17.74079 -4.92274,27.38907 -13.73092,34.69932c5.50781,4.11426 11.05559,8.14914 16.93031,11.60718c8.49835,5.00238 19.52844,7.09286 28.88964,9.76388c16.87827,3.41504 35.54862,2.14807 52.55077,4.2594c0.46549,0.0578 -0.89439,-0.45691 -1.09883,-0.87908c-0.878,-1.81303 -0.98207,-3.90736 -1.47058,-5.86168c-1.36952,-5.47883 -3.14529,-10.06651 -4.92706,-15.25469c-8.02269,-21.44785 -16.84803,-37.89132 -38.16747,-48.55373z" fill="#000000"/><path d="M367.49248,272.23883c-14.29235,3.27656 -16.51068,14.53989 -12.53695,28.83472c0.89931,3.23512 4.35075,5.42697 4.92313,8.55314c0.2832,1.54677 -2.4444,3.09757 -3.34702,3.91512c-4.16225,-0.3758 -7.97972,-4.00323 -11.92747,-3.63221c-2.46328,0.23151 -5.16059,2.75638 -7.28252,1.48406c-0.35132,-0.21066 -0.92439,-0.0631 -1.1665,-0.39354c-1.90667,-2.60226 3.98331,-5.13047 5.41518,-8.0213c2.83917,-5.73208 3.6501,-12.19875 6.06835,-18.23716c1.21208,-3.05858 2.73349,-6.32557 4.71303,-8.93971c0.89709,-1.18469 1.42602,-2.73532 2.63383,-3.60103c3.58923,-2.57262 8.30365,-4.40636 12.27441,-6.46605c0.15394,2.17532 0.28951,4.35332 0.23252,6.50395z" fill="#ffde00"/><path d="M403.32222,262.35044c25.27295,4.99103 21.80189,22.03099 22.10883,45.0685c1.79344,0.27965 3.55069,0.88188 5.36542,0.84479c0.89734,-0.01834 1.61526,-0.81017 2.49347,-0.9954c1.84044,-0.38819 4.82047,-0.20203 6.61798,0.385c2.6295,0.85875 1.97215,3.47366 1.97688,5.7336c0.00802,3.83242 -0.92382,6.23283 -4.59047,8.25358c-2.0626,1.13674 -4.61627,0.99731 -6.89722,1.58362c-4.02731,1.03521 -7.95936,2.01744 -11.85054,3.35542c0.1548,-3.48969 -2.89892,-8.82801 -5.36326,-9.65645c-0.19246,-0.0647 -0.37109,-0.02945 -0.53654,0.06958c0.02544,-0.15404 0.05446,-0.30677 0.09818,-0.4535c0.2481,-0.8327 0.44917,-1.79622 0.83968,-2.57239c1.63867,-3.25703 3.38954,-3.73665 3.73522,-7.86323c0.33636,-4.01529 -0.54926,-6.66581 -1.60366,-10.38441c-0.28373,-1.00065 -0.20847,-2.14804 -0.71153,-3.0584c-1.80092,-3.25902 -5.52991,-5.3751 -7.69723,-8.33645l-2.91557,-0.94646c0,0 -0.4655,-0.05082 -0.92869,0.09697c-0.24134,-8.00843 -0.15141,-15.94429 -0.14097,-21.12437z" fill="#ffde00"/><path d="M360.87718,341.8105c1.49989,-0.19295 2.72112,-0.72783 3.70057,-1.54429c-0.0432,0.28104 -0.0957,0.55633 -0.17606,0.80986c-0.01664,3.7558 1.37316,6.97496 3.67997,9.54023c-9.65249,-0.25961 -23.65168,-2.04409 -18.05475,-7.97093c1.94882,-2.06369 8.23186,-0.83487 10.85027,-0.83487z" fill="#9a3b00"/><path d="M367.13377,336.3814c2.79087,-7.44667 0.66849,-20.36577 3.13434,-25.49244c0.44712,-0.92959 2.04662,0.41036 3.07815,0.413c2.53026,0.00648 5.08816,0.01379 7.61848,0.01269c-0.40394,0.04401 -0.77794,0.26555 -1.04193,0.44567c-0.61873,0.39145 -0.84426,0.93185 -0.96162,1.40655c-0.04933,0.17373 -0.06515,0.28646 -0.06515,0.28646c-1.02168,7.31102 -3.37305,14.6197 -3.9249,22.03068c-0.97922,0.10848 -1.96693,0.23119 -2.93669,0.38037c-1.5875,0.2442 -3.36763,0.10216 -4.90069,0.51703z" fill="#9a3b00"/><path d="M402.05724,310.73982c0,0 0.16667,0.4142 0.53205,0.82218c-0.06916,0.42749 -0.20039,0.90487 -0.2085,1.25116c-0.02535,1.08183 -0.08047,2.17157 0.0156,3.24942c0.38679,4.33965 2.0255,8.42024 2.00196,12.78034l0.00047,1.16784c-1.5,0.55689 -1.49967,2.34197 -1.49967,2.34197c0,6.02577 -0.49859,12.06121 -0.5174,18.03708l-0.00071,0.70308c-5.42207,3.35374 -16.05985,3.5452 -23.78734,0.68448c-0.7181,-1.67125 -2.68079,-1.34831 -2.68079,-1.34831c-0.07406,0.01257 -0.15754,0.02461 -0.24924,0.03654c-3.76445,-2.0263 -6.34972,-4.99365 -6.3705,-8.84327c-0.09946,-0.3012 -0.51738,-0.87279 -0.20964,-0.94967c1.15037,-0.28737 2.36964,0.14965 3.55363,0.08544c0.84766,-0.04597 1.70482,-0.10549 2.57204,-0.17132c0.31494,0.62005 0.93424,1.22888 2.17441,1.22888c1.52951,0 2.12131,-0.93752 2.3518,-1.66404c3.06687,-0.34462 6.09132,-0.81322 8.99037,-1.37677c0.31319,0.06237 0.67035,0.0677 1.09219,-0.01667c0.72149,-0.1443 1.17852,-0.45246 1.47788,-0.82402c0.30563,-0.36642 0.51463,-0.87822 0.51463,-1.61399c0,-0.41864 -0.07355,-0.76242 -0.19028,-1.05259c-1.15444,-4.32711 -4.25612,-7.5796 -5.93371,-11.76749c-1.21855,-3.04196 -1.25859,-6.31537 -1.85698,-9.49692c0.00291,-0.05446 0.00501,-0.12178 0.00416,-0.19913l0.00788,-0.00157c0,0 0.01511,-0.01489 -0.00915,-0.19385c-0.04904,-0.48652 -0.22539,-1.14874 -0.78254,-1.62376c-0.33598,-0.30717 -0.83239,-0.63628 -1.50583,-0.67561c3.09774,-0.00171 6.21736,-0.00637 9.31505,-0.00637c3.44387,-0.01526 7.68165,-1.29939 11.10468,-0.80352c0.03078,0.08106 0.06215,0.16139 0.09346,0.24047z" fill="#9a3b00"/><path d="M371.29439,292.13176c-0.53162,-5.84763 0.53176,-11.84074 1.00621,-17.62942c0.33668,-4.10785 -0.12212,-8.30178 -0.35855,-12.45896c5.79803,1.24357 11.30248,2.38756 15.91534,3.75881c4.28534,-1.32504 5.90452,-2.21951 8.60325,-5.49453c0.81888,0.08922 1.52972,-0.26402 1.52972,-0.26402c0.12758,-0.06379 0.25532,-0.1272 0.38238,-0.19069c0,0.52859 0.0012,1.02564 0.0012,1.4555c0,10.45737 -0.2881,32.27789 2.27942,44.57689c-3.32798,-0.10993 -6.50029,0.53321 -9.79382,0.51543c-3.43467,0 -12.49146,-1.24586 -18.71756,-0.61475c0.41331,-4.61346 -0.42158,-8.96858 -0.84756,-13.65427z" fill="#ffde00"/></g><path d="M526.6924,172.32934c2.72464,-15.25236 2.8845,-32.70589 1.77818,-48.24476c-0.03003,-0.42172 -0.60617,-0.87924 -0.35348,-1.2182c1.97741,-2.65248 17.40333,-0.53794 20.36468,-0.53794c10.44943,0 22.23248,-0.88164 32.44637,1.6792c7.51481,1.88412 13.49225,4.42105 21.38897,5.06441c4.53518,0.36949 8.97627,0.77882 13.46703,1.25115c1.57006,0.16514 3.84771,-1.83852 4.70963,-0.51585c0.90595,1.39024 0.54644,6.32344 0.54158,8.0323c0,9.25643 -0.7908,18.5317 -1.43691,27.75512l-1.36788,-0.43376c-1.11406,-0.12353 -8.44356,-1.0207 -9.45777,-0.75949c-0.02199,0.00566 -0.04388,0.01156 -0.0657,0.01762l0.00001,-0.01845l-3.74865,0.00213c-0.04708,0 -0.0938,0.00138 -0.14023,0.00395c0.27627,-0.3033 0.49831,-0.72684 0.60276,-1.31842c0.43465,-2.46193 -2.02454,-2.89302 -2.02454,-2.89302l-1.99919,-0.34823c-1.71707,-0.39076 -3.39057,-1.29708 -5.1468,-1.168c-0.09452,0.00695 -0.18859,0.01535 -0.28268,0.02479l0.00003,-0.04064l-4.99525,0.00355c-1.38071,0 -2.44614,1.03504 -2.44614,2.41575c0,1.15061 0.78147,2.12256 1.8396,2.41361l2.44936,0.73651l0.00103,-0.00345c0.5993,-0.05993 1.44899,-0.65294 1.7914,-0.16132c0.31188,0.44779 -0.85495,0.75889 -1.02316,1.27802c-0.38476,1.18745 -0.50586,2.41209 -0.54165,3.63916c-0.85682,-0.1311 -1.79269,-0.24248 -2.67053,-0.48662c0,0 -2.34285,-0.73008 -3.00064,1.68183c-0.65779,2.41191 1.75983,3.07588 1.75983,3.07588c1.82398,0.48927 3.59422,0.76592 5.37031,0.91435c0.2871,0.11308 0.63135,0.18191 1.04266,0.18191c0.25286,0 0.48036,-0.02515 0.68465,-0.07112c1.40723,0.0632 2.836,0.07417 4.31695,0.07461l0.50012,0.00029c0,0 2.40815,0.03948 2.40815,-2.46052c0,-2.5 -2.49762,-2.49542 -2.49762,-2.49542l-0.4998,0.00034c-0.81074,0.00025 -1.60153,0.00394 -2.38174,-0.00475c0.08734,-1.00207 0.21413,-1.99919 0.33571,-2.99673c0.0797,-0.6539 0.32029,-1.34662 0.51284,-2.0316c0.44939,0.12932 0.97828,0.18232 1.42547,0.28713l2.25695,0.40357c0,0 0.27972,0.04978 0.66688,0.02107c-0.45222,0.45238 -0.73109,1.07851 -0.73109,1.7687c0,1.38071 1.1217,2.50421 2.50241,2.50421l3.68784,0.00194c0.00436,0.00144 0.00873,0.00288 0.01309,0.00432c0.08917,0.03525 0.17011,0.08713 0.23937,0.16132c0.26621,0.2851 -0.39136,0.69845 -0.4388,1.08562c-0.22297,1.81973 0.00227,3.67324 0.00227,5.50657c0,0 0.00089,2.5039 2.50089,2.5039c2.5,0 2.40218,-2.47939 2.40218,-2.47939c0,-1.08402 0.25778,-3.84454 0.20248,-6.14061c1.34633,0.00829 2.79425,-0.04997 4.11731,0.09736l-0.34199,0.00125c0,0 0.91029,0.4558 1.85951,0.20473c-0.28229,4.59608 -0.48289,9.19552 -0.48798,13.76522c-0.00702,6.29989 1.54973,12.4462 0.27205,18.71928c-0.94875,10.39823 -0.60003,20.64001 -1.03652,31.02402c-0.16765,3.98852 -0.49428,7.84341 -0.98748,11.79809c-0.17049,1.36707 1.78936,4.12926 0.41179,4.1131c-5.02271,-0.0589 -10.81541,-2.03387 -16.18993,-2.04835c-24.2002,0 -45.24074,-10.89937 -68.81683,-13.20955c-1.80031,-0.5401 -3.4439,-0.8231 -5.16713,-0.95338c-3.87089,-20.12516 -0.54804,-40.88754 -0.59421,-61.17831z" fill="#ffffff" stroke-width="0.5"/><path d="M561.02018,146.54296c0.27693,1.59387 0.84236,3.12792 1.97983,4.58204c0,0 1.5,2 -0.5,3.5c-2,1.5 -3.5,-0.5 -3.5,-0.5c-3.42987,-4.70978 -3.41945,-9.88169 -3.25,-15.5c0.02848,-0.94426 -0.20129,-1.9719 -0.06411,-2.89344c-0.82369,0.51704 -1.81604,0.36437 -1.81604,0.36437c-1.02016,-0.1594 -2.03215,-0.3851 -3.06048,-0.47821c-1.04345,-0.09448 -2.09607,-0.14391 -3.14204,-0.08343c-1.42885,0.08262 -1.39391,0.82386 -0.79562,2.30014c0.82242,2.02936 3.73154,3.46241 4.51004,5.48456c0.6337,1.64605 2.09953,3.87984 0.93842,5.20758c-2.95125,3.37479 -6.81324,0.8325 -9.4382,-0.4155l-2,-1c0,0 -2.23607,-1.11803 -1.11804,-3.35411c1.11803,-2.23607 3.35411,-1.11804 3.35411,-1.11804l2,1c0.00045,0.00025 0.00378,0.00183 0.00982,0.00471c-0.53445,-0.69951 -0.9942,-1.33221 -1.12785,-1.51863c-2.01168,-2.80594 -3.74016,-4.45947 -1.6755,-8.73174c2.12831,-4.40398 8.80009,-2.771 12.30565,-2.23919c0,0 2.24341,0.34515 2.1261,2.51533c1.70462,-2.11695 4.39288,-3.15934 7.12307,-2.13465c5.5856,2.09638 5.07555,10.19523 1.19588,13.53159c-0.86838,0.74678 -2.09781,0.91991 -3.14671,1.37985zM560.7718,141.55318c1.58784,-0.61916 2.1217,-1.29126 2.2283,-3.40625c0.03962,-0.78598 -0.37548,-2.46679 -1.61164,-1.93512c-1.44088,0.61971 -0.69758,1.00476 -0.63845,2.4132c0.04142,0.98641 0.03125,1.96371 0.0218,2.92818z" fill="#000000" stroke-width="0.5"/><path d="M580.17511,151.3698c0.67651,-0.35155 1.75959,-0.59564 2.84266,0.48744c1.76777,1.76776 0,3.53553 0,3.53553l-2.01777,0.98224c-1.91075,-0.00171 -3.82329,-0.08898 -5.72634,-0.26027c0,0 -0.66625,-0.06057 -1.27811,-0.46369c-1.6222,-0.08128 -2.14011,-1.80768 -2.14011,-1.80768c-1.49734,-5.0572 -1.54143,-10.249 -1.84317,-15.471c-0.06867,-1.18845 -0.88505,-2.47328 -0.37956,-3.55105c0.69446,-1.4807 2.10845,-2.66931 3.60564,-3.32747c1.01414,-0.44581 5.12763,0.432 6.33945,0.65274l2.87982,0.23705c0,0 2.49136,0.20762 2.28375,2.69898c-0.20762,2.49137 -2.69898,2.28375 -2.69898,2.28375l-3.12018,-0.26295c-0.92349,-0.1676 -1.85077,-0.3155 -2.77047,-0.50279c-0.58555,-0.11924 -1.86696,-0.76378 -1.78444,-0.17194c0.28067,2.01297 0.4529,4.1195 0.6518,6.2434c1.1871,0.15828 2.37421,0.31656 3.56131,0.47484l2.27593,0.55272c0,0 2.42535,0.60634 1.81901,3.03169c-0.60634,2.42535 -3.0317,1.81902 -3.0317,1.81902l-1.72407,-0.44728c-0.76586,-0.10211 -1.53172,-0.20423 -2.29758,-0.30634c0.17971,1.14677 0.3997,2.28044 0.68194,3.38867c1.28751,0.10518 2.57939,0.16685 3.87116,0.1844z" fill="#000000" stroke-width="0.5"/><path d="M603.87965,159.0147c-0.44893,0.36764 -1.92317,1.35231 -3.39742,-0.12194c-0.9393,-0.9393 -0.88041,-1.8786 -0.6189,-2.55271c-0.08456,-0.28528 -0.10307,-0.48872 -0.10307,-0.48872c-0.47752,-5.2789 -1.56815,-11.06922 -0.51737,-16.3879c-0.87104,1.18544 -2.48319,0.86301 -2.48319,0.86301l-1.63752,-0.36062c-1.71266,-0.66281 -3.27026,-2.16458 -5.10442,-2.07306c-0.34475,0.0172 0.65597,0.39559 0.73223,0.73224c0.36824,1.62548 0,3.33334 0,5c0,0.42804 -0.00038,0.85471 -0.00037,1.28036c0.77084,0.17789 1.54168,0.35577 2.31252,0.53366l1.74793,0.20529c0,0 2.48069,0.31008 2.17061,2.79078c-0.31008,2.48069 -2.79078,2.17061 -2.79078,2.17061l-2.25207,-0.29471c-0.37231,-0.08592 -0.74463,-0.17184 -1.11694,-0.25776c0.00631,0.16726 0.01319,0.33459 0.02066,0.50199c0.20188,0.03671 0.40377,0.07341 0.60564,0.11012l2.81813,1.17515c0,0 2.28453,1.01534 1.26918,3.29987c-1.01535,2.28453 -3.29988,1.26918 -3.29988,1.26918l-1.68187,-0.82485c-0.31876,-0.05795 -0.63751,-0.11591 -0.95626,-0.17387c-0.24952,0.10398 -0.54323,0.17675 -0.88891,0.20556c-1.50236,0.12519 -2.17426,-0.73107 -2.47095,-1.43062c-0.37028,-0.43911 -0.61497,-1.08046 -0.44634,-2.00796c0.02513,-0.13822 0.05661,-0.26726 0.09366,-0.38772c-0.33772,-4.30925 -0.59139,-8.93754 -0.13399,-13.16506c0.15526,-1.435 -0.42762,-3.40865 0.73223,-4.26776c3.27558,-2.42627 7.4244,-0.15852 10.39558,0.92694l0.86248,0.13938c0,0 1.65111,0.33022 1.97224,1.80368c0.19332,-1.60587 0.11003,-3.46783 1.40874,-4.18768c4.76371,-2.64043 11.31962,4.21776 12.5179,8.09933c2.47571,8.01957 -2.67288,14.92927 -9.75952,17.87582zM604.51552,153.1541c3.49526,-2.24596 5.60856,-6.11071 4.34531,-10.54298c-0.52203,-1.83163 -2.34564,-3.0953 -3.70286,-4.23724c-0.44105,-0.37109 -0.86556,-1.56479 -1.27924,-1.16343c-0.46117,0.44744 0.56854,1.1943 0.58538,1.83663c0.02073,0.79058 -0.40429,1.53669 -0.47627,2.32426c-0.36032,3.9423 0.1146,7.87198 0.52769,11.78276z" fill="#000000" stroke-width="0.5"/><path d="M558.5,167.125c0,2.5 -2.5,2.5 -2.5,2.5h-1c-1.06954,0 -6.15922,0.02645 -6.54057,-0.12829c-5.81668,-2.36015 -5.43225,-7.47521 -5.94703,-12.62295c0,0 -0.24876,-2.48759 2.23884,-2.73636c2.4876,-0.24876 2.73636,2.23883 2.73636,2.23883c0.22983,2.29826 -0.39766,7.586 2.55297,8.37705c1.59729,0.42822 3.30574,-0.12829 4.95943,-0.12829h1c0,0 2.5,0 2.5,2.5z" fill="#000000" stroke-width="0.5"/><path d="M563.66099,155.15902c2.46599,0.411 2.05499,2.87698 2.05499,2.87698l-0.26454,1.57929c-0.29365,1.30723 -0.29365,2.71219 0,4.01942c0,0 0.29782,1.48913 -0.73138,2.37828c-0.18642,1.19645 -1.22133,2.11201 -2.47007,2.11201c-1.38071,0 -2.5,-1.11929 -2.5,-2.5c0,-0.66583 0.26029,-1.27087 0.68468,-1.71891c-0.24065,-1.74394 -0.2027,-3.54567 0.11387,-5.27138l0.23546,-1.42071c0,0 0.41099,-2.46598 2.87698,-2.05499z" fill="#000000" stroke-width="0.5"/><path d="M582.92228,172.375c-2.5,0 -2.5,-2.5 -2.5,-2.5v-1c0,-0.71035 -0.32361,-3.19082 -0.1734,-5.05535c-0.35563,0.45387 -0.76334,0.86868 -1.21321,1.22202c-0.00206,0.00161 -0.0041,0.00322 -0.00616,0.00483l0.00101,0.00091l-2.2425,2.49167c-0.45784,0.51296 -1.12407,0.83592 -1.86573,0.83592c-0.51729,0 -0.9979,-0.15711 -1.39669,-0.42622c-0.22765,0.61321 -0.98025,2.05879 -2.91546,1.6122c-2.43598,-0.56215 -1.87383,-2.99813 -1.87383,-2.99813c0.40459,-1.73664 1.27216,-7.40141 3.76509,-7.65216c1.30723,-0.13149 2.23824,1.04435 3.18644,2.16051c1.43518,-1.96164 5.56531,-4.68932 7.12188,-4.03339c3.58224,1.50952 2.61257,8.89782 2.61257,11.8372v1c0,0 0,2.5 -2.5,2.5z" fill="#000000" stroke-width="0.5"/><path d="M577.01777,374.76777c-1.76777,1.76776 -3.53553,0 -3.53553,0l-2.54193,-2.81106c-0.7814,-14.95697 -0.74001,-29.88768 -1.18908,-44.8787c-0.19871,-6.6334 -1.7319,-13.18387 -1.75122,-19.82801c0,-18.73719 -2.66905,-41.0757 1.55271,-59.46613c-12.542,-3.22847 -24.8961,-7.11703 -38.03851,-8.45652c-2.50303,-0.75091 -4.41124,-0.95575 -7.0142,-0.95235h-1.25c0,0 -2.5,0 -2.5,-2.5c0,-1.42103 0.80773,-2.03433 1.50495,-2.29903c-3.6978,-20.32068 -0.53887,-41.19354 -0.49541,-61.66904c1.22694,-7.03295 -0.20102,-48.58298 2.09418,-51.5639c4.31287,-5.60141 18.58431,-2.96804 24.64629,-2.96804c10.87018,0 22.94375,-0.80604 33.57804,1.81774c7.31421,1.80463 12.98893,4.31635 20.6277,4.94074c3.48118,0.28455 18.16742,-0.81076 20.83279,1.771c2.4329,2.35657 2.45348,8.74312 2.46147,11.97052c0,15.47587 -2.27075,31.00415 -2.25069,46.30885c0.00855,6.52652 1.50608,12.78413 0.22481,19.29997c-0.52748,5.82773 -1.29318,48.72867 -3.40624,50.08842c-3.54575,2.28168 -15.25479,-0.95964 -19.31788,-0.94725c-9.3125,0 -18.15574,-1.56283 -26.84993,-3.63581c-4.18321,17.91699 -1.40007,39.99142 -1.40007,58.26081c-0.02198,6.58432 1.53509,13.0922 1.74878,19.67199c0.35407,10.9022 -0.48995,21.99907 0.2427,32.87181c0.23212,3.44482 0.91083,6.77007 0.56822,10.24949l1.45807,1.18894c0,0 1.76777,1.76776 0,3.53553zM527.32124,233.47158c1.72322,0.13028 3.36425,0.41098 5.16456,0.95108c23.57609,2.31018 44.56401,13.20235 68.7642,13.20235c5.37452,0.01448 11.15941,1.99385 16.18212,2.05275c1.37757,0.01615 -0.58337,-2.74524 -0.41288,-4.11232c0.4932,-3.95468 0.81527,-7.80581 0.98292,-11.79433c0.43648,-10.38401 0.07497,-20.6067 1.02373,-31.00493c1.27768,-6.27308 -0.28221,-12.40013 -0.27519,-18.70003c0.00509,-4.5697 0.20823,-9.15506 0.49052,-13.75114c-0.94922,0.25107 -1.85924,-0.20394 -1.85924,-0.20394l0.34195,-0.00136c-1.32307,-0.14732 -2.67714,-0.12359 -4.02347,-0.13188c0.0553,2.29608 -0.20045,5.06315 -0.20045,6.14717c0,0 0,2.5 -2.5,2.5c-2.5,0 -2.5,-2.5 -2.5,-2.5c0,-1.83334 -0.22297,-3.68027 0,-5.5c0.04744,-0.38718 0.70543,-0.79956 0.43922,-1.08466c-0.06926,-0.07418 -0.15007,-0.12578 -0.23924,-0.16103c-0.00436,-0.00143 -0.00872,-0.00287 -0.01308,-0.00431h-3.6869c-1.38071,0 -2.5,-1.11929 -2.5,-2.5c0,-0.69019 0.27969,-1.31507 0.73191,-1.76745c-0.38716,0.02871 -0.66656,-0.02062 -0.66656,-0.02062l-2.25554,-0.40165c-0.44719,-0.1048 -0.89804,-0.22031 -1.34742,-0.34963c-0.19255,0.68498 -0.43193,1.37923 -0.51163,2.03312c-0.12158,0.99754 -0.24625,1.99766 -0.33359,2.99973c0.78021,0.00869 1.57209,0.00675 2.38284,0.00651h0.5c0,0 2.5,0 2.5,2.5c0,2.5 -2.5,2.5 -2.5,2.5h-0.5c-1.48095,-0.00044 -2.90834,-0.00835 -4.31556,-0.07155c-0.2043,0.04597 -0.43157,0.07155 -0.68444,0.07155c-0.41131,0 -0.75495,-0.06767 -1.04205,-0.18075c-1.77609,-0.14843 -3.54176,-0.41807 -5.36574,-0.90734c0,0 -2.41191,-0.65779 -1.75412,-3.0697c0.65779,-2.41191 3.0697,-1.75412 3.0697,-1.75412c0.87784,0.24413 1.74011,0.42307 2.59693,0.55417c0.0358,-1.22707 0.15976,-2.44857 0.54452,-3.63602c0.16821,-0.51913 1.33526,-0.83003 1.02337,-1.27782c-0.34241,-0.49162 -1.19065,0.10277 -1.78996,0.1627l-0.00104,0.00344l-2.4462,-0.73386c-1.05813,-0.29104 -1.83543,-1.2601 -1.83543,-2.41071c0,-1.38071 1.11929,-2.5 2.5,-2.5h5v0.04065c0.09408,-0.00943 0.18837,-0.01765 0.28289,-0.0246c1.75623,-0.12908 3.43415,0.78151 5.15122,1.17227l2.00054,0.34975c0,0 2.46192,0.43465 2.02727,2.89658c-0.10445,0.59159 -0.32594,1.01592 -0.60221,1.31922c0.04643,-0.00257 0.0932,-0.00387 0.14028,-0.00387h3.75v0.01846c0.02182,-0.00607 0.04373,-0.01193 0.06572,-0.0176c1.01421,-0.26121 8.34629,0.6409 9.46036,0.76442l1.27647,0.47431c0.6461,-9.22342 1.44745,-18.48317 1.44745,-27.7396c0.00486,-1.70885 0.36742,-6.63924 -0.53853,-8.02948c-0.86192,-1.32267 -3.13776,0.68246 -4.70781,0.51732c-4.49076,-0.47233 -8.92421,-0.87682 -13.45939,-1.24631c-7.89672,-0.64336 -13.85748,-3.17514 -21.3723,-5.05926c-10.21389,-2.56083 -21.97253,-1.68226 -32.42196,-1.68226c-2.96135,0 -18.3763,-2.12051 -20.35371,0.53196c-0.25269,0.33896 0.32368,0.79632 0.35371,1.21804c1.10632,15.53886 0.9651,32.9657 -1.75953,48.21807c0.04617,20.29076 -3.29012,41.00336 0.58077,61.12851z" fill="#000000" stroke-width="0.5"/><path d="M533.29783,194.43674c-1.56174,-1.95217 0.39043,-3.51391 0.39043,-3.51391l1.69371,-1.2839c1.58128,-0.78123 3.07807,-1.74875 4.46767,-2.83492c2.23069,-1.30576 9.78965,-7.08933 12.22891,-6.18438c1.57778,0.58534 1.22842,3.14128 1.66014,4.76782c3.45161,13.00408 1.20409,29.1315 2.25394,42.54581c0,0 0.19174,2.49264 -2.30089,2.68438c-2.49263,0.19174 -2.68437,-2.30089 -2.68437,-2.30089c-0.71951,-9.53595 -1.25737,-18.81961 -1.25737,-28.44174c0,-3.91074 -0.14689,-7.52492 -0.72248,-11.38003c-0.03979,-0.26649 -0.04139,-0.64633 -0.0138,-1.05957c-1.80428,1.57741 -5.38834,2.94398 -6.36337,3.51059c-1.56696,1.21306 -3.26346,2.27178 -5.03233,3.16508l-0.80629,0.7161c0,0 -1.95217,1.56174 -3.51391,-0.39043z" fill="#000000" stroke-width="0.5"/><path d="M571.46706,226.875c0,-1.38071 1.11929,-2.5 2.5,-2.5c1.38071,0 2.5,1.11929 2.5,2.5c0,1.38071 -1.11929,2.5 -2.5,2.5c-1.38071,0 -2.5,-1.11929 -2.5,-2.5z" fill="#000000" stroke-width="0.5"/><path d="M569.41201,196.33013c-2.08013,-1.38675 -0.69338,-3.46688 -0.69338,-3.46688l1.12795,-1.67499c2.19805,-2.7159 6.0856,-7.67878 10.56811,-4.84581c1.82531,1.15361 0.71501,7.38803 1.29335,9.24022c0.27255,0.87288 1.16083,1.46226 1.44663,2.33089c0.99533,3.02512 0.9419,6.56463 1.1398,9.69014c0.46403,7.32865 2.20683,14.02738 1.49188,21.39506c0,0 -0.24876,2.48759 -2.73635,2.23883c-2.48759,-0.24876 -2.23883,-2.73635 -2.23883,-2.73635c0.85707,-8.296 -0.65617,-17.60078 -1.97652,-25.82916c-0.53144,-3.3119 -1.7038,-5.40281 -2.02737,-8.71588c-0.06588,-0.67456 -0.30943,-1.77712 -0.33389,-2.62366c-0.31,0.23866 -0.66875,0.42632 -0.93469,0.71262c-0.6549,0.70502 -1.19185,1.51105 -1.78777,2.26658l-0.87205,1.32501c0,0 -1.38675,2.08013 -3.46688,0.69338z" fill="#000000" stroke-width="0.5"/><path d="M593.89551,229.75c0,-2.04048 1.66542,-2.41554 2.27766,-2.48447c3.85863,-2.35816 5.73764,-4.13569 5.72234,-9.01553c-0.00744,-2.37206 0.36151,-4.05967 -0.65468,-6.23218c-1.09167,-2.33388 -4.82112,-0.74183 -6.49983,-2.39362c-2.89397,-2.84757 -2.24393,-9.28474 -2.34167,-12.73594c-0.05321,-1.87885 -0.92458,-3.85872 -0.2983,-5.63092c0.47773,-1.35184 2.00919,-2.11446 3.27405,-2.7896c2.77453,-1.48095 7.01383,-0.71773 10.02042,-0.71773c0,0 2.5,0 2.5,2.5c0,2.5 -2.5,2.5 -2.5,2.5c-2.08456,0 -4.17244,-0.13014 -6.25366,-0.01217c-0.8331,0.04722 -2.44622,-0.32958 -2.45187,0.50483c-0.00777,1.1471 0.60572,2.22598 0.7017,3.36908c0.13756,1.63825 -0.09837,3.2907 -0.00469,4.93205c0.08324,1.45844 -0.34155,3.27144 0.66302,4.33201c0.30671,0.3238 0.89459,-0.14258 1.33578,-0.07726c1.08013,0.15993 2.25205,0.18716 3.18935,0.74727c1.19608,0.71474 2.27243,1.73312 2.97503,2.93637c1.69289,2.89916 1.35324,5.62452 1.34532,8.76782c-0.01738,6.90547 -3.00952,10.21272 -8.71376,13.64373l-1.78624,0.35627c0,0 -2.5,0 -2.5,-2.5z" fill="#000000" stroke-width="0.5"/><text transform="translate(293.38672,51.18945) scale(0.5,0.5)" font-size="40" xml:space="preserve" fill-opacity="0.86275" fill="#2aff00" stroke-width="1" font-family="Sans Serif" font-weight="normal" text-anchor="start"><tspan x="0" dy="0"> </tspan></text></g></g></svg>