<svg version="1.1" xmlns="http://www.w3.org/2000/svg" xmlns:xlink="http://www.w3.org/1999/xlink" width="46.73134" height="144.74956" viewBox="0,0,46.73134,144.74956"><g transform="translate(-296.58046,-125.73278)"><g data-paper-data="{&quot;isPaintingLayer&quot;:true}" fill-rule="nonzero" stroke-linecap="butt" stroke-linejoin="miter" stroke-miterlimit="10" stroke-dasharray="" stroke-dashoffset="0" style="mix-blend-mode: normal"><path d="M319.47607,259.773c-1.73475,3.77367 -4.49209,7.83903 -7.68083,10.42362c-0.98932,0.80187 -3.14737,-0.29493 -4.04031,-0.71647c-2.72833,-1.28798 -4.66157,-6.94596 -2.77242,-9.62313c0.83031,-1.17665 1.30889,-0.30434 2.7314,-0.56061c1.2497,-0.22513 2.42137,-0.8572 3.66747,-1.10143c0.60634,-0.12127 1.22207,-0.2419 1.82841,-0.36316l0.59826,-0.40457c1.40848,0.84764 3.06723,1.42484 4.70585,1.84499l-0.03112,0.07295l0.99328,0.42777z" data-paper-data="{&quot;noHover&quot;:false,&quot;origItem&quot;:[&quot;Path&quot;,{&quot;applyMatrix&quot;:true,&quot;segments&quot;:[[[256.44307,359.41781],[-5.05373,-4.09622],[1.56793,1.27086]],[[262.81709,358.29213],[-1.41519,0.66808],[4.32404,-2.04129]],[[267.19782,343.10653],[2.99407,4.24296],[-1.31593,-1.86483]],[[262.87865,342.22982],[2.25449,0.40615],[-1.98059,-0.35681]],[[257.09535,340.49665],[1.9749,0.38706],[-0.96096,-0.19219]],[[254.21245,339.92007],[0.96096,0.19219],[0,0]],[[253.26783,339.27798],[0,0],[-2.23225,1.3434]],[[245.83625,342.18291],[2.59699,-0.66588],[0,0]],[245.88571,342.29833],[[244.31427,342.9718],[0,0],[2.74932,5.98077]]],&quot;closed&quot;:true}]}" fill="#9a3b00" stroke="none" stroke-width="0.5"/><path d="M307.32316,220.77515h0.00092c0.00013,0.04182 0.00032,0.08362 0.00046,0.12541c-1.62984,4.74179 -2.93611,9.92188 -3.2507,14.68843c-0.29207,4.42578 0.32001,8.87774 0.33388,13.26058c0.00387,1.223 -0.44477,2.40984 -0.6146,3.62072c-0.11393,0.22581 -0.2319,0.45002 -0.35225,0.67257c-0.31971,-0.34112 -0.70439,-0.62801 -1.01443,-0.97945c-1.59789,-1.81126 -2.4475,-3.58651 -3.39257,-5.79829c-1.31411,-2.43251 -0.29295,-5.57659 0.11132,-8.20436c0.9822,-6.38435 2.45014,-12.65108 2.5812,-19.11806c1.04659,0.03093 2.03511,-0.01313 2.69623,0.03096c0.74199,0.04946 1.81143,0.22773 2.89991,0.39616z" data-paper-data="{&quot;noHover&quot;:false,&quot;origItem&quot;:[&quot;Path&quot;,{&quot;applyMatrix&quot;:true,&quot;segments&quot;:[[263.54511,281.18948],[[263.54365,281.18948],[0,0],[-0.00019,0.06626]],[[263.54302,281.3882],[0.00023,-0.06622],[2.58307,7.51511]],[[268.72703,304.63856],[-0.49857,-7.55435],[0.46293,7.01426]],[[268.15773,325.58601],[0.02199,-6.94621],[-0.00614,1.93827]],[[269.1286,331.32407],[-0.26917,-1.91907],[0.18059,0.35789]],[[269.68574,332.38996],[-0.19074,-0.35273],[0.50671,-0.54063]],[[271.29043,330.83764],[-0.49137,0.55698],[2.53245,-2.87063]],[[276.65109,321.65125],[-1.4978,3.50536],[2.08269,-3.85522]],[[276.44844,308.67096],[0.64071,4.16466],[-1.55665,-10.11835]],[[272.39794,278.44562],[0.20771,10.24928],[-1.65871,0.04901]],[[268.13268,278.49458],[1.04778,-0.06986],[-1.17597,0.07841]],[[263.54511,279.12095],[1.72509,-0.26696],[0,0]]],&quot;closed&quot;:true}]}" fill="#9a3b00" stroke="none" stroke-width="0.5"/><path d="M323.80474,216.31687c0.01352,0.97364 -0.00323,1.93925 -0.10163,2.86222c-0.32419,3.04065 -1.34127,6.05981 -2.00699,9.03646c-0.66939,2.99303 -1.52781,6.06849 -1.96603,9.10603c-0.40136,2.78204 -0.4296,5.6452 -0.75769,8.43727c-0.43873,3.73364 -0.52113,7.04872 0.22544,10.68716c-1.26623,-0.91653 -2.84,-1.3325 -4.30571,-2.33573c-0.55411,-0.37928 -1.63296,-0.66295 -1.52093,-1.32502c0.08451,-0.49943 0.5621,-0.86663 0.67969,-1.35932c0.68193,-2.8572 0.6334,-6.33816 0.40149,-9.25763c-0.28855,-3.6324 -2.01308,-7.35414 -2.96644,-10.86852c-0.86354,-3.18329 -1.00044,-6.3562 -1.02502,-9.59337c0.02903,-0.22777 0.03248,-0.45625 -0.00309,-0.68523c-0.00103,-0.3233 -0.0006,-0.64764 -0.0006,-0.97257l0.00014,-0.23454c0.12595,0.00006 0.24558,-0.00374 0.35666,-0.01148c2.67093,-0.18594 5.07789,-1.67933 7.64732,-2.23174c2.07475,-0.44604 3.65931,-0.71016 5.34336,-1.25398z" data-paper-data="{&quot;noHover&quot;:false,&quot;origItem&quot;:[&quot;Path&quot;,{&quot;applyMatrix&quot;:true,&quot;segments&quot;:[[[237.58898,278.65865],[-0.15596,-1.46279],[0.51379,4.81901]],[[240.77634,292.97717],[-1.05508,-4.71759],[1.06089,4.74353]],[[243.91484,307.34831],[-0.69453,-4.81409],[0.6361,4.40914]],[[245.07828,320.68821],[-0.51999,-4.42506],[0.69534,5.91731]],[[244.7165,337.62524],[1.18321,-5.76644],[2.0068,-1.45256]],[[251.52908,333.92357],[-2.32296,1.58998],[0.8782,-0.60109]],[[253.93464,331.82447],[0.17756,1.04929],[-0.13394,-0.79154]],[[252.85855,329.66987],[0.18637,0.78086],[-1.08075,-4.52828]],[[252.21126,315.0014],[-0.36754,4.62697],[0.4573,-5.75686]],[[256.89651,297.85508],[-1.51094,5.56981],[1.3686,-5.04508]],[[258.53749,282.66293],[-0.03894,5.13048],[-0.046,-0.36099]],[[258.54315,281.57729],[-0.05638,0.3629],[0.00161,-0.51238]],[[258.54511,280.03633],[0,0.51498],[0,0]],[[258.54511,279.66469],[0,0],[-0.19962,0.00009]],[[257.98074,279.64684],[0.17604,0.01226],[-4.23306,-0.2947]],[[245.88209,276.11298],[4.07222,0.87549],[-3.2882,-0.70694]],[[237.42585,274.12315],[2.669,0.86189],[-0.02143,1.54308]]],&quot;closed&quot;:true}]}" fill="#9a3b00" stroke="none" stroke-width="0.5"/><path d="M324.09256,211.0166c-0.38989,0.46275 -0.39115,1.0848 -0.39115,1.0848c0,0.40945 0.00715,0.82746 0.01886,1.25021c-1.98133,0.42926 -3.94073,0.76672 -5.92212,1.19818c-2.28006,0.49648 -4.82901,2.00797 -7.20671,2.16696c-0.67161,0.04491 -5.44964,-0.69572 -5.97185,-0.73058c-1.02524,-0.06845 -2.06038,0.07023 -3.08583,0.00485c-0.41623,-0.02654 -0.81081,-0.20406 -1.22059,-0.28164c-0.21335,-0.04039 -0.57991,0.13316 -0.64799,-0.07303c-0.12744,-0.38603 0.1486,-0.79965 0.22736,-1.19848c0.43689,-2.21233 1.41363,-4.11165 2.10786,-6.21053c1.46143,-4.41833 2.19271,-9.16625 3.66571,-13.61994c0.3305,-2.31348 1.26221,-4.46747 1.50013,-6.77608c0.1751,-1.69899 -0.12884,-2.05005 0.00851,-3.68518c0.24066,-2.86523 0.73505,-5.45869 0.73857,-8.363l0.00021,-0.47991c0.5845,0.21005 1.16891,0.43523 1.78053,0.70747c0.4825,0.21476 2.85033,1.47242 3.19913,1.55078c2.04375,0.45919 6.35442,0.41904 8.37854,0.00236c2.29753,-0.47296 4.59318,-2.39593 6.60032,-3.43152c0.08313,-0.0429 0.1666,-0.08529 0.25013,-0.12739c0.03399,0.94666 0.05663,1.8938 -0.04314,2.83353c-0.34588,3.25807 -1.70303,6.29604 -2.16904,9.52313c-1.17074,8.10736 -1.69136,16.45198 -1.81745,24.65504z" data-paper-data="{&quot;noHover&quot;:false,&quot;origItem&quot;:[&quot;Path&quot;,{&quot;applyMatrix&quot;:true,&quot;segments&quot;:[[[237.59908,267.3516],[0,0],[0,0.6489]],[[237.56787,269.33227],[0.01857,-0.67],[3.14014,0.68032]],[[246.93964,271.2261],[-3.14023,-0.68379],[3.61359,0.78686]],[[258.34369,274.66003],[-3.76833,-0.25197],[1.06442,0.07117]],[[267.79541,273.50597],[-0.82763,0.05526],[1.62486,-0.10849]],[[272.68083,273.51637],[-1.62518,0.10361],[0.65966,-0.04206]],[[274.61324,273.07131],[-0.64946,0.12297],[0.33814,-0.06402]],[[275.63925,272.95621],[-0.10788,0.3268],[0.20196,-0.61181]],[[275.27804,271.05742],[0.12482,0.63208],[-0.6924,-3.50627]],[[271.93301,261.21815],[1.10027,3.32643],[-2.31617,-7.00245]],[[266.1075,239.67365],[2.33451,7.0585],[-0.52379,-3.66656]],[[263.74648,228.96721],[0.37707,3.65883],[-0.27749,-2.69265]],[[263.7406,223.1323],[0.21767,2.59146],[-0.38142,-4.54102]],[[262.58115,209.88298],[0.00559,4.60294],[0,0]],[[262.58115,209.12247],[0,0],[-0.92635,0.33288]],[[259.76294,210.24465],[0.96933,-0.43147],[-0.7647,0.34038]],[[254.70055,212.70348],[0.55279,-0.12419],[-3.23908,0.72774]],[[241.44364,212.70348],[3.20794,0.66038],[-3.64126,-0.74958]],[[230.99138,207.26057],[3.18104,1.64128],[-0.13175,-0.06798]],[[230.59518,207.05852],[0.13237,0.06674],[-0.05387,1.50033]],[[230.66622,211.54737],[-0.15811,-1.48933],[0.54817,5.16358]],[[234.11347,226.63051],[-0.73856,-5.11452],[1.85547,12.84909]],[[236.98117,265.63359],[-0.19984,-13.00074],[0.61791,0.7334]]],&quot;closed&quot;:true}]}" fill="#ffde00" stroke="none" stroke-width="0.5"/><path d="M317.85181,155.72603c-1.49648,-0.49881 -0.99765,-1.99529 -0.99765,-1.99529l0.28286,-0.59282c0.0007,-4.79238 -0.06259,-9.55444 0.37028,-14.33088c0,0 0.14282,-1.57094 1.71376,-1.42812c1.57094,0.14282 1.42812,1.71376 1.42812,1.71376c-0.42687,4.68044 -0.35663,9.3493 -0.35732,14.04572l-0.44475,1.59c0,0 -0.49881,1.49648 -1.99529,0.99765z" fill="#000000" stroke="none" stroke-width="0.5"/><path d="M311.0746,154.35181c-1.57743,0 -1.57743,-1.57743 -1.57743,-1.57743v-0.36381c0,-4.96847 -0.27058,-9.82598 -0.72113,-14.7731c0,0 -0.14282,-1.57094 1.42812,-1.71376c1.57094,-0.14282 1.71376,1.42812 1.71376,1.42812c0.45751,5.04154 0.73408,9.99525 0.73408,15.05872v0.36381c0,0 0,1.57743 -1.57743,1.57743z" fill="#000000" stroke="none" stroke-width="0.5"/><path d="M302.19591,152.18947c1.31249,-0.87498 2.18749,0.43751 2.18749,0.43751l0.12055,0.55552c4.44225,2.23648 8.48283,6.67846 13.91216,5.68277c1.76543,-0.32376 4.18069,-2.54385 5.40303,-3.59794c1.68569,-1.45368 2.17903,-2.20461 3.48619,-3.84217c0,0 0.98542,-1.23177 2.21717,-0.24635c1.23177,0.98542 0.24635,2.21717 0.24635,2.21717c-3.90095,4.8662 -9.0373,9.81026 -15.78248,8.55347c-4.08491,-0.76113 -7.30547,-4.16566 -10.8933,-5.94518l-1.33465,-1.6273c0,0 -0.87498,-1.31249 0.43751,-2.18749z" fill="#000000" stroke="none" stroke-width="0.5"/><path d="M296.58046,269.50144v-143.76866h46.73134v143.76866z" fill="#ff0000" stroke="#000000" stroke-width="0"/><path d="M335.41667,144.83335v-1h4.5v1z" fill="#ff0000" stroke="none" stroke-width="0"/></g></g></svg>