<svg version="1.1" xmlns="http://www.w3.org/2000/svg" xmlns:xlink="http://www.w3.org/1999/xlink" width="988.00299" height="565.57907" viewBox="0,0,988.00299,565.57907"><g transform="translate(175.00148,104.78955)"><g fill="none" stroke="#000000" stroke-miterlimit="10"><path d="M-153.56267,448.28953c-4.93677,0 -8.93881,-3.37568 -8.93881,-7.53981v-525.49945c0,-4.16412 4.00204,-7.53981 8.93881,-7.53981h945.12537c4.93677,0 8.93881,3.37568 8.93881,7.53981v525.49945c0,4.16412 -4.00204,7.53981 -8.93881,7.53981z" stroke-width="25" stroke-linecap="butt"/><path d="M647.32733,349.66967v93.09309" stroke-width="10" stroke-linecap="round"/><path d="M-37.35733,53.87387h138.13814" stroke-width="10" stroke-linecap="round"/><path d="M540.72076,50.87087h169.66967" stroke-width="10" stroke-linecap="round"/><path d="M597.7778,49.36937v-51.05105" stroke-width="10" stroke-linecap="round"/><path d="M596.27631,23.84385h27.02703v22.52252" stroke-width="10" stroke-linecap="round"/><path d="M672.8529,46.36637v-27.02703" stroke-width="10" stroke-linecap="round"/><path d="M659.33935,46.36637v-25.52553" stroke-width="10" stroke-linecap="round"/><path d="M681.86191,20.84083h-37.53754" stroke-width="10" stroke-linecap="round"/><path d="M456.63669,186.00601l-39.78979,39.78979" stroke-width="10" stroke-linecap="round"/><path d="M235.91595,119.93994h-60.06006" stroke-width="10" stroke-linecap="round"/><path d="M303.48348,201.02102h-12.01201" stroke-width="10" stroke-linecap="round"/><path d="M512.1922,142.46246l-25.52553,-25.52553" stroke-width="10" stroke-linecap="round"/><path d="M174.78122,286.60661h-84.93775" stroke-width="10" stroke-linecap="round"/><path d="M295.55556,338.66066h-55.55556" stroke-width="10" stroke-linecap="round"/><path d="M31.71175,193.93994h-60.06006" stroke-width="10" stroke-linecap="round"/><path d="M625.55559,196.60661h-84.93775" stroke-width="10" stroke-linecap="round"/></g></g></svg>