<svg version="1.1" xmlns="http://www.w3.org/2000/svg" xmlns:xlink="http://www.w3.org/1999/xlink" width="1992.50752" height="442.53608" viewBox="0,0,1992.50752,442.53608"><g transform="translate(821.85366,-66.11476)"><g stroke="none" stroke-miterlimit="10"><path d="M0.51995,246.88521c0,0 -1.80814,-14.05794 13.04766,-29.01548c18.71861,-18.8468 43.95234,0.01548 43.95234,0.01548c0,0 3.08052,-64.31265 37.65968,-41.01981c2.88461,1.9431 -7.74043,-7.50112 -7.85276,-15.06667c-0.23376,-15.74395 8.42219,-38.33977 22.1932,-38.34257c3.46174,-0.0007 10.50916,-1.51955 14.164,0.71775c4.48194,2.74362 5.6254,9.12054 10.47045,6.10421c3.38811,-2.1093 5.37481,-10.13212 8.97378,-15.03984c6.17525,-8.42083 14.18107,-14.47481 21.08668,-14.91421c3.43664,-0.21867 11.82274,-2.90615 16.69508,1.33939c5.91126,5.15081 8.0663,17.43899 8.0663,17.43899c0,0 11.76614,-5.17988 17.79986,-2.64081c7.53298,3.16997 23.90665,20.19144 23.90665,20.19144c0,0 19.51885,-28.92975 28.95739,-31.44231c9.68354,-2.57778 28.42768,16.1663 28.42768,16.1663c0,0 -7.74589,-17.6641 -4.33266,-29.41039c4.19402,-14.43329 20.13812,-23.50051 25.80086,-23.42518c3.9906,0.05309 11.74639,2.20917 14.9063,7.46322c5.48944,9.1274 5.1806,23.56838 5.1806,23.56838c0,0 22.72441,0.22447 31.64912,7.79948c2.2372,1.89887 8.71575,11.34373 7.05872,19.06037c-1.77837,8.28168 -11.78881,14.80048 -11.78881,14.80048c0,0 10.18503,-4.6607 20.21137,-5.98795c7.7618,-1.02748 16.12884,3.24416 17.83836,5.66797c6.8497,9.71174 8.88312,21.34283 8.88312,21.34283c0,0 13.49771,-14.01618 25.11413,-21.66938c3.15257,-2.07699 12.48976,-5.87519 19.23639,-3.84142c8.85862,2.67042 15.06108,11.77522 15.06108,11.77522c0,0 8.07074,-24.09218 12.61496,-31.77281c2.8684,-4.84817 12.01849,-9.86266 12.01849,-9.86266l12.43576,12.16598l4.53862,21.34313c0,0 31.64245,-15.77409 38.3636,-8.57357c1.4912,1.59755 7.00005,5.54166 8.29191,10.40355c2.06346,7.7658 -0.42669,17.09748 -0.42669,17.09748c0,0 11.47306,3.38562 16.83877,4.66624c4.03231,0.96238 17.67034,11.25931 17.67034,11.25931c0,0 6.1153,-18.83869 11.00501,-19.66378c5.29262,-0.89308 11.99534,1.06623 15.14048,4.72701c4.68857,5.45726 6.14025,18.08272 10.45813,25.77082c3.6535,6.50514 10.35325,7.91308 12.55594,14.5541c7.95901,23.99608 8.12814,46.24974 8.12814,46.24974z" fill="#ffffff" stroke-width="0"/><path d="M640.01996,234.25881c-2.5,0 -2.5,-2.5 -2.5,-2.5l0.02587,-1.64132c-0.57809,-4.08739 -2.10499,-7.91071 -3.37013,-11.83263c-2.34805,-7.42185 -1.94242,-17.19105 -5.83515,-23.80124c-2.5913,-4.40024 -8.14062,-4.01229 -10.48286,-7.46999c-0.49266,-0.72728 -1.5149,-14.54086 -4.41235,-19.35985c-1.80277,-2.41048 -3.86163,-4.049 -6.09268,-6.03215c-1.9105,-1.69822 -3.71503,-4.06118 -6.19648,-5.01678c-10.19086,-3.92449 -11.43147,9.9339 -12.17994,19.14592c0.19001,0.27038 0.31657,0.4614 0.34215,0.52454c0.17833,0.44035 1.08639,6.12675 1.19306,6.7773l-0.08065,0.2062h0.08917v2.5c0,1.38071 -1.11929,2.5 -2.5,2.5c-1.07311,0 -1.98829,-0.67611 -2.34282,-1.62559l-0.97838,-2.44593l0.77318,-0.30927c-1.30001,-2.48823 -2.07307,-5.17588 -2.38409,-7.89501c-0.37252,-0.39799 -0.74709,-0.79529 -1.0679,-1.2242c-3.11694,-4.16724 -7.59387,-7.26291 -12.42848,-9.17881c-4.59091,-1.83637 -23.29275,-3.46736 -24.36939,-5.83639c-1.28669,-2.83123 3.12829,-7.28469 3.30367,-10.15517c0.47219,-7.72794 -3.81773,-20.51118 -13.55511,-18.37059c-7.18226,1.19292 -30.56065,13.57373 -33.38405,11.12593c-2.88007,-2.49694 2.01435,-23.00153 -11.01058,-31.54412c-1.12045,-0.85655 -5.31904,-3.73028 -6.92069,-2.81354c-5.19579,2.97394 -15.83417,39.94875 -22.05526,42.70445c-1.02344,0.45335 -13.24076,-10.82003 -16.05289,-11.97687c-3.85017,0.08567 -8.29249,-0.55795 -11.86696,1.25955c-6.06172,3.0822 -35.06851,42.269 -35.16027,17.78555c0.05245,-17.20191 -10.92075,-20.77696 -25.65048,-19.02455c-3.56099,0.42365 -10.78186,4.74152 -14.66662,4.33426c-0.16248,0.12966 -0.32523,0.25844 -0.48819,0.38635l-0.47075,-0.02419l0.06661,0.19984l-2.94464,0.98154c-0.2642,0.09499 -0.54902,0.14675 -0.84593,0.14675c-1.38071,0 -2.5,-1.11929 -2.5,-2.5c0,-1.0731 0.67611,-1.98829 1.62559,-2.34282l2.44593,-0.97838l0.05722,0.14305l0.26014,-0.08672c6.29615,-5.1885 12.68346,-11.86336 10.67233,-20.68536c-0.45716,-2.00538 -0.7433,-3.43166 -2.03172,-5.01125c-1.43144,-1.75494 -3.15722,-2.92113 -4.92926,-4.29899c-7.07423,-4.69387 -31.93826,-7.20581 -32.73646,-8.44088c-6.98201,-10.80343 5.39588,-23.30237 -13.50543,-29.38241c-4.48845,-1.00537 -9.27866,2.10331 -13.0016,4.34329c-19.18327,11.542 -12.31786,25.29765 -11.76689,42.04385l0.28187,-0.09395l0.98155,2.94464c0.09499,0.2642 0.14674,0.54903 0.14674,0.84593c0,1.38071 -1.11929,2.5 -2.5,2.5c-0.98561,0 -1.83801,-0.57036 -2.24514,-1.39903l-1.65544,-3.20229c-2.50807,-3.81565 -4.71325,-6.06444 -8.97564,-7.81158c-12.79262,-13.35656 -30.37656,17.46435 -42.05801,28.37153l-0.63872,1.27743l0.57295,0.76394l-1.9798,1.48485c-0.42123,0.32311 -0.94829,0.51515 -1.5202,0.51515c-1.38071,0 -2.5,-1.11929 -2.5,-2.5c0,-0.41989 0.10351,-0.81561 0.28642,-1.16302l1.47751,-2.95502l0.02971,0.01485l0.01485,-0.09984c1.61068,-1.07268 -17.43403,-14.12079 -20.83803,-16.78232c-5.92022,-4.62892 -18.08392,5.3847 -22.0837,-0.67892c-3.20074,-4.85229 4.11464,-11.41454 -5.673,-17.19201c-19.04854,-11.57596 -34.17793,15.5178 -43.6301,29.18973l0.23754,0.09501l-0.97837,2.44593c-0.35452,0.94948 -1.26971,1.62559 -2.34282,1.62559c-1.0731,0 -1.9883,-0.67611 -2.34282,-1.62559l-0.83385,-2.08463c-1.65184,-1.60742 -3.31888,-3.94575 -5.19956,-5.20268c-5.9935,-4.00566 -13.3662,-1.37179 -19.21976,1.24373c-1.66163,0.5392 -3.62812,0.02774 -5.17227,0.84467c-1.15967,0.61352 -0.93723,2.45096 -1.38428,3.68439c-1.93747,5.34557 -9.85181,24.11959 -8.89257,28.66734c1.05819,5.01688 4.003,8.71829 6.08817,12.98029l0.54165,0.54165l0.55902,-0.33541l1.47886,2.46477c0.2392,0.3834 0.37741,0.83629 0.37741,1.32147c0,1.38071 -1.11929,2.5 -2.5,2.5c-0.69035,0 -1.31536,-0.27983 -1.76777,-0.73224l-2.33572,-2.33573c-3.37746,-1.99447 -5.68142,-2.44421 -9.64285,-2.44421c-14.46689,-3.13155 -20.45222,29.98205 -22.20511,45.75211l0.80471,2.41413c0.09499,0.2642 0.14675,0.54902 0.14675,0.84593c0,1.38071 -1.11929,2.5 -2.5,2.5c-0.92661,0 -1.73548,-0.50412 -2.16731,-1.25305l-1.40663,-2.34439c-3.83875,-4.69325 -8.88123,-10.2301 -14.5997,-12.49503c-16.89975,-2.7763 -29.12853,12.82871 -38.32636,25.09247c0,0 -1.5,2 -3.5,0.5c-2,-1.5 -0.5,-3.5 -0.5,-3.5c10.69025,-14.25367 24.23811,-30.18066 43.67364,-26.90753c4.74417,1.90956 8.9233,5.2788 12.58709,9.05036c0.24386,-2.37579 0.86994,-4.80866 1.34014,-6.34578c3.75945,-12.28994 9.45619,-41.58377 27.14548,-38.28489c1.83008,0 3.42127,0.13661 4.9148,0.43941c-1.59404,-3.08355 -2.75651,-6.61568 -3.11603,-8.47881c-0.67865,-3.51691 9.38206,-35.44145 12.72315,-37.64827c1.65246,-1.09146 3.95606,-0.50823 5.82774,-1.15533c7.47112,-3.30364 16.32023,-5.72108 23.78024,-0.75627c1.80625,1.2021 3.55327,3.21719 5.16081,5.02213c1.07992,-4.50126 6.46133,-11.97285 7.97619,-13.95251c8.84992,-11.56534 27.54112,-24.07501 41.77301,-15.62625c6.46361,3.92946 10.42936,11.87429 7.32701,18.808c-0.87238,1.94975 4.05263,-1.35148 6.07806,-2.02985c2.93278,-0.98226 6.88853,-3.35721 10.10626,-2.00378c2.52597,1.06247 21.50635,15.41417 27.11228,20.65855c1.82214,-2.25802 4.04467,-4.62497 4.80956,-6.31332c5.05498,-11.1579 26.74278,-32.50963 39.65683,-20.06296c1.70063,0.66177 3.13322,1.47663 4.39966,2.43677c-0.40208,-4.60449 -0.05098,-9.68921 0.24453,-12.16855c0.54568,-4.57834 0.56406,-10.49529 2.71353,-14.73706c4.44126,-8.76438 20.11509,-18.17986 29.90772,-16.3603c19.53169,6.67118 11.77806,17.09323 16.49456,31.61759c0.47541,1.464 10.68577,-0.70216 11.47215,-0.69899c6.83827,0.0275 14.43823,4.08799 19.90653,7.67461c2.19302,1.71057 4.20869,3.07047 5.9556,5.28451c1.83365,2.32397 2.29564,4.1014 2.96829,6.98875c1.49665,6.4244 -0.39004,12.0015 -3.81415,16.80086c16.8758,-4.43722 36.32026,3.01293 36.37535,23.74892c-0.03895,8.8141 10.49198,-5.96216 12.94742,-9.42721c7.42927,-10.48398 17.59864,-14.71625 30.02535,-14.52768c4.01644,1.58274 7.46106,4.20425 10.69453,7.09207c1.46861,1.31162 3.07872,6.89242 3.25258,4.93106c0.403,-4.54624 17.69153,-40.60561 20.94475,-42.29555c3.70567,-1.92497 9.25071,1.09787 12.0793,3.18646c10.14672,6.85867 10.7772,16.73255 12.52018,27.61876c0.13551,0.84638 0.43194,2.12533 0.44232,3.15582c2.17838,-1.339 5.83317,-3.1279 7.57728,-4.01124c6.48176,-3.28283 12.84405,-5.97396 20.06559,-7.18154c17.60627,-3.27056 24.65465,28.33328 15.74856,31.47424c-2.10686,0.74304 4.46809,-0.01768 6.70214,-0.0152c5.5373,0.00617 9.83092,1.13979 14.92848,3.17881c4.41733,1.7811 8.53206,4.35766 11.88033,7.72034c2.62741,-14.71848 17.80357,-25.69544 34.26581,-3.79412c2.83518,4.73336 4.89402,10.09579 5.41321,15.64863c0.12649,1.35277 -1.76766,3.01254 -0.82556,3.99152c2.68857,2.79379 7.83653,2.51584 10.51714,7.53001c3.9332,7.35719 3.59155,16.70253 6.23487,24.71585c1.35617,4.20412 2.91199,8.27328 3.55985,12.65028l0.02586,2.35868c0,0 0,2.5 -2.5,2.5z" fill="#c9eeff" stroke-width="0.5"/><path d="M-41.25423,411.21743v-172.5h767v172.5z" fill="#ffffff" stroke-width="0"/><path d="M332.14315,352.96782c0,0 0.16913,-22.25366 8.12814,-46.24974c2.20269,-6.64102 8.90244,-8.04896 12.55594,-14.5541c4.31788,-7.6881 5.76956,-20.31356 10.45813,-25.77082c3.14514,-3.66078 9.84786,-5.62009 15.14048,-4.72701c4.88971,0.82509 11.00501,19.66378 11.00501,19.66378c0,0 13.63803,-10.29693 17.67034,-11.25931c5.36571,-1.28062 16.83877,-4.66624 16.83877,-4.66624c0,0 -2.49015,-9.33168 -0.42669,-17.09748c1.29186,-4.86189 6.80071,-8.806 8.29191,-10.40355c6.72115,-7.20052 38.3636,8.57357 38.3636,8.57357l4.53862,-21.34313l12.43576,-12.16598c0,0 9.15009,5.01449 12.01849,9.86266c4.54422,7.68063 12.61496,31.77281 12.61496,31.77281c0,0 6.20246,-9.1048 15.06108,-11.77522c6.74663,-2.03377 16.08382,1.76443 19.23639,3.84142c11.61642,7.6532 25.11413,21.66938 25.11413,21.66938c0,0 2.03342,-11.63109 8.88312,-21.34283c1.70952,-2.42381 10.07656,-6.69545 17.83836,-5.66797c10.02634,1.32725 20.21137,5.98795 20.21137,5.98795c0,0 -10.01044,-6.5188 -11.78881,-14.80048c-1.65703,-7.71664 4.82152,-17.1615 7.05872,-19.06037c8.92471,-7.57501 31.64912,-7.79948 31.64912,-7.79948c0,0 -0.30884,-14.44098 5.1806,-23.56838c3.15991,-5.25405 10.9157,-7.41013 14.9063,-7.46322c5.66274,-0.07533 21.60684,8.99189 25.80086,23.42518c3.41323,11.74629 -4.33266,29.41039 -4.33266,29.41039c0,0 18.74414,-18.74408 28.42768,-16.1663c9.43854,2.51256 28.95739,31.44231 28.95739,31.44231c0,0 16.37367,-17.02147 23.90665,-20.19144c6.03372,-2.53907 17.79986,2.64081 17.79986,2.64081c0,0 2.15504,-12.28818 8.0663,-17.43899c4.87234,-4.24554 13.25844,-1.55806 16.69508,-1.33939c6.90561,0.4394 14.91143,6.49338 21.08668,14.91421c3.59897,4.90772 5.58567,12.93054 8.97378,15.03984c4.84505,3.01633 5.98851,-3.36059 10.47045,-6.10421c3.65484,-2.2373 10.70226,-0.71845 14.164,-0.71775c13.77101,0.0028 22.42696,22.59862 22.1932,38.34257c-0.11233,7.56555 -10.73737,17.00977 -7.85276,15.06667c34.57916,-23.29284 37.65968,41.01981 37.65968,41.01981c0,0 25.23373,-18.86228 43.95234,-0.01548c14.8558,14.95754 13.04766,29.01548 13.04766,29.01548z" fill="#ffffff" stroke-width="0"/><path d="M334.64313,340.34135c-2.5,0 -2.5,-2.5 -2.5,-2.5l0.02586,-2.35868c0.64786,-4.377 2.20368,-8.44616 3.55985,-12.65028c2.64332,-8.01332 2.30167,-17.35866 6.23487,-24.71585c2.68061,-5.01417 7.82857,-4.73622 10.51714,-7.53001c0.9421,-0.97898 -0.95205,-2.63875 -0.82556,-3.99152c0.51919,-5.55284 2.57803,-10.91527 5.41321,-15.64863c16.46224,-21.90132 31.6384,-10.92436 34.26581,3.79412c3.34827,-3.36268 7.463,-5.93924 11.88033,-7.72034c5.09756,-2.03902 9.39118,-3.17264 14.92848,-3.17881c2.23405,-0.00248 8.809,0.75824 6.70214,0.0152c-8.90609,-3.14096 -1.85771,-34.7448 15.74856,-31.47424c7.22154,1.20758 13.58383,3.89871 20.06559,7.18154c1.74411,0.88334 5.3989,2.67224 7.57728,4.01124c0.01038,-1.03049 0.30681,-2.30944 0.44232,-3.15582c1.74298,-10.88621 2.37346,-20.76009 12.52018,-27.61876c2.82859,-2.08859 8.37363,-5.11143 12.0793,-3.18646c3.25322,1.68994 20.54175,37.74931 20.94475,42.29555c0.17386,1.96136 1.78397,-3.61944 3.25258,-4.93106c3.23347,-2.88782 6.67809,-5.50933 10.69453,-7.09207c12.42671,-0.18857 22.59608,4.0437 30.02535,14.52768c2.45544,3.46505 12.98637,18.24131 12.94742,9.42721c0.05509,-20.73599 19.49955,-28.18614 36.37535,-23.74892c-3.42411,-4.79936 -5.3108,-10.37646 -3.81415,-16.80086c0.67265,-2.88735 1.13464,-4.66478 2.96829,-6.98875c1.74691,-2.21404 3.76258,-3.57394 5.9556,-5.28451c5.4683,-3.58662 13.06826,-7.64711 19.90653,-7.67461c0.78638,-0.00317 10.99674,2.16299 11.47215,0.69899c4.7165,-14.52436 -3.03713,-24.94641 16.49456,-31.61759c9.79263,-1.81956 25.46646,7.59592 29.90772,16.3603c2.14947,4.24177 2.16785,10.15872 2.71353,14.73706c0.29551,2.47934 0.64661,7.56406 0.24453,12.16855c1.26644,-0.96014 2.69903,-1.775 4.39966,-2.43677c12.91405,-12.44667 34.60185,8.90506 39.65683,20.06296c0.76489,1.68835 2.98742,4.0553 4.80956,6.31332c5.60593,-5.24438 24.58631,-19.59608 27.11228,-20.65855c3.21773,-1.35343 7.17348,1.02152 10.10626,2.00378c2.02543,0.67837 6.95044,3.9796 6.07806,2.02985c-3.10235,-6.93371 0.8634,-14.87854 7.32701,-18.808c14.23189,-8.44876 32.92309,4.06091 41.77301,15.62625c1.51486,1.97966 6.89627,9.45125 7.97619,13.95251c1.60754,-1.80494 3.35456,-3.82003 5.16081,-5.02213c7.46001,-4.96481 16.30912,-2.54737 23.78024,0.75627c1.87168,0.6471 4.17528,0.06387 5.82774,1.15533c3.34109,2.20682 13.4018,34.13136 12.72315,37.64827c-0.35952,1.86313 -1.52199,5.39526 -3.11603,8.47881c1.49353,-0.3028 3.08472,-0.43941 4.9148,-0.43941c17.68929,-3.29888 23.38603,25.99495 27.14548,38.28489c0.4702,1.53712 1.09628,3.96999 1.34014,6.34578c3.66379,-3.77156 7.84292,-7.1408 12.58709,-9.05036c19.43553,-3.27313 32.98339,12.65386 43.67364,26.90753c0,0 1.5,2 -0.5,3.5c-2,1.5 -3.5,-0.5 -3.5,-0.5c-9.19783,-12.26376 -21.42661,-27.86877 -38.32636,-25.09247c-5.71847,2.26493 -10.76095,7.80178 -14.5997,12.49503l-1.40663,2.34439c-0.43183,0.74893 -1.2407,1.25305 -2.16731,1.25305c-1.38071,0 -2.5,-1.11929 -2.5,-2.5c0,-0.29691 0.05176,-0.58173 0.14675,-0.84593l0.80471,-2.41413c-1.75289,-15.77006 -7.73822,-48.88366 -22.20511,-45.75211c-3.96143,0 -6.26539,0.44974 -9.64285,2.44421l-2.33572,2.33573c-0.45241,0.45241 -1.07742,0.73224 -1.76777,0.73224c-1.38071,0 -2.5,-1.11929 -2.5,-2.5c0,-0.48518 0.13821,-0.93807 0.37741,-1.32147l1.47886,-2.46477l0.55902,0.33541l0.54165,-0.54165c2.08517,-4.262 5.02998,-7.96341 6.08817,-12.98029c0.95924,-4.54775 -6.9551,-23.32177 -8.89257,-28.66734c-0.44705,-1.23343 -0.22461,-3.07087 -1.38428,-3.68439c-1.54415,-0.81693 -3.51064,-0.30547 -5.17227,-0.84467c-5.85356,-2.61552 -13.22626,-5.24939 -19.21976,-1.24373c-1.88068,1.25693 -3.54772,3.59526 -5.19956,5.20268l-0.83385,2.08463c-0.35452,0.94948 -1.26972,1.62559 -2.34282,1.62559c-1.07311,0 -1.9883,-0.67611 -2.34282,-1.62559l-0.97837,-2.44593l0.23754,-0.09501c-9.45217,-13.67193 -24.58156,-40.76569 -43.6301,-29.18973c-9.78764,5.77747 -2.47226,12.33972 -5.673,17.19201c-3.99978,6.06362 -16.16348,-3.95 -22.0837,0.67892c-3.404,2.66153 -22.44871,15.70964 -20.83803,16.78232l0.01485,0.09984l0.02971,-0.01485l1.47751,2.95502c0.18291,0.34741 0.28642,0.74313 0.28642,1.16302c0,1.38071 -1.11929,2.5 -2.5,2.5c-0.57191,0 -1.09897,-0.19204 -1.5202,-0.51515l-1.9798,-1.48485l0.57295,-0.76394l-0.63872,-1.27743c-11.68145,-10.90718 -29.26539,-41.72809 -42.05801,-28.37153c-4.26239,1.74714 -6.46757,3.99593 -8.97564,7.81158l-1.65544,3.20229c-0.40713,0.82867 -1.25953,1.39903 -2.24514,1.39903c-1.38071,0 -2.5,-1.11929 -2.5,-2.5c0,-0.2969 0.05175,-0.58173 0.14674,-0.84593l0.98155,-2.94464l0.28187,0.09395c0.55097,-16.7462 7.41638,-30.50185 -11.76689,-42.04385c-3.72294,-2.23998 -8.51315,-5.34866 -13.0016,-4.34329c-18.90131,6.08004 -6.52342,18.57898 -13.50543,29.38241c-0.7982,1.23507 -25.66223,3.74701 -32.73646,8.44088c-1.77204,1.37786 -3.49782,2.54405 -4.92926,4.29899c-1.28842,1.57959 -1.57456,3.00587 -2.03172,5.01125c-2.01113,8.822 4.37618,15.49686 10.67233,20.68536l0.26014,0.08672l0.05722,-0.14305l2.44593,0.97838c0.94948,0.35453 1.62559,1.26972 1.62559,2.34282c0,1.38071 -1.11929,2.5 -2.5,2.5c-0.29691,0 -0.58173,-0.05176 -0.84593,-0.14675l-2.94464,-0.98154l0.06661,-0.19984l-0.47075,0.02419c-0.16296,-0.12791 -0.32571,-0.25669 -0.48819,-0.38635c-3.88476,0.40726 -11.10563,-3.91061 -14.66662,-4.33426c-14.72973,-1.75241 -25.70293,1.82264 -25.65048,19.02455c-0.09176,24.48345 -29.09855,-14.70335 -35.16027,-17.78555c-3.57447,-1.8175 -8.01679,-1.17388 -11.86696,-1.25955c-2.81213,1.15684 -15.02945,12.43022 -16.05289,11.97687c-6.22109,-2.7557 -16.85947,-39.73051 -22.05526,-42.70445c-1.60165,-0.91674 -5.80024,1.95699 -6.92069,2.81354c-13.02493,8.54259 -8.13051,29.04718 -11.01058,31.54412c-2.8234,2.4478 -26.20179,-9.93301 -33.38405,-11.12593c-9.73738,-2.14059 -14.0273,10.64265 -13.55511,18.37059c0.17538,2.87048 4.59036,7.32394 3.30367,10.15517c-1.07664,2.36903 -19.77848,4.00002 -24.36939,5.83639c-4.83461,1.9159 -9.31154,5.01157 -12.42848,9.17881c-0.32081,0.42891 -0.69538,0.82621 -1.0679,1.2242c-0.31102,2.71913 -1.08408,5.40678 -2.38409,7.89501l0.77318,0.30927l-0.97838,2.44593c-0.35453,0.94948 -1.26971,1.62559 -2.34282,1.62559c-1.38071,0 -2.5,-1.11929 -2.5,-2.5v-2.5h0.08917l-0.08065,-0.2062c0.10667,-0.65055 1.01473,-6.33695 1.19306,-6.7773c0.02558,-0.06314 0.15214,-0.25416 0.34215,-0.52454c-0.74847,-9.21202 -1.98908,-23.07041 -12.17994,-19.14592c-2.48145,0.9556 -4.28598,3.31856 -6.19648,5.01678c-2.23105,1.98315 -4.28991,3.62167 -6.09268,6.03215c-2.89745,4.81899 -3.91969,18.63257 -4.41235,19.35985c-2.34224,3.4577 -7.89156,3.06975 -10.48286,7.46999c-3.89273,6.61019 -3.4871,16.37939 -5.83515,23.80124c-1.26514,3.92192 -2.79204,7.74524 -3.37013,11.83263l0.02587,1.64132c0,0 0,2.5 -2.5,2.5z" fill="#c9eeff" stroke-width="0.5"/><path d="M-423.07515,318.43326c0,0 -1.80814,-14.05794 13.04766,-29.01548c18.71861,-18.8468 43.95234,0.01548 43.95234,0.01548c0,0 3.08052,-64.31265 37.65968,-41.01981c2.88461,1.9431 -7.74043,-7.50112 -7.85276,-15.06667c-0.23376,-15.74395 8.42219,-38.33977 22.1932,-38.34257c3.46174,-0.0007 10.50916,-1.51955 14.164,0.71775c4.48194,2.74362 5.6254,9.12054 10.47045,6.10421c3.38811,-2.1093 5.37481,-10.13212 8.97378,-15.03984c6.17525,-8.42083 14.18107,-14.47481 21.08668,-14.91421c3.43664,-0.21867 11.82274,-2.90615 16.69508,1.33939c5.91126,5.15081 8.0663,17.43899 8.0663,17.43899c0,0 11.76614,-5.17988 17.79986,-2.64081c7.53298,3.16997 23.90665,20.19144 23.90665,20.19144c0,0 19.51885,-28.92975 28.95739,-31.44231c9.68354,-2.57778 28.42768,16.1663 28.42768,16.1663c0,0 -7.74589,-17.6641 -4.33266,-29.41039c4.19402,-14.43329 20.13812,-23.50051 25.80086,-23.42518c3.9906,0.05309 11.74639,2.20917 14.9063,7.46322c5.48944,9.1274 5.1806,23.56838 5.1806,23.56838c0,0 22.72441,0.22447 31.64912,7.79948c2.2372,1.89887 8.71575,11.34373 7.05872,19.06037c-1.77837,8.28168 -11.78881,14.80048 -11.78881,14.80048c0,0 10.18503,-4.6607 20.21137,-5.98795c7.7618,-1.02748 16.12884,3.24416 17.83836,5.66797c6.8497,9.71174 8.88312,21.34283 8.88312,21.34283c0,0 13.49771,-14.01618 25.11413,-21.66938c3.15257,-2.07699 12.48976,-5.87519 19.23639,-3.84142c8.85862,2.67042 15.06108,11.77522 15.06108,11.77522c0,0 8.07074,-24.09218 12.61496,-31.77281c2.8684,-4.84817 12.01849,-9.86266 12.01849,-9.86266l12.43576,12.16598l4.53862,21.34313c0,0 31.64245,-15.77409 38.3636,-8.57357c1.4912,1.59755 7.00005,5.54166 8.29191,10.40355c2.06346,7.7658 -0.42669,17.09748 -0.42669,17.09748c0,0 11.47306,3.38562 16.83877,4.66624c4.03231,0.96238 17.67034,11.25931 17.67034,11.25931c0,0 6.1153,-18.83869 11.00501,-19.66378c5.29262,-0.89308 11.99534,1.06623 15.14048,4.72701c4.68857,5.45726 6.14025,18.08272 10.45813,25.77082c3.6535,6.50514 10.35325,7.91308 12.55594,14.5541c7.95901,23.99608 8.12814,46.24974 8.12814,46.24974z" fill="#ffffff" stroke-width="0"/><path d="M216.42486,305.80686c-2.5,0 -2.5,-2.5 -2.5,-2.5l0.02587,-1.64132c-0.57809,-4.08739 -2.10499,-7.91071 -3.37013,-11.83263c-2.34805,-7.42185 -1.94242,-17.19105 -5.83515,-23.80124c-2.5913,-4.40024 -8.14062,-4.01229 -10.48286,-7.46999c-0.49266,-0.72728 -1.5149,-14.54086 -4.41235,-19.35985c-1.80277,-2.41048 -3.86163,-4.049 -6.09268,-6.03215c-1.9105,-1.69822 -3.71503,-4.06118 -6.19648,-5.01678c-10.19086,-3.92449 -11.43147,9.9339 -12.17994,19.14592c0.19001,0.27038 0.31657,0.4614 0.34215,0.52454c0.17833,0.44035 1.08639,6.12675 1.19306,6.7773l-0.08065,0.2062h0.08917v2.5c0,1.38071 -1.11929,2.5 -2.5,2.5c-1.07311,0 -1.98829,-0.67611 -2.34282,-1.62559l-0.97838,-2.44593l0.77318,-0.30927c-1.30001,-2.48823 -2.07307,-5.17588 -2.38409,-7.89501c-0.37252,-0.39799 -0.74709,-0.79529 -1.0679,-1.2242c-3.11694,-4.16724 -7.59387,-7.26291 -12.42848,-9.17881c-4.59091,-1.83637 -23.29275,-3.46736 -24.36939,-5.83639c-1.28669,-2.83123 3.12829,-7.28469 3.30367,-10.15517c0.47219,-7.72794 -3.81773,-20.51118 -13.55511,-18.37059c-7.18226,1.19292 -30.56065,13.57373 -33.38405,11.12593c-2.88007,-2.49694 2.01435,-23.00153 -11.01058,-31.54412c-1.12045,-0.85655 -5.31904,-3.73028 -6.92069,-2.81354c-5.19579,2.97394 -15.83417,39.94875 -22.05526,42.70445c-1.02344,0.45335 -13.24076,-10.82003 -16.05289,-11.97687c-3.85017,0.08567 -8.29249,-0.55795 -11.86696,1.25955c-6.06172,3.0822 -35.06851,42.269 -35.16027,17.78555c0.05245,-17.20191 -10.92075,-20.77696 -25.65048,-19.02455c-3.56099,0.42365 -10.78186,4.74152 -14.66662,4.33426c-0.16248,0.12966 -0.32523,0.25844 -0.48819,0.38635l-0.47075,-0.02419l0.06661,0.19984l-2.94464,0.98154c-0.2642,0.09499 -0.54902,0.14675 -0.84593,0.14675c-1.38071,0 -2.5,-1.11929 -2.5,-2.5c0,-1.0731 0.67611,-1.98829 1.62559,-2.34282l2.44593,-0.97838l0.05722,0.14305l0.26014,-0.08672c6.29615,-5.1885 12.68346,-11.86336 10.67233,-20.68536c-0.45716,-2.00538 -0.7433,-3.43166 -2.03172,-5.01125c-1.43144,-1.75494 -3.15722,-2.92113 -4.92926,-4.29899c-7.07423,-4.69387 -31.93826,-7.20581 -32.73646,-8.44088c-6.98201,-10.80343 5.39588,-23.30237 -13.50543,-29.38241c-4.48845,-1.00537 -9.27866,2.10331 -13.0016,4.34329c-19.18327,11.542 -12.31786,25.29765 -11.76689,42.04385l0.28187,-0.09395l0.98155,2.94464c0.09499,0.2642 0.14674,0.54903 0.14674,0.84593c0,1.38071 -1.11929,2.5 -2.5,2.5c-0.98561,0 -1.83801,-0.57036 -2.24514,-1.39903l-1.65544,-3.20229c-2.50807,-3.81565 -4.71325,-6.06444 -8.97564,-7.81158c-12.79262,-13.35656 -30.37656,17.46435 -42.05801,28.37153l-0.63872,1.27743l0.57295,0.76394l-1.9798,1.48485c-0.42123,0.32311 -0.94829,0.51515 -1.5202,0.51515c-1.38071,0 -2.5,-1.11929 -2.5,-2.5c0,-0.41989 0.10351,-0.81561 0.28642,-1.16302l1.47751,-2.95502l0.02971,0.01485l0.01485,-0.09984c1.61068,-1.07268 -17.43403,-14.12079 -20.83803,-16.78232c-5.92022,-4.62892 -18.08392,5.3847 -22.0837,-0.67892c-3.20074,-4.85229 4.11464,-11.41454 -5.673,-17.19201c-19.04854,-11.57596 -34.17793,15.5178 -43.6301,29.18973l0.23754,0.09501l-0.97837,2.44593c-0.35452,0.94948 -1.26971,1.62559 -2.34282,1.62559c-1.0731,0 -1.9883,-0.67611 -2.34282,-1.62559l-0.83385,-2.08463c-1.65184,-1.60742 -3.31888,-3.94575 -5.19956,-5.20268c-5.9935,-4.00566 -13.3662,-1.37179 -19.21976,1.24373c-1.66163,0.5392 -3.62812,0.02774 -5.17227,0.84467c-1.15967,0.61352 -0.93723,2.45096 -1.38428,3.68439c-1.93747,5.34557 -9.85181,24.11959 -8.89257,28.66734c1.05819,5.01688 4.003,8.71829 6.08817,12.98029l0.54165,0.54165l0.55902,-0.33541l1.47886,2.46477c0.2392,0.3834 0.37741,0.83629 0.37741,1.32147c0,1.38071 -1.11929,2.5 -2.5,2.5c-0.69035,0 -1.31536,-0.27983 -1.76777,-0.73224l-2.33572,-2.33573c-3.37746,-1.99447 -5.68142,-2.44421 -9.64285,-2.44421c-14.46689,-3.13155 -20.45222,29.98205 -22.20511,45.75211l0.80471,2.41413c0.09499,0.2642 0.14675,0.54902 0.14675,0.84593c0,1.38071 -1.11929,2.5 -2.5,2.5c-0.92661,0 -1.73548,-0.50412 -2.16731,-1.25305l-1.40663,-2.34439c-3.83875,-4.69325 -8.88123,-10.2301 -14.5997,-12.49503c-16.89975,-2.7763 -29.12853,12.82871 -38.32636,25.09247c0,0 -1.5,2 -3.5,0.5c-2,-1.5 -0.5,-3.5 -0.5,-3.5c10.69025,-14.25367 24.23811,-30.18066 43.67364,-26.90753c4.74417,1.90956 8.9233,5.2788 12.58709,9.05036c0.24386,-2.37579 0.86994,-4.80866 1.34014,-6.34578c3.75945,-12.28994 9.45619,-41.58377 27.14548,-38.28489c1.83008,0 3.42127,0.13661 4.9148,0.43941c-1.59404,-3.08355 -2.75651,-6.61568 -3.11603,-8.47881c-0.67865,-3.51691 9.38206,-35.44145 12.72315,-37.64827c1.65246,-1.09146 3.95606,-0.50823 5.82774,-1.15533c7.47112,-3.30364 16.32023,-5.72108 23.78024,-0.75627c1.80625,1.2021 3.55327,3.21719 5.16081,5.02213c1.07992,-4.50126 6.46133,-11.97285 7.97619,-13.95251c8.84992,-11.56534 27.54112,-24.07501 41.77301,-15.62625c6.46361,3.92946 10.42936,11.87429 7.32701,18.808c-0.87238,1.94975 4.05263,-1.35148 6.07806,-2.02985c2.93278,-0.98226 6.88853,-3.35721 10.10626,-2.00378c2.52597,1.06247 21.50635,15.41417 27.11228,20.65855c1.82214,-2.25802 4.04467,-4.62497 4.80956,-6.31332c5.05498,-11.1579 26.74278,-32.50963 39.65683,-20.06296c1.70063,0.66177 3.13322,1.47663 4.39966,2.43677c-0.40208,-4.60449 -0.05098,-9.68921 0.24453,-12.16855c0.54568,-4.57834 0.56406,-10.49529 2.71353,-14.73706c4.44126,-8.76438 20.11509,-18.17986 29.90772,-16.3603c19.53169,6.67118 11.77806,17.09323 16.49456,31.61759c0.47541,1.464 10.68577,-0.70216 11.47215,-0.69899c6.83827,0.0275 14.43823,4.08799 19.90653,7.67461c2.19302,1.71057 4.20869,3.07047 5.9556,5.28451c1.83365,2.32397 2.29564,4.1014 2.96829,6.98875c1.49665,6.4244 -0.39004,12.0015 -3.81415,16.80086c16.8758,-4.43722 36.32026,3.01293 36.37535,23.74892c-0.03895,8.8141 10.49198,-5.96216 12.94742,-9.42721c7.42927,-10.48398 17.59864,-14.71625 30.02535,-14.52768c4.01644,1.58274 7.46106,4.20425 10.69453,7.09207c1.46861,1.31162 3.07872,6.89242 3.25258,4.93106c0.403,-4.54624 17.69153,-40.60561 20.94475,-42.29555c3.70567,-1.92497 9.25071,1.09787 12.0793,3.18646c10.14672,6.85867 10.7772,16.73255 12.52018,27.61876c0.13551,0.84638 0.43194,2.12533 0.44232,3.15582c2.17838,-1.339 5.83317,-3.1279 7.57728,-4.01124c6.48176,-3.28283 12.84405,-5.97396 20.06559,-7.18154c17.60627,-3.27056 24.65465,28.33328 15.74856,31.47424c-2.10686,0.74304 4.46809,-0.01768 6.70214,-0.0152c5.5373,0.00617 9.83092,1.13979 14.92848,3.17881c4.41733,1.7811 8.53206,4.35766 11.88033,7.72034c2.62741,-14.71848 17.80357,-25.69544 34.26581,-3.79412c2.83518,4.73336 4.89402,10.09579 5.41321,15.64863c0.12649,1.35277 -1.76766,3.01254 -0.82556,3.99152c2.68857,2.79379 7.83653,2.51584 10.51714,7.53001c3.9332,7.35719 3.59155,16.70253 6.23487,24.71585c1.35617,4.20412 2.91199,8.27328 3.55985,12.65028l0.02586,2.35868c0,0 0,2.5 -2.5,2.5z" fill="#c9eeff" stroke-width="0.5"/><path d="M-800.95733,394.50392v-159c0,0 40.38441,10.07596 88.27216,20.8539c22.61242,5.08931 41.45863,14.99731 68.55075,15.47365c31.38422,0.55181 70.03292,-20.44624 102.33859,-28.59585c27.7573,-7.00221 51.13047,-4.50895 78.73417,-2.29027c62.17388,4.99731 102.19265,34.55858 138.42682,34.55858c36.7271,0 75.79936,-23.21163 114.12222,-33.54867c35.73313,-9.6385 72.0553,-2.45134 72.0553,-2.45134v155z" fill="#66ff00" stroke-width="0"/><path d="M494.95019,393.83726v-159c0,0 40.38441,10.07596 88.27216,20.8539c22.61242,5.08931 41.45863,14.99731 68.55075,15.47365c31.38422,0.55181 70.03292,-20.44624 102.33859,-28.59585c27.7573,-7.00221 51.13047,-4.50895 78.73417,-2.29027c62.17388,4.99731 102.19265,34.55858 138.42682,34.55858c36.7271,0 75.79936,-23.21163 114.12222,-33.54867c35.73313,-9.6385 72.0553,-2.45134 72.0553,-2.45134v155z" fill="#66ff00" stroke-width="0"/><path d="M472.65387,505.98418v-226h698v226z" fill="#66ff00" stroke-width="0"/><path d="M-158.44981,392.83726v-159c0,0 40.38441,10.07596 88.27216,20.8539c22.61242,5.08931 41.45863,14.99731 68.55075,15.47365c31.38422,0.55181 70.03292,-20.44624 102.33859,-28.59585c27.7573,-7.00221 51.13047,-4.50895 78.73417,-2.29027c62.17388,4.99731 102.19265,34.55858 138.42682,34.55858c36.7271,0 75.79936,-23.21163 114.12222,-33.54867c35.73313,-9.6385 72.0553,-2.45134 72.0553,-2.45134v155z" fill="#66ff00" stroke-width="0"/><path d="M-149.75232,236.96813c0,-2.5 2.5,-2.5 2.5,-2.5h0.5c7.70827,0 14.62822,2.42296 21.72481,5.32059c4.38226,3.28669 50.90869,11.59538 59.22589,13.22037c20.77091,3.5543 40.0867,15.55387 61.5493,15.45904c28.62361,0 43.3745,-5.73017 68.64011,-15.84746c20.84659,-6.92286 45.09631,-16.90475 67.35989,-17.15254c18.37434,0 41.6292,-2.60914 59.10263,3.07372c25.29198,4.14929 48.74021,11.703 72.49575,19.68049c17.50609,11.61117 37.64298,12.24579 57.90162,12.24579c14.58315,0.05416 29.69748,-4.13039 43.82636,-7.40753c3.78764,-0.87853 5.59422,-4.39616 11.22294,-5.55151c24.61791,-4.03871 46.26739,-23.36658 71.70436,-23.5288c15.74404,-3.2354 31.95521,2.1807 47.25605,-0.96362c0,0 2.45145,-0.49029 2.94174,1.96116c0.49029,2.45145 -1.96116,2.94174 -1.96116,2.94174c-15.56556,3.04273 -31.80504,-2.07933 -47.74395,1.03638c-25.08211,-0.17728 -46.96496,19.35869 -71.29564,23.4712c-5.27611,1.03166 -5.67845,3.91985 -10.77706,5.44849c-13.97346,4.18945 -30.5667,7.54649 -45.17364,7.59247c-20.84749,0 -42.12879,-0.71061 -60.09838,-12.75421c-23.44043,-7.75316 -46.5937,-15.10898 -71.50425,-19.31951c-16.80849,-5.75875 -40.14566,-2.92628 -57.89737,-2.92628c-21.25969,-0.32688 -45.78739,10.20617 -65.64011,16.84746c-25.70772,10.27028 -41.31243,16.15254 -70.35989,16.15254c-21.88502,-0.08202 -41.27291,-12.12076 -62.4507,-15.54096c-9.4303,-1.92139 -55.58566,-9.88829 -60.77411,-13.77963c-6.3472,-2.47192 -12.43117,-4.67941 -19.27519,-4.67941h-0.5c0,0 -2.5,0 -2.5,-2.5z" fill="#000000" stroke-width="0.5"/><path d="M-179.34614,506.98418v-226h698v226z" fill="#66ff00" stroke-width="0"/><path d="M492.64768,235.36813c0,-2.5 2.5,-2.5 2.5,-2.5h0.5c7.70827,0 14.62822,2.42296 21.72481,5.32059c4.38226,3.28669 50.90869,11.59538 59.22589,13.22037c20.77091,3.5543 40.0867,15.55387 61.5493,15.45904c28.62361,0 43.3745,-5.73017 68.64011,-15.84746c20.84659,-6.92286 45.09631,-16.90475 67.35989,-17.15254c18.37434,0 41.6292,-2.60914 59.10263,3.07372c25.29198,4.14929 48.74021,11.703 72.49575,19.68049c17.50609,11.61117 37.64298,12.24579 57.90162,12.24579c14.58315,0.05416 29.69748,-4.13039 43.82636,-7.40753c3.78764,-0.87853 5.59422,-4.39616 11.22294,-5.55151c24.61791,-4.03871 46.26739,-23.36658 71.70436,-23.5288c15.74404,-3.2354 31.95521,2.1807 47.25605,-0.96362c0,0 2.45145,-0.49029 2.94174,1.96116c0.49029,2.45145 -1.96116,2.94174 -1.96116,2.94174c-15.56556,3.04273 -31.80504,-2.07933 -47.74395,1.03638c-25.08211,-0.17728 -46.96496,19.35869 -71.29564,23.4712c-5.27611,1.03166 -5.67845,3.91985 -10.77706,5.44849c-13.97346,4.18945 -30.5667,7.54649 -45.17364,7.59247c-20.84749,0 -42.12879,-0.71061 -60.09838,-12.75421c-23.44043,-7.75316 -46.5937,-15.10898 -71.50425,-19.31951c-16.80849,-5.75875 -40.14566,-2.92628 -57.89737,-2.92628c-21.25969,-0.32688 -45.78739,10.20617 -65.64011,16.84746c-25.70772,10.27028 -41.31243,16.15254 -70.35989,16.15254c-21.88502,-0.08202 -41.27291,-12.12076 -62.4507,-15.54096c-9.4303,-1.92139 -55.58566,-9.88829 -60.77411,-13.77963c-6.3472,-2.47192 -12.43117,-4.67941 -19.27519,-4.67941h-0.5c0,0 -2.5,0 -2.5,-2.5z" fill="#000000" stroke-width="0.5"/><path d="M-792.25984,238.63479c0,-2.5 2.5,-2.5 2.5,-2.5h0.5c7.70827,0 14.62822,2.42296 21.72481,5.32059c4.38226,3.28669 50.90869,11.59538 59.22589,13.22037c20.77091,3.5543 40.0867,15.55387 61.5493,15.45904c28.62361,0 43.3745,-5.73017 68.64011,-15.84746c20.84659,-6.92286 45.09631,-16.90475 67.35989,-17.15254c18.37434,0 41.6292,-2.60914 59.10263,3.07372c25.29198,4.14929 48.74021,11.703 72.49575,19.68049c17.50609,11.61117 37.64298,12.24579 57.90162,12.24579c14.58315,0.05416 29.69748,-4.13039 43.82636,-7.40753c3.78764,-0.87853 5.59422,-4.39616 11.22294,-5.55151c24.61791,-4.03871 46.26739,-23.36658 71.70436,-23.5288c15.74404,-3.2354 31.95521,2.1807 47.25605,-0.96362c0,0 2.45145,-0.49029 2.94174,1.96116c0.49029,2.45145 -1.96116,2.94174 -1.96116,2.94174c-15.56556,3.04273 -31.80504,-2.07933 -47.74395,1.03638c-25.08211,-0.17728 -46.96496,19.35869 -71.29564,23.4712c-5.27611,1.03166 -5.67845,3.91985 -10.77706,5.44849c-13.97346,4.18945 -30.5667,7.54649 -45.17364,7.59247c-20.84749,0 -42.12879,-0.71061 -60.09838,-12.75421c-23.44043,-7.75316 -46.5937,-15.10898 -71.50425,-19.31951c-16.80849,-5.75875 -40.14566,-2.92628 -57.89737,-2.92628c-21.25969,-0.32688 -45.78739,10.20617 -65.64011,16.84746c-25.70772,10.27028 -41.31243,16.15254 -70.35989,16.15254c-21.88502,-0.08202 -41.27291,-12.12076 -62.4507,-15.54096c-9.4303,-1.92139 -55.58566,-9.88829 -60.77411,-13.77963c-6.3472,-2.47192 -12.43117,-4.67941 -19.27519,-4.67941h-0.5c0,0 -2.5,0 -2.5,-2.5z" fill="#000000" stroke-width="0.5"/><path d="M-821.85366,508.65084v-226h698v226z" fill="#66ff00" stroke-width="0"/></g></g></svg>