<svg version="1.1" xmlns="http://www.w3.org/2000/svg" xmlns:xlink="http://www.w3.org/1999/xlink" width="145.58502" height="187.39175" viewBox="0,0,145.58502,187.39175"><g transform="translate(-167.33251,-86.14324)"><g data-paper-data="{&quot;isPaintingLayer&quot;:true}" fill-rule="nonzero" stroke="none" stroke-width="0.5" stroke-linecap="butt" stroke-linejoin="miter" stroke-miterlimit="10" stroke-dasharray="" stroke-dashoffset="0" style="mix-blend-mode: normal"><g data-paper-data="{&quot;index&quot;:null}"><path d="M267.11938,250.448c0.81238,0.2286 1.21418,1.18057 1.89615,1.67772c0.52166,0.38028 1.29154,0.43419 1.69367,0.93918c3.24531,4.07534 0.31441,14.69368 -5.82473,14.25874c-0.55474,-0.0393 -4.33564,-3.93915 -4.50453,-4.12328c-0.39881,-0.43482 -0.79309,-0.87547 -1.18107,-1.32233c-0.01583,1.10338 -0.27581,2.41294 -0.49637,3.21457c-1.09288,3.97224 -2.73338,6.92752 -6.91918,8.022c-1.60954,0.42086 -3.40943,0.77586 -4.9357,-0.23461c-4.05131,-2.68215 -7.43213,-8.31763 -9.30849,-12.66858c0,0 -0.0151,-0.03524 -0.0351,-0.09706c-0.28206,-0.28499 -0.45625,-0.67695 -0.45625,-1.10961c0,-0.18734 0.03266,-0.36706 0.0926,-0.53375l0.70005,-2.10012c0.859,-3.53735 0.73122,-6.70322 0.30906,-10.28307c-0.32531,-2.75872 -0.32579,-5.56918 -0.72111,-8.31787c-0.8853,-6.15553 -3.35181,-12.09788 -4.01224,-18.278c-0.20379,-1.90708 -0.08548,-3.98171 -0.0301,-5.95934c-0.75939,-4.18682 -0.30239,-8.32742 -0.69851,-12.60615c-0.26987,-2.91498 -0.48703,-5.83059 -0.72901,-8.74955c-0.0958,-1.15555 -0.20696,-2.37229 -0.36257,-3.58421c-3.40387,3.4397 -5.92822,7.4906 -8.78979,11.30697c-2.26027,3.01444 -5.05976,5.81915 -7.72785,8.47867c-1.09625,1.46517 -2.37042,3.13962 -2.96023,4.89385c-0.28532,0.84862 -0.90996,2.23753 -0.13312,2.68257c0.42243,0.242 1.01465,-0.073 1.45412,0.13648c1.45961,0.69576 2.75066,1.97092 3.07419,3.62424c0.65523,3.34851 -0.44846,4.67226 -2.68451,6.64732c-0.91213,0.80566 -2.43488,2.78218 -3.73712,2.91876c-0.98426,0.10322 -1.95418,-0.44924 -2.82004,-0.92851c-2.35655,-1.30437 -3.07902,-3.05815 -3.26967,-5.30312c-1.00883,2.04924 -2.48288,3.82118 -4.44524,3.69225c-0.92129,-0.06053 -1.61658,-0.90616 -2.34708,-1.47079c-2.37668,-1.83706 -3.77185,-3.55054 -3.81752,-6.69247c-0.03175,-2.18428 2.25222,-7.3078 4.4489,-8.02998c0.92324,-0.30352 1.91508,0.40227 2.80698,0.78831c0.30091,0.13023 0.34829,0.76612 0.67259,0.71776c0.26765,-0.03992 -0.16506,-0.56345 -0.05365,-0.81007c0.22264,-0.49282 0.77861,-0.78491 0.99754,-1.27937c0.66831,-1.50947 1.03849,-3.14601 1.77527,-4.62326c2.68782,-10.90054 7.9753,-22.56416 16.87979,-29.80026c2.03454,-1.65335 4.77195,-2.54232 7.24668,-3.36097c-1.06544,-0.50279 -2.11427,-1.0429 -3.10955,-1.69756c-4.28223,-2.81666 -7.01532,-6.45397 -8.62553,-11.28462c-1.43858,-2.86497 -2.68441,-5.76332 -3.98346,-8.68872c-0.41357,-0.93134 -1.73863,-3.26087 -1.91525,-3.92182c-0.3186,-1.19222 0.23913,-2.49426 -0.01373,-3.70214c-0.17795,-0.85002 -0.43949,-1.68633 -0.63681,-2.534c-3.38594,1.5938 -7.13827,2.30001 -10.97045,1.98395c-3.40756,-0.28104 -6.67892,-2.47408 -9.19842,-4.54321c-6.66933,-5.47716 -12.89894,-11.81199 -16.31394,-19.8543c-3.19978,-7.55747 -5.93847,-15.18668 -6.06458,-23.54384c-0.03379,-2.23844 0.34906,-6.56605 2.91801,-7.78819c2.75768,-1.31192 6.93028,0.49304 9.47014,1.33077c7.03088,2.31899 14.37145,3.57064 21.23622,6.39691c1.9443,0.80206 3.88857,1.60414 5.83286,2.4062c1.59082,0.65624 3.42888,0.91422 4.75469,2.01132c2.68658,2.2231 4.67867,5.87826 5.65936,9.15084c0.68106,2.27267 0.68962,4.62606 1.45317,6.90606c0.00511,0.01522 0.01022,0.03047 0.01541,0.04575c0.28413,-5.6156 0.59248,-11.17269 2.41114,-16.66787l0.3437,-1.7185c0.13242,-0.73727 0.77715,-1.29672 1.55253,-1.29672c0.50358,0 0.95206,0.23599 1.24087,0.6034l1.14776,1.4347c2.1326,1.5215 4.32285,3.16149 5.77397,5.12605c0.04212,0.05702 2.84569,4.93274 3.05086,5.31064c0.46964,0.86504 1.43977,2.86133 1.61339,3.72024c0.45378,2.2448 0.2786,5.92412 -0.42072,8.08629c-0.2909,0.89945 -0.66959,1.81736 -0.64223,2.76229v2.18281c0,0 0,0.54812 -0.3231,0.99815c0.78518,-0.01956 1.57825,-0.02895 2.38371,-0.02895c0.36266,0 6.41067,-0.00837 6.60252,0.02741c4.5725,0.85287 9.76465,4.77182 12.92218,7.94653c4.75679,2.85406 7.03985,7.33758 9.31054,12.21675c1.36081,2.92404 2.60655,5.83317 2.20251,9.19116c-0.23613,1.96249 -0.57866,3.92714 -1.16912,5.81354c-0.14678,0.46896 -0.57924,0.82568 -0.68442,1.30571c-0.12522,0.57142 0.13597,1.18283 0.01373,1.7549c-0.26114,1.22216 -1.37095,3.34078 -2.12463,4.31048c-2.15064,2.76706 -5.5584,4.14057 -8.42485,6.04112c0.00785,0.0447 0.01346,0.08528 0.0175,0.1205c2.44683,-1.06013 4.66643,-1.47826 7.52782,-1.43375c1.24052,0.01931 2.52959,-0.24284 3.72055,0.10493c0.75786,0.22129 1.29538,0.92516 1.82188,1.51346c1.43521,1.60363 2.65173,3.3922 3.89851,5.14636c1.87042,2.63155 3.25839,5.50049 4.86852,8.27455c1.36988,2.36014 3.16724,4.47752 4.51809,6.84813c1.51262,2.65451 2.69883,5.49657 4.64699,7.87594c2.18616,3.49288 4.98193,6.67452 6.69688,10.44106c0.67487,1.48225 1.59501,2.85214 2.18493,4.37019c0.19043,0.49006 -0.1459,1.1817 0.21684,1.56229c0.24039,0.25222 0.67543,-0.17284 1.00781,-0.27738c1.43819,-0.45231 2.61522,-1.52226 4.01465,-2.08312c2.52795,-1.01311 4.6785,0.08671 6.66764,1.66923c2.78961,2.21934 7.13993,6.75711 5.14945,10.71892c-0.64049,1.2748 -2.69669,2.52297 -3.80236,3.29878c-1.93364,0.0514 -5.86848,0.66248 -7.64095,-0.60669c-2.40187,-1.71983 -0.75684,-5.46284 -4.36945,-5.13859c-0.5597,0.05024 -1.15962,-0.00349 -1.6698,0.23211c-0.55844,0.25789 -0.94755,0.78482 -1.41013,1.19024c-0.47029,0.41219 -2.13645,2.01971 -1.25365,2.96037c0.37631,0.401 1.21081,0.26319 1.47048,0.74794c0.5212,0.97297 0.73002,2.14134 0.66753,3.24335c-0.22507,3.96893 -4.2416,5.80324 -7.75585,5.04986c-0.61465,-0.13177 -3.24829,-1.66434 -3.7088,-1.92236c-1.08944,-2.43729 -2.23653,-4.6406 -1.86415,-7.40816c0.12302,-0.91438 0.0996,-1.99022 0.72083,-2.67234c0.70979,-0.77936 1.85023,-1.10191 2.88751,-1.28967c0.43621,-0.07897 0.77418,0.61766 1.21191,0.54762c0.24149,-0.03863 -0.06081,-0.48594 -0.07002,-0.73033c-0.02364,-0.62779 -0.02364,-1.25629 -0.02846,-1.88451c-0.00839,-1.09193 0.25762,-2.20511 0.0422,-3.27561c-0.26754,-1.32942 -1.80687,-2.79181 -2.42227,-4.0226c-1.25268,-2.50537 -2.83408,-5.5247 -4.56187,-7.73834c-1.36511,-1.74897 -3.02039,-3.30008 -4.36929,-5.09795c-1.63786,-2.06046 -3.88578,-3.42953 -5.48658,-5.49642c-0.29483,-0.38067 -0.26617,-0.97143 -0.60845,-1.3101c-0.47007,-0.46509 -1.22686,-0.54912 -1.71809,-0.9918c-0.93155,-0.83951 -1.29647,-2.1513 -2.04221,-3.15948c-2.15975,-2.9197 -5.40884,-4.56038 -8.45923,-6.32031c0.00473,0.17129 0.01433,0.34234 0.03075,0.51311c0.20684,2.15041 1.11145,4.17681 1.42069,6.34148c1.08112,3.21617 2.08559,6.52135 2.90821,9.81342c0.28943,1.15824 0.31155,2.3825 0.69214,3.51408c0.5485,1.63077 1.38245,3.16329 1.84605,4.82018c0.36998,1.32229 0.8274,4.05537 0.18106,5.23601c-0.33754,0.61657 -0.90245,1.02473 -1.58327,1.2946c0.02658,6.48439 1.54559,12.71419 2.52792,19.09924c0.52842,3.43473 1.40257,6.7683 -0.12787,9.99999c-0.66674,1.55129 -0.93941,2.36685 -1.56196,3.43194c1.13884,-0.23234 3.95953,-0.8311 4.61418,-0.64689zM262.70955,261.07293c0.69502,0.75715 1.50282,1.4072 2.1814,2.17912c0.25057,0.28503 0.21286,0.93238 0.59011,0.97366c0.4893,0.05355 0.91751,-0.41699 1.25924,-0.77128c1.51667,-1.57238 1.76203,-3.36825 1.96365,-5.44973c0.03765,-0.38876 0.19699,-2.28731 -0.31636,-2.80364c-0.31061,-0.31241 -0.87002,-0.24425 -1.21674,-0.51601c-0.41879,-0.32826 -0.51003,-1.06274 -1.01427,-1.2327c-1.04322,-0.35163 -2.13161,0.5562 -3.21108,0.77222l-1.40076,0.03063c0,0 -0.58004,0 -1.03665,-0.35173c-0.56249,0.68526 -1.23651,1.42968 -1.94822,2.04856c1.24797,1.80924 2.66997,3.50893 4.14968,5.12091zM249.48482,255.13282c1.237,0.25165 2.38535,0.86148 3.62697,1.08924c0.37472,0.06874 0.766,0.02205 1.15427,-0.01566c-0.65618,-1.2497 -1.04694,-3.2799 -1.1906,-4.22505c-0.30917,-2.03383 -0.17935,-4.12073 -0.01732,-6.17153c0.37339,-4.72557 0.23122,-9.83937 -0.69826,-14.4998c-0.05544,-0.27796 -0.11544,-0.55505 -0.17904,-0.83145c-0.11193,0.54641 -0.24038,1.09282 -0.38774,1.63957c-0.4945,1.83459 -0.92922,3.68587 -1.46931,5.50754c-0.47127,1.58958 -1.27984,3.12026 -1.3953,4.77421c-0.18216,2.60943 -0.25365,5.64302 0.31919,8.20718c0.17494,0.78307 0.83036,1.47799 0.77624,2.27854c-0.05293,0.78293 -0.45962,1.52185 -0.9233,2.17034c0.12807,0.02562 0.25614,0.05122 0.38421,0.07684zM248.45452,270.16505c0.98932,0.80187 3.12886,-0.28873 4.02179,-0.71027c2.72833,-1.28798 4.65327,-6.90446 2.76411,-9.58163c-0.83031,-1.17665 -1.30275,-0.29691 -2.72526,-0.55317c-1.24968,-0.22514 -2.40298,-0.84936 -3.64908,-1.09358c-0.60634,-0.12126 -1.21268,-0.24253 -1.81901,-0.36381l-0.59602,-0.40514c-1.40848,0.84764 -3.05047,1.41278 -4.68909,1.83293l0.03122,0.07282l-0.99153,0.42494c1.73474,3.77367 4.46414,7.79233 7.65288,10.37691zM236.56457,212.07419c0,0.40944 -0.00797,0.827 -0.01969,1.24973c1.98132,0.42926 3.93189,0.76351 5.91329,1.19496c2.28006,0.49648 4.8179,2.00772 7.19559,2.1667c0.67161,0.04491 5.44153,-0.69331 5.96373,-0.72817c1.02524,-0.06846 2.05711,0.07193 3.08255,0.00656c0.41622,-0.02654 0.80949,-0.20323 1.21929,-0.28081c0.21335,-0.04039 0.57931,0.13358 0.64738,-0.07262c0.12742,-0.38603 -0.14916,-0.79926 -0.22792,-1.19808c-0.43689,-2.21235 -1.41637,-4.1094 -2.1106,-6.20826c-1.46143,-4.41833 -2.20271,-9.14021 -3.67571,-13.5939c-0.3305,-2.31349 -1.25182,-4.44682 -1.48973,-6.75543c-0.17509,-1.69897 0.13364,-2.04651 -0.00371,-3.68165c-0.24067,-2.86524 -0.72804,-5.4556 -0.73158,-8.35991v-0.47986c-0.5845,0.21004 -1.16658,0.43581 -1.7782,0.70806c-0.4825,0.21478 -2.84542,1.47308 -3.19422,1.55144c-2.04376,0.45918 -6.34058,0.41667 -8.36469,0c-2.29753,-0.47296 -4.58791,-2.39871 -6.59504,-3.4343c-0.08313,-0.0429 -0.16647,-0.08539 -0.24999,-0.12749c-0.03399,0.94665 -0.05494,1.89262 0.04482,2.83232c0.34588,3.25806 1.7091,6.28988 2.17511,9.51698c1.17074,8.10737 1.68334,16.40666 1.80943,24.60971c0.38988,0.46275 0.38989,1.084 0.38989,1.084zM236.5582,219.20857c0.32419,3.04065 1.34539,6.05788 2.01113,9.03453c0.66939,2.99302 1.54207,6.0302 1.98029,9.06774c0.40136,2.78203 0.40601,5.62498 0.7341,8.41706c0.43875,3.73364 0.51829,7.04829 -0.22828,10.68673c1.26623,-0.91652 2.83282,-1.33242 4.29853,-2.33564c0.55412,-0.37927 1.62986,-0.66239 1.51783,-1.32446c-0.08451,-0.49943 -0.56139,-0.86679 -0.67898,-1.35948c-0.68191,-2.8572 -0.64033,-6.33588 -0.40842,-9.25535c0.28854,-3.63241 2.00288,-7.30441 2.95624,-10.81879c0.86354,-3.18329 1.01083,-6.34859 1.0354,-9.58576c-0.02902,-0.22778 -0.032,-0.45603 0.00357,-0.68501c0.00101,-0.32329 0.00124,-0.64737 0.00124,-0.9723v-0.23448c-0.12595,0.00007 -0.24503,-0.00353 -0.35611,-0.01126c-2.67093,-0.18594 -5.06442,-1.67735 -7.63386,-2.22974c-2.07475,-0.44606 -3.65157,-0.7117 -5.33562,-1.25552c-0.01352,0.97364 0.00452,1.93878 0.10294,2.86176zM252.93569,220.80545h-0.00092c-0.00012,0.04181 -0.00025,0.08361 -0.00039,0.12538c1.62983,4.74179 2.95636,9.9037 3.27094,14.67025c0.29209,4.42577 -0.34534,8.83434 -0.35921,13.21717c-0.00387,1.22298 0.44274,2.40966 0.61259,3.62053c0.11395,0.22582 0.23118,0.44999 0.35154,0.67255c0.31972,-0.34112 0.70247,-0.62803 1.01251,-0.97947c1.59789,-1.81127 2.43735,-3.58456 3.3824,-5.79632c1.31411,-2.43251 0.27639,-5.56238 -0.12787,-8.19014c-0.98219,-6.38435 -2.42467,-12.60427 -2.55572,-19.07123c-1.04659,0.03093 -2.03012,-0.01318 -2.69125,0.0309c-0.742,0.04948 -1.80614,0.22678 -2.89461,0.39521zM257.22038,183.56257l-0.32111,0.2376c1.48627,0.8929 3.45855,1.5929 4.84019,2.61958c1.3582,1.00926 2.52944,2.24853 3.77941,3.38909c1.41991,1.29564 1.8902,3.19532 3.26698,4.35905c0.57518,0.48616 1.38977,0.65612 1.91994,1.19101c0.42486,0.42863 0.48139,1.11998 0.84677,1.60032c1.53998,2.02455 3.80613,3.4021 5.4275,5.41765c1.34621,1.79563 3.00341,3.33651 4.36197,5.08853c2.25393,2.90669 3.61484,6.51003 5.55555,9.60033c0.84256,1.34166 1.62043,1.7074 2.01239,3.3773c0.30104,1.28256 0.36418,5.26613 0.01373,6.48157c-0.3032,1.05165 -0.62452,2.28592 -1.52524,2.9077c-0.87142,0.60157 -2.58759,-0.89437 -3.17665,-0.01444c-0.17908,0.2675 -0.00448,0.64379 -0.00677,0.96569c-0.0133,1.8717 0.49116,3.19791 1.04626,4.96112c1.68039,0.64672 2.85973,1.42735 4.7438,0.71945c0.87809,-0.32991 1.8945,-2.22547 1.19401,-3.07985c-0.33904,-0.41352 -1.16123,-0.25089 -1.43994,-0.70728c-0.49694,-0.81372 -0.66314,-1.82335 -0.68764,-2.7765c-0.06718,-2.61499 2.29842,-5.14655 4.57232,-6.1698c2.03658,-0.91646 5.49247,-0.93519 7.21558,0.68876c0.541,0.50986 1.51525,3.02163 1.77879,3.74343c0.10093,0.27642 0.00604,0.67763 0.2461,0.84783c0.69359,0.49174 3.97033,0.09095 4.72834,0.12093c0.70065,-0.59873 2.4614,-1.50853 2.20957,-2.65978c-0.50128,-2.29181 -2.74821,-4.46698 -4.50054,-5.8783c-0.75959,-0.61176 -1.54851,-1.35296 -2.51284,-1.49889c-0.94885,-0.14356 -2.8434,1.54868 -3.09942,1.67257c-1.41461,0.68457 -4.47938,1.59677 -5.98101,0.59025c-0.84857,-0.56878 -0.77841,-1.8912 -1.23838,-2.80334c-0.7318,-1.45122 -1.50911,-2.88102 -2.1807,-4.36107c-1.62511,-3.58139 -4.32591,-6.60846 -6.40004,-9.93188c-2.00502,-2.46801 -3.2523,-5.38454 -4.81187,-8.13139c-2.35397,-4.14596 -5.05751,-8.24257 -7.59688,-12.27928c-1.09411,-1.73924 -2.33575,-3.38267 -3.57413,-5.02232c-0.60304,-0.79844 -1.13736,-1.64715 -1.73765,-2.44767c-0.17973,-0.23968 -0.30473,-0.61714 -0.5997,-0.66936c-3.33036,-0.58947 -6.94026,0.28064 -9.88735,1.75741c0,0 -0.06115,0.03058 -0.16434,0.06626c0.10488,1.6775 0.33931,3.27939 0.52484,4.95127c0.85203,0.15807 1.15815,1.07643 1.15815,1.07643zM222.86102,178.02867c-8.45834,6.97655 -13.23352,18.02163 -15.86245,28.40815c-1.14025,2.27471 -1.58754,4.44387 -3.04802,6.46666c-0.50463,0.6989 -0.68421,1.84916 -1.50885,2.10037c-0.97438,0.29682 -2.01011,-0.38407 -2.96544,-0.73746c-0.33312,-0.12322 -0.49588,-0.78448 -0.83104,-0.6669c-0.39636,0.13905 -0.34737,0.76495 -0.52863,1.14387c-0.41403,0.86553 -0.97151,1.6678 -1.29188,2.57219c-1.01203,2.85688 0.73711,3.72104 2.45192,5.57245c0.20565,0.22204 0.29206,0.57789 0.56335,0.71204c0.60161,0.29746 0.71051,-1.14027 1.02218,-1.73464c0.83158,-1.58587 1.36809,-2.7713 1.7305,-4.53917l0.19741,-0.19551l-0.07876,-0.04726l1.07654,-1.79422c0.27247,-0.47256 0.78283,-0.79063 1.3675,-0.79063c0.77538,0 1.4201,0.55945 1.55252,1.29672l0.35807,1.79036l-0.02715,0.00544c0.01738,0.04923 0.03408,0.09871 0.05011,0.14849c0.5093,1.58159 -0.24884,3.71159 -0.01268,5.3598c0.13367,0.93291 1.34292,3.22208 2.60174,3.0545c0.31561,-0.04201 0.40821,-0.48938 0.62852,-0.71928c0.47462,-0.49529 0.93654,-1.00623 1.45522,-1.45521c0.67798,-0.58689 1.52946,-0.72912 1.68112,-1.71738c0.19973,-1.30137 0.09597,-2.72476 -1.29144,-3.29079c-0.69829,-0.28487 -1.64802,-0.06048 -2.18391,-0.59113c-3.58651,-3.55149 0.50115,-9.1062 2.7275,-12.06891c2.59464,-2.60232 5.34867,-5.31953 7.55186,-8.25626c3.00463,-4.00502 5.66661,-8.23656 9.25932,-11.83475l1.40578,-1.40578c-0.00076,-0.00299 -0.0015,-0.00601 -0.00226,-0.00901c-0.63543,-2.52255 -1.57944,-4.9897 -1.85674,-7.60941c-0.00474,-0.04469 -0.00697,-0.94219 -0.00802,-1.98496c-2.09642,0.68089 -4.49185,1.42201 -6.18384,2.8176zM231.59071,124.39775v-2.18282c0.04074,-2.10601 0.92128,-3.25227 1.09908,-5.24867c0.25493,-2.86222 0.10016,-5.30812 -1.27624,-7.83152c-0.89508,-1.641 -1.67046,-3.36419 -2.76999,-4.87584c-1.25806,-1.72956 -3.76454,-2.64672 -4.81191,-4.30883c-2.27574,7.5538 -1.74208,15.25395 -2.54354,23.04081c0.01421,0.27312 0.01232,0.54168 -0.00824,0.80444c-0.04477,0.57194 -0.18181,1.08917 -0.39101,1.55925c-0.10422,0.47042 -0.21661,0.93963 -0.32559,1.40948c1.493,-0.42046 2.66099,-0.32564 4.58776,-0.60094c2.32731,-0.33254 4.56867,-0.54971 6.83755,-0.67195c-0.39789,-0.4637 -0.39789,-1.09342 -0.39789,-1.09342zM210.12636,132.76522l0.03062,-0.67316c0.38932,-1.84201 0.40257,-3.08745 1.97925,-4.5296c1.06496,-0.9741 4.65176,-1.3885 5.70583,-2.99247c0.10564,-0.4972 0.19813,-0.99637 0.26263,-1.49992c-0.23728,-2.41192 -1.71045,-5.06902 -2.44196,-7.27337c-1.69216,-5.09906 -1.54464,-10.65555 -5.98437,-14.50252c-1.1098,-0.96162 -2.73234,-1.07726 -4.08982,-1.63727c-1.9443,-0.80206 -3.88857,-1.60414 -5.83287,-2.4062c-6.78659,-2.8055 -14.07108,-4.01344 -21.02353,-6.31798c-1.84122,-0.61032 -3.73219,-1.1532 -5.66296,-1.33943c-0.46966,-0.04531 -0.96254,-0.32638 -1.40589,-0.16492c-0.74483,0.27126 -0.86694,1.37342 -1.00953,2.15319c-0.373,2.03968 -0.10591,3.67679 0.16388,5.7108c0.39817,3.00198 0.69612,6.2465 1.4035,9.19008c0.84342,3.50956 2.68504,6.9243 4.08301,10.22614c3.20605,7.59591 9.16972,13.45759 15.41801,18.65208c2.01545,1.67554 4.77503,3.64753 7.54656,3.84095c3.73469,0.26064 7.33859,-0.54927 10.51213,-2.34217c0.00768,-0.03028 0.01561,-0.06062 0.02384,-0.09101c0.31248,-1.15301 0.93168,-1.86705 1.66923,-2.43775c-1.34762,-0.14523 -1.34762,-1.56547 -1.34762,-1.56547zM213.74164,138.02898c-0.34361,0.25714 -0.69335,0.50365 -1.04877,0.73938c0.15814,1.32359 0.79443,2.84833 0.92368,3.52122c0.22472,1.16993 -0.33555,2.42689 -0.01372,3.57391c0.33956,1.21019 1.21193,2.2058 1.72276,3.35423c1.31345,2.95284 2.57714,5.87648 4.0202,8.77381c1.9905,5.9715 6.01895,9.438 11.59479,12.20749c0.96574,0.47967 2.04228,0.71458 3.0004,1.20932c1.72791,0.89225 3.79684,2.73581 5.77424,3.11414c1.69711,0.3247 5.2192,0.37041 6.91503,0c0.96308,-0.21035 1.72561,-0.95907 2.62663,-1.35897c1.64699,-0.73098 2.2001,-0.85938 3.91594,-1.41347c2.59347,-1.98761 6.15729,-3.10863 8.22002,-5.75817c1.40157,-1.80029 1.07376,-2.83312 1.52713,-4.8487c0.13023,-0.57895 0.59214,-1.03883 0.77078,-1.60472c0.52183,-1.65303 0.78573,-3.38217 1.01369,-5.10054c0.36754,-2.77027 -0.80354,-5.15672 -1.91913,-7.54028c-2.09259,-4.47099 -4.03791,-8.45526 -8.39596,-11.07009c-2.81381,-2.79932 -7.46791,-6.59439 -11.56631,-7.33318c-1.97383,-0.35582 -4.01122,0.02743 -6.01685,0.02743c-3.84978,0 -7.38141,0.21756 -11.17072,0.75878c-2.96249,0.42311 -5.25647,0.90604 -7.28854,2.32088c0.26888,0.8482 -0.43448,1.55154 -0.43448,1.55154l-0.21728,0.19485c-0.43229,0.56005 -0.76417,1.21458 -1.29689,1.68014c-0.60526,0.52894 -1.39748,0.78792 -2.13697,1.12468c0.52567,1.0923 -0.51966,1.87628 -0.51966,1.87628zM215.62421,129.47477c-0.46447,0.20514 -1.04672,0.1714 -1.44247,0.48955c-0.52425,0.42145 -0.71272,1.36984 -0.83074,2.11586c0.78673,-0.98633 1.67971,-1.94401 2.66728,-2.78142c-0.13243,0.05994 -0.26397,0.11854 -0.3941,0.17603z" fill="#000000"/><path d="M240.77397,259.77297l0.99328,-0.42777l-0.03112,-0.07295c1.63862,-0.42015 3.29737,-0.99735 4.70585,-1.84499l0.59825,0.40456c0.60634,0.12126 1.22207,0.24188 1.82841,0.36316c1.2461,0.24423 2.41777,0.8763 3.66747,1.10143c1.42251,0.25626 1.90109,-0.61604 2.7314,0.56061c1.88916,2.67717 -0.04408,8.33515 -2.77241,9.62313c-0.89294,0.42154 -3.051,1.51834 -4.04032,0.71647c-3.18875,-2.58459 -5.94609,-6.64996 -7.68084,-10.42363z" data-paper-data="{&quot;noHover&quot;:false,&quot;origItem&quot;:[&quot;Path&quot;,{&quot;applyMatrix&quot;:true,&quot;segments&quot;:[[[256.44307,359.41781],[-5.05373,-4.09622],[1.56793,1.27086]],[[262.81709,358.29213],[-1.41519,0.66808],[4.32404,-2.04129]],[[267.19782,343.10653],[2.99407,4.24296],[-1.31593,-1.86483]],[[262.87865,342.22982],[2.25449,0.40615],[-1.98059,-0.35681]],[[257.09535,340.49665],[1.9749,0.38706],[-0.96096,-0.19219]],[[254.21245,339.92007],[0.96096,0.19219],[0,0]],[[253.26783,339.27798],[0,0],[-2.23225,1.3434]],[[245.83625,342.18291],[2.59699,-0.66588],[0,0]],[245.88571,342.29833],[[244.31427,342.9718],[0,0],[2.74932,5.98077]]],&quot;closed&quot;:true}]}" fill="#9a3b00"/><path d="M258.53231,255.93664c0.71171,-0.61888 1.39621,-1.37444 1.95871,-2.0597c0.45661,0.35173 1.04042,0.34965 1.04042,0.34965l1.40921,-0.0332c1.07947,-0.21601 2.18607,-1.12125 3.22928,-0.76964c0.50425,0.16996 0.6026,0.90903 1.0214,1.2373c0.34674,0.27178 0.91076,0.2085 1.22137,0.52091c0.51335,0.51635 0.36007,2.42906 0.32242,2.81784c-0.20162,2.08148 -0.46072,3.90857 -1.97738,5.48096c-0.34172,0.35428 -0.77731,0.82842 -1.26662,0.77488c-0.37725,-0.04128 -0.34117,-0.68813 -0.59174,-0.97316c-0.67858,-0.77193 -1.50696,-1.42326 -2.202,-2.18041c-1.47971,-1.61199 -2.91709,-3.35618 -4.16506,-5.16541z" data-paper-data="{&quot;noHover&quot;:false,&quot;origItem&quot;:[&quot;Path&quot;,{&quot;applyMatrix&quot;:true,&quot;segments&quot;:[[[279.03535,345.00802],[-2.34515,-2.55479],[1.10152,1.19999]],[[282.4926,348.46164],[-1.07546,-1.2234],[0.39711,0.45174]],[[283.42785,350.00476],[-0.5979,-0.06543],[0.77548,0.08487]],[[285.42358,348.78241],[-0.54158,0.56148],[2.40372,-2.49201]],[[288.53569,340.14531],[-0.31953,3.29888],[0.05968,-0.61614]],[[288.03431,335.70192],[0.81359,0.81833],[-0.49228,-0.49514]],[[286.10593,334.8841],[0.54952,0.43073],[-0.66373,-0.52025]],[[284.49845,332.93042],[0.79916,0.26936],[-1.65335,-0.55728]],[[279.40932,334.15429],[1.71082,-0.34236],[0,0]],[277.1893,334.20284],[[275.54634,333.64539],[0.72367,0.55745],[-0.89148,1.08605]],[[272.45866,336.89207],[1.12797,-0.98084],[1.97787,2.8674]]],&quot;closed&quot;:true}]}" fill="#9a3b00"/><path d="M252.92751,219.46981c1.08847,-0.16843 2.15791,-0.3467 2.89991,-0.39616c0.66111,-0.04408 1.64964,-0.00003 2.69623,-0.03096c0.13106,6.46698 1.599,12.7337 2.5812,19.11805c0.40427,2.62778 1.42543,5.77185 0.11132,8.20436c-0.94507,2.21178 -1.79468,3.98704 -3.39257,5.79829c-0.31004,0.35145 -0.69472,0.63834 -1.01443,0.97946c-0.12035,-0.22256 -0.23831,-0.44677 -0.35225,-0.67258c-0.16983,-1.21087 -0.61847,-2.39771 -0.6146,-3.62072c0.01387,-4.38283 0.62595,-8.8348 0.33387,-13.26058c-0.31458,-4.76655 -1.62086,-9.94664 -3.25069,-14.68843c0.00015,-0.04179 0.00033,-0.08359 0.00045,-0.12541h0.00092z" data-paper-data="{&quot;noHover&quot;:false,&quot;origItem&quot;:[&quot;Path&quot;,{&quot;applyMatrix&quot;:true,&quot;segments&quot;:[[263.54511,281.18948],[[263.54365,281.18948],[0,0],[-0.00019,0.06626]],[[263.54302,281.3882],[0.00023,-0.06622],[2.58307,7.51511]],[[268.72703,304.63856],[-0.49857,-7.55435],[0.46293,7.01426]],[[268.15773,325.58601],[0.02199,-6.94621],[-0.00614,1.93827]],[[269.1286,331.32407],[-0.26917,-1.91907],[0.18059,0.35789]],[[269.68574,332.38996],[-0.19074,-0.35273],[0.50671,-0.54063]],[[271.29043,330.83764],[-0.49137,0.55698],[2.53245,-2.87063]],[[276.65109,321.65125],[-1.4978,3.50536],[2.08269,-3.85522]],[[276.44844,308.67096],[0.64071,4.16466],[-1.55665,-10.11835]],[[272.39794,278.44562],[0.20771,10.24928],[-1.65871,0.04901]],[[268.13268,278.49458],[1.04778,-0.06986],[-1.17597,0.07841]],[[263.54511,279.12095],[1.72509,-0.26696],[0,0]]],&quot;closed&quot;:true}]}" fill="#9a3b00"/><path d="M236.44531,216.31688c1.68405,0.54381 3.26861,0.80795 5.34336,1.25398c2.56943,0.55241 4.97639,2.04579 7.64732,2.23173c0.11108,0.00773 0.23071,0.01155 0.35666,0.01148l0.00014,0.23454c0,0.32494 0.00043,0.64927 -0.0006,0.97257c-0.03557,0.22898 -0.03212,0.45745 -0.00309,0.68523c-0.02457,3.23718 -0.16147,6.41009 -1.02501,9.59338c-0.95336,3.51438 -2.67789,7.23611 -2.96644,10.86852c-0.23191,2.91947 -0.28044,6.40043 0.40149,9.25763c0.11759,0.49269 0.59518,0.85989 0.67969,1.35932c0.11203,0.66207 -0.96682,0.94574 -1.52093,1.32502c-1.46571,1.00323 -3.03948,1.4192 -4.30571,2.33573c0.74658,-3.63844 0.66418,-6.95352 0.22545,-10.68716c-0.32809,-2.79208 -0.35632,-5.65523 -0.75769,-8.43727c-0.43822,-3.03754 -1.29664,-6.113 -1.96603,-9.10602c-0.66573,-2.97665 -1.6828,-5.99582 -2.00699,-9.03647c-0.0984,-0.92297 -0.11516,-1.88858 -0.10164,-2.86222z" data-paper-data="{&quot;noHover&quot;:false,&quot;origItem&quot;:[&quot;Path&quot;,{&quot;applyMatrix&quot;:true,&quot;segments&quot;:[[[237.58898,278.65865],[-0.15596,-1.46279],[0.51379,4.81901]],[[240.77634,292.97717],[-1.05508,-4.71759],[1.06089,4.74353]],[[243.91484,307.34831],[-0.69453,-4.81409],[0.6361,4.40914]],[[245.07828,320.68821],[-0.51999,-4.42506],[0.69534,5.91731]],[[244.7165,337.62524],[1.18321,-5.76644],[2.0068,-1.45256]],[[251.52908,333.92357],[-2.32296,1.58998],[0.8782,-0.60109]],[[253.93464,331.82447],[0.17756,1.04929],[-0.13394,-0.79154]],[[252.85855,329.66987],[0.18637,0.78086],[-1.08075,-4.52828]],[[252.21126,315.0014],[-0.36754,4.62697],[0.4573,-5.75686]],[[256.89651,297.85508],[-1.51094,5.56981],[1.3686,-5.04508]],[[258.53749,282.66293],[-0.03894,5.13048],[-0.046,-0.36099]],[[258.54315,281.57729],[-0.05638,0.3629],[0.00161,-0.51238]],[[258.54511,280.03633],[0,0.51498],[0,0]],[[258.54511,279.66469],[0,0],[-0.19962,0.00009]],[[257.98074,279.64684],[0.17604,0.01226],[-4.23306,-0.2947]],[[245.88209,276.11298],[4.07222,0.87549],[-3.2882,-0.70694]],[[237.42585,274.12315],[2.669,0.86189],[-0.02143,1.54308]]],&quot;closed&quot;:true}]}" fill="#9a3b00"/><path d="M256.03864,182.4652c-0.18554,-1.67187 -0.41808,-3.2757 -0.52297,-4.9532c0.1032,-0.03569 0.16444,-0.06636 0.16444,-0.06636c2.94709,-1.47676 6.56316,-2.35141 9.89352,-1.76193c0.29499,0.05222 0.42013,0.4296 0.59985,0.66926c0.60028,0.80052 1.13491,1.64907 1.73795,2.4475c1.23838,1.63965 2.48086,3.28264 3.57496,5.02188c2.53937,4.03671 5.24642,8.13182 7.60039,12.27778c1.55957,2.74685 2.8347,5.66662 4.83972,8.13463c2.07411,3.32343 4.77941,6.39988 6.40451,9.98126c0.67159,1.48005 1.44676,2.91169 2.17858,4.36292c0.45997,0.91216 0.35174,2.18426 1.20032,2.75304c1.50164,1.00652 4.56099,0.09931 5.9756,-0.58527c0.25601,-0.12389 2.14796,-1.81266 3.09681,-1.66909c0.96433,0.14591 1.80636,0.9212 2.56594,1.53296c1.75233,1.41132 3.99792,3.58842 4.49919,5.88023c0.2518,1.15125 -1.51099,2.06353 -2.21165,2.66226c-0.75802,-0.02996 -4.03705,0.37308 -4.73064,-0.11866c-0.24006,-0.1702 -0.18723,-0.61844 -0.28816,-0.89486c-0.26354,-0.72181 -1.19439,-3.1878 -1.73538,-3.69767c-1.7231,-1.62395 -5.18456,-1.60081 -7.22115,-0.68435c-2.27391,1.02326 -4.64799,3.55848 -4.58082,6.17348c0.0245,0.95316 0.1744,1.90182 0.67134,2.71554c0.27871,0.45638 1.11841,0.35434 1.45745,0.76787c0.70049,0.85438 -0.31791,2.75049 -1.196,3.0804c-1.88407,0.70788 -3.06808,-0.07198 -4.74847,-0.71869c-0.5551,-1.76322 -1.06033,-3.08936 -1.04703,-4.96107c0.00229,-0.3219 -0.17629,-0.76116 0.00279,-1.02866c0.58904,-0.87993 2.30111,0.61653 3.17253,0.01498c0.90071,-0.62178 1.2191,-1.85534 1.52232,-2.90699c0.35043,-1.21544 0.2838,-5.19772 -0.01725,-6.48028c-0.39196,-1.66989 -1.14592,-1.97725 -1.9885,-3.31893c-1.9407,-3.0903 -3.3354,-6.70094 -5.58933,-9.60763c-1.35856,-1.752 -3.01964,-3.33237 -4.36585,-5.12801c-1.62137,-2.01557 -3.88552,-3.39582 -5.4255,-5.42037c-0.36537,-0.48034 -0.42102,-1.17272 -0.84586,-1.60136c-0.53017,-0.53489 -1.34521,-0.70433 -1.92041,-1.19051c-1.37676,-1.16371 -1.846,-3.06457 -3.26592,-4.36021c-1.24997,-1.14057 -2.37536,-2.33648 -3.73356,-3.34574c-1.38165,-1.02668 -3.35305,-1.72763 -4.83932,-2.62054l0.27364,-0.27918c0,0 -0.30608,-0.91837 -1.15811,-1.07645z" data-paper-data="{&quot;noHover&quot;:false,&quot;origItem&quot;:[&quot;Path&quot;,{&quot;applyMatrix&quot;:true,&quot;segments&quot;:[[270.33575,222.16451],[[269.82686,222.54108],[0,0],[2.35555,1.41513]],[[277.49792,226.69276],[-2.18972,-1.62714],[2.15257,1.59953]],[[283.48777,232.06401],[-1.98103,-1.80765],[2.25036,2.05342]],[[288.66547,238.97251],[-2.18199,-1.84433],[0.91158,0.77051]],[[291.70832,240.86012],[-0.84025,-0.84773],[0.67333,0.67933]],[[293.05032,243.39642],[-0.57907,-0.76128],[2.44066,3.20866]],[[301.65218,251.98267],[-2.56965,-3.19441],[2.13357,2.84583]],[[308.5653,260.04729],[-2.15313,-2.77669],[3.57219,4.60672]],[[317.37009,275.26253],[-3.07575,-4.8977],[1.33535,2.12636]],[[320.55947,280.6151],[-0.62121,-2.64657],[0.47712,2.03268]],[[320.58124,290.8875],[0.55539,-1.92631],[-0.48054,1.66672]],[[318.16396,295.49583],[1.42751,-0.98544],[-1.38109,0.9534]],[[313.1294,295.47294],[0.93357,-1.39457],[-0.28381,0.42395]],[[313.11867,297.00344],[0.00362,-0.51016],[-0.02107,2.96639]],[[314.77685,304.86615],[-0.87977,-2.79446],[2.66319,1.02495]],[[322.29513,306.00639],[-2.98599,1.1219],[1.39166,-0.52288]],[[324.18747,301.12524],[1.11018,1.35407],[-0.53734,-0.65539]],[[321.90537,300.00431],[0.44172,0.7233],[-0.78759,-1.28963]],[[320.81556,295.60394],[0.03881,1.51061],[-0.10647,-4.14443]],[[328.06206,285.82564],[-3.60384,1.62173],[3.2277,-1.45246]],[[339.49778,286.91723],[-2.73089,-2.57375],[0.85741,0.80807]],[[342.31693,292.85006],[-0.41768,-1.14397],[0.15996,0.4381]],[[342.70697,294.19375],[-0.38047,-0.26974],[1.09926,0.77934]],[[350.20074,294.38539],[-1.20135,-0.04749],[1.11043,-0.9489]],[[353.70264,290.16999],[0.39909,1.82459],[-0.79446,-3.63221]],[[346.56989,280.85368],[2.7772,2.23674],[-1.20384,-0.96956]],[[342.58738,278.47816],[1.52833,0.23125],[-1.5038,-0.22754]],[[337.67523,281.12896],[0.40574,-0.19635],[-2.24197,1.08496]],[[328.19614,282.06443],[2.37988,1.59518],[-1.34488,-0.90144]],[[326.23348,277.6215],[0.72899,1.44564],[-1.15981,-2.3]],[[322.77735,270.70979],[1.06439,2.34569],[-2.57558,-5.67601]],[[312.63417,254.96908],[3.2872,5.26718],[-3.1777,-3.91147]],[[305.00799,242.08193],[2.47172,4.35337],[-3.73071,-6.57078]],[[292.96795,222.62093],[4.02455,6.39764],[-1.734,-2.75646]],[[287.30345,214.66123],[1.96266,2.59861],[-0.95574,-1.26542]],[[284.54949,210.78201],[0.95137,1.26871],[-0.28483,-0.37985]],[[283.59905,209.72117],[0.46751,0.08275],[-5.27818,-0.93424]],[[267.92892,212.50643],[4.67074,-2.34047],[0,0]],[[267.66845,212.61144],[0.16356,-0.05656],[0.16623,2.65861]],[[268.50026,220.45853],[-0.29405,-2.64969],[1.35035,0.25053]]],&quot;closed&quot;:true}]}" fill="#ffde00"/><path d="M229.06113,175.18405c0.00105,1.04277 0.00427,1.94087 0.00901,1.98557c0.2773,2.61971 1.22724,5.09189 1.86267,7.61442c0.00076,0.00299 0.00152,0.006 0.00226,0.009l-1.40569,1.40587c-3.59273,3.5982 -6.2487,7.83925 -9.25333,11.84427c-2.20319,2.93673 -4.99214,5.69679 -7.58676,8.2991c-2.22635,2.96272 -6.30181,8.45551 -2.71532,12.007c0.53589,0.53066 1.48177,0.30568 2.18006,0.59055c1.38741,0.56601 1.48807,2.05239 1.28834,3.35376c-0.15166,0.98824 -1.00538,1.13037 -1.68336,1.71726c-0.51866,0.44897 -0.98226,0.95973 -1.45688,1.45503c-0.22029,0.22988 -0.31353,0.67716 -0.62913,0.71919c-1.25883,0.16758 -2.4721,-2.1225 -2.60577,-3.05541c-0.23615,-1.64822 0.51952,-3.77904 0.01022,-5.36064c-0.01603,-0.04978 -0.03291,-0.09933 -0.05029,-0.14856l0.0272,-0.00542l-0.3598,-1.79109c-0.13242,-0.73727 -0.78048,-1.29852 -1.55586,-1.29852c-0.58465,0 -1.09615,0.31735 -1.36863,0.7899l-1.0412,1.74194l0.07863,0.04718l-0.19736,0.19556c-0.36239,1.76788 -0.90009,2.95257 -1.73165,4.53843c-0.31167,0.59437 -0.45328,2.08605 -1.0549,1.78859c-0.27129,-0.13413 -0.35854,-0.49053 -0.56421,-0.71257c-1.71481,-1.85141 -3.46922,-2.7199 -2.4572,-5.57677c0.32038,-0.90439 0.8769,-1.70768 1.29093,-2.57321c0.18126,-0.37892 0.17966,-1.04646 0.57603,-1.18551c0.33516,-0.11758 0.4968,0.54244 0.82992,0.66565c0.95533,0.35337 1.98775,1.03125 2.96213,0.73445c0.82464,-0.25119 0.96499,-1.35203 1.46962,-2.05093c1.46048,-2.0228 1.90352,-4.19607 3.04376,-6.4708c2.62893,-10.38653 7.43988,-21.48138 15.89822,-28.45793c1.69199,-1.39559 4.0919,-2.13449 6.1883,-2.81537z" data-paper-data="{&quot;noHover&quot;:false,&quot;origItem&quot;:[&quot;Path&quot;,{&quot;applyMatrix&quot;:true,&quot;segments&quot;:[[[215.8808,213.39403],[2.68159,-2.21182],[-13.40533,11.0569]],[[190.74096,258.41714],[4.1665,-16.46126],[-1.80714,3.60512]],[[185.91025,268.66593],[2.31467,-3.20585],[-0.79977,1.10768]],[[183.51892,271.99472],[1.30694,-0.39811],[-1.54427,0.4704]],[[178.8191,270.82595],[1.51406,0.56006],[-0.52795,-0.1953]],[[177.50201,269.769],[0.53118,-0.18634],[-0.62817,0.22036]],[[176.66421,271.58188],[0.28727,-0.60053],[-0.65619,1.37176]],[[174.61674,275.65846],[0.50776,-1.43335],[-1.60394,4.52777]],[[178.50269,284.49005],[-2.71773,-2.93425],[0.32593,0.3519]],[[179.39551,285.61852],[-0.42996,-0.21259],[0.95348,0.47144]],[[181.01553,282.86935],[-0.49396,0.94201],[1.31793,-2.51339]],[[183.75813,275.67536],[-0.57436,2.80186],[0,0]],[184.07102,275.36551],[183.9462,275.29062],[[185.65236,272.44702],[0,0],[0.43183,-0.74893]],[[187.81967,271.19396],[-0.92661,0],[1.22888,0]],[[190.2802,273.24909],[-0.20987,-1.16847],[0,0]],[190.8477,276.08657],[[190.80465,276.09518],[0,0],[0.02753,0.07801]],[[190.88408,276.33051],[-0.0254,-0.07889],[0.80717,2.50662]],[[190.86397,284.82507],[-0.37427,-2.61221],[0.21184,1.47855]],[[194.98739,289.66605],[-1.99508,0.2656],[0.5002,-0.06659]],[[195.98349,288.5261],[-0.34913,0.36434],[0.75221,-0.78498]],[[198.28981,286.21979],[-0.82201,0.71156],[1.07452,-0.93014]],[[200.95416,283.49799],[-0.24038,1.56622],[0.31655,-2.06248]],[[198.90739,278.28254],[2.19887,0.89706],[-1.1067,-0.45149]],[[195.44618,277.34568],[0.84931,0.84102],[-5.68413,-5.62864]],[[199.76891,258.21808],[-3.52846,4.6955],[4.11215,-4.12432]],[[211.73758,245.13301],[-3.49176,4.65433],[4.76194,-6.34742]],[[226.41238,226.37652],[-5.69398,5.70265],[0,0]],[[228.64035,224.14855],[0,0],[-0.0012,-0.00475]],[[228.63676,224.13429],[0.0012,0.00475],[-1.00707,-3.99788]],[[225.69407,212.07441],[0.43948,4.15188],[-0.0075,-0.07083]],[[225.68137,208.92853],[0.00165,1.65264],[-3.32253,1.07912]]],&quot;closed&quot;:true}]}" fill="#ffde00"/><path d="M236.15747,211.01661c-0.12609,-8.20306 -0.64672,-16.54769 -1.81745,-24.65504c-0.46601,-3.22709 -1.82316,-6.26506 -2.16904,-9.52313c-0.09976,-0.93973 -0.07712,-1.88688 -0.04314,-2.83353c0.08353,0.0421 0.167,0.08449 0.25013,0.12739c2.00714,1.03559 4.30279,2.95856 6.60031,3.43152c2.02411,0.41667 6.33478,0.45683 8.37853,-0.00236c0.34879,-0.07836 2.71663,-1.33602 3.19913,-1.55078c0.61162,-0.27224 1.19604,-0.49741 1.78054,-0.70746l0.0002,0.47992c0.00352,2.90431 0.4979,5.49776 0.73857,8.363c0.13735,1.63513 -0.16658,1.98619 0.00852,3.68517c0.23792,2.30861 1.16962,4.4626 1.50012,6.77608c1.47301,4.4537 2.20428,9.20162 3.66571,13.61995c0.69423,2.09887 1.67097,3.99819 2.10787,6.21052c0.07876,0.39882 0.3548,0.81244 0.22736,1.19848c-0.06807,0.2062 -0.43463,0.03264 -0.64798,0.07304c-0.40978,0.07758 -0.80436,0.2551 -1.2206,0.28164c-1.02544,0.06537 -2.06059,-0.07331 -3.08583,-0.00485c-0.52221,0.03486 -5.30024,0.77549 -5.97185,0.73058c-2.37769,-0.15899 -4.92665,-1.67048 -7.2067,-2.16696c-1.98139,-0.43145 -3.94079,-0.76892 -5.92211,-1.19818c0.01172,-0.42275 0.01886,-0.84076 0.01886,-1.2502c0,0 -0.00127,-0.62205 -0.39115,-1.0848z" data-paper-data="{&quot;noHover&quot;:false,&quot;origItem&quot;:[&quot;Path&quot;,{&quot;applyMatrix&quot;:true,&quot;segments&quot;:[[[237.59908,267.3516],[0,0],[0,0.6489]],[[237.56787,269.33227],[0.01857,-0.67],[3.14014,0.68032]],[[246.93964,271.2261],[-3.14023,-0.68379],[3.61359,0.78686]],[[258.34369,274.66003],[-3.76833,-0.25197],[1.06442,0.07117]],[[267.79541,273.50597],[-0.82763,0.05526],[1.62486,-0.10849]],[[272.68083,273.51637],[-1.62518,0.10361],[0.65966,-0.04206]],[[274.61324,273.07131],[-0.64946,0.12297],[0.33814,-0.06402]],[[275.63925,272.95621],[-0.10788,0.3268],[0.20196,-0.61181]],[[275.27804,271.05742],[0.12482,0.63208],[-0.6924,-3.50627]],[[271.93301,261.21815],[1.10027,3.32643],[-2.31617,-7.00245]],[[266.1075,239.67365],[2.33451,7.0585],[-0.52379,-3.66656]],[[263.74648,228.96721],[0.37707,3.65883],[-0.27749,-2.69265]],[[263.7406,223.1323],[0.21767,2.59146],[-0.38142,-4.54102]],[[262.58115,209.88298],[0.00559,4.60294],[0,0]],[[262.58115,209.12247],[0,0],[-0.92635,0.33288]],[[259.76294,210.24465],[0.96933,-0.43147],[-0.7647,0.34038]],[[254.70055,212.70348],[0.55279,-0.12419],[-3.23908,0.72774]],[[241.44364,212.70348],[3.20794,0.66038],[-3.64126,-0.74958]],[[230.99138,207.26057],[3.18104,1.64128],[-0.13175,-0.06798]],[[230.59518,207.05852],[0.13237,0.06674],[-0.05387,1.50033]],[[230.66622,211.54737],[-0.15811,-1.48933],[0.54817,5.16358]],[[234.11347,226.63051],[-0.73856,-5.11452],[1.85547,12.84909]],[[236.98117,265.63359],[-0.19984,-13.00074],[0.61791,0.7334]]],&quot;closed&quot;:true}]}" fill="#ffde00"/><path d="M232.00125,125.52009c-2.26888,0.12225 -4.52661,0.34186 -6.85393,0.6744c-1.92676,0.27532 -3.10412,0.17787 -4.59711,0.59832c0.10895,-0.46985 0.22073,-0.93935 0.32496,-1.40977c0.2092,-0.47008 0.34546,-0.98771 0.39024,-1.55964c0.02056,-0.26276 0.02155,-0.5318 0.00732,-0.80493c0.80145,-7.78686 0.27665,-15.54541 2.55239,-23.09921c1.04737,1.66209 3.56706,2.57928 4.82513,4.30885c1.09954,1.51163 1.89179,3.24468 2.78688,4.88567c1.3764,2.52339 1.53466,5.00652 1.27974,7.86874c-0.17781,1.9964 -1.07009,3.15401 -1.11083,5.26002l-0.00248,2.18405c0,0 -0.00017,0.62982 0.39772,1.0935z" data-paper-data="{&quot;noHover&quot;:false,&quot;origItem&quot;:[&quot;Path&quot;,{&quot;applyMatrix&quot;:true,&quot;segments&quot;:[[459.43239,256.79249],[[459.43239,249.87356],[0,0],[0.12913,-6.67548]],[[462.91619,233.23668],[-0.5636,6.32806],[0.80803,-9.07249]],[[458.87086,208.4129],[4.36281,7.99845],[-2.8372,-5.20152]],[[450.09074,192.95782],[3.48525,4.79151],[-3.98769,-5.48225]],[[434.83829,179.3],[3.31988,5.26842],[-7.21352,23.94353]],[[426.77594,252.33317],[2.54039,-24.68225],[0.04504,0.86571]],[[426.74982,254.88302],[0.06519,-0.83286],[-0.14189,1.81288]],[[425.51043,259.82545],[0.66309,-1.49004],[-0.33036,1.49112]],[[424.47843,264.29313],[0.34538,-1.48929],[4.73238,-1.33273]],[[439.02038,262.38831],[-6.10732,0.87266],[7.37696,-1.05407]],[[460.6936,260.25836],[-7.19173,0.38751],[-1.26121,-1.46977]]],&quot;closed&quot;:true}]}" fill="#04ff00"/><path d="M211.49455,134.35462c-0.73757,0.57067 -1.35939,1.28675 -1.67185,2.43976c-0.00823,0.03037 -0.01625,0.06076 -0.0239,0.09104c-3.17354,1.7929 -6.78913,2.60775 -10.52381,2.34712c-2.77153,-0.19342 -5.54111,-2.16501 -7.55656,-3.84055c-6.24829,-5.19447 -12.23942,-11.08332 -15.44547,-18.67923c-1.39797,-3.30184 -3.23805,-6.7313 -4.08147,-10.24087c-0.7074,-2.94358 -1.00113,-6.19607 -1.39932,-9.19803c-0.26979,-2.034 -0.53408,-3.67448 -0.16108,-5.71416c0.14259,-0.77977 0.2662,-1.88339 1.01105,-2.15467c0.44336,-0.16148 0.9369,0.11901 1.40656,0.16432c1.93077,0.18624 3.82481,0.7268 5.66603,1.33712c6.95244,2.30455 14.26403,3.5087 21.05062,6.3142c1.9443,0.80206 3.89821,1.6092 5.84251,2.41126c1.35748,0.56001 2.98484,0.68024 4.09464,1.64186c4.43971,3.84698 4.2996,9.42602 5.99176,14.52509c0.73152,2.20435 2.20282,4.87015 2.44009,7.28207c-0.0645,0.50355 -0.15767,1.00444 -0.26331,1.50162c-1.05408,1.60398 -4.64447,2.02459 -5.70943,2.99869c-1.57668,1.44216 -1.59425,2.69231 -1.98358,4.53434l-0.03109,0.67356c0,0 0,1.42024 1.34764,1.56547z" data-paper-data="{&quot;noHover&quot;:false,&quot;origItem&quot;:[&quot;Path&quot;,{&quot;applyMatrix&quot;:true,&quot;segments&quot;:[[391.39615,283.31509],[[391.49325,281.18136],[0,0],[1.23404,-5.83869]],[[397.76693,266.82375],[-4.99764,4.57123],[3.37567,-3.08765]],[[415.8529,257.3384],[-3.34113,5.08417],[0.33488,-1.57595]],[[416.68538,252.58407],[-0.20445,1.59611],[-0.75211,-7.64512]],[[408.94503,229.52946],[2.31872,6.98716],[-5.36366,-16.16267]],[[389.9762,183.56035],[14.0727,12.19387],[-3.51774,-3.0481]],[[377.01257,178.37066],[4.30286,1.77504],[-6.16287,-2.54234]],[[358.52396,170.74365],[6.16287,2.54234],[-21.51165,-8.89269]],[[291.88505,150.71734],[22.03735,7.30478],[-5.83617,-1.93453]],[[273.935,146.47171],[6.12004,0.59032],[-1.48871,-0.1436]],[[269.4787,145.94898],[1.40532,-0.51181],[-2.36094,0.85985]],[[266.27876,152.77401],[0.452,-2.47166],[-1.18231,6.46522]],[[266.79822,170.87571],[-0.85516,-6.44726],[1.26213,9.51546]],[[271.24697,200.00578],[-2.24227,-9.33036],[2.67341,11.12438]],[[284.189,232.41991],[-4.43121,-10.46593],[10.16236,24.07699]],[[333.05996,291.54197],[-19.8054,-16.46508],[6.38848,5.31102]],[[356.98052,303.71672],[-8.78497,-0.6131],[11.83796,0.82616]],[[390.30116,296.29267],[-10.05929,5.68299],[0.0243,-0.096]],[[390.37675,296.00421],[-0.0261,0.09631],[0.99046,-3.65474]],[[395.66778,288.27722],[-2.33788,1.8089],[-4.27162,-0.46034]]],&quot;closed&quot;:true}]}" fill="#04ff00"/><path d="M225.61947,129.25338c3.78933,-0.54122 7.3343,-0.76302 11.18408,-0.76302c2.00563,0 4.05116,-0.38285 6.02499,-0.02703c4.0984,0.73881 8.76925,4.54257 11.58306,7.34188c4.35806,2.61484 6.31208,6.61546 8.40466,11.08645c1.1156,2.38358 2.28707,4.77947 1.91954,7.54975c-0.22798,1.71838 -0.49319,3.45364 -1.01502,5.10667c-0.17864,0.56589 -0.64128,1.02779 -0.77149,1.60674c-0.45336,2.01557 -0.12828,3.05373 -1.52984,4.85401c-2.06273,2.64954 -5.6348,3.77926 -8.22828,5.76687c-1.71583,0.55408 -2.27348,0.6852 -3.92047,1.41617c-0.90103,0.3999 -1.6671,1.15009 -2.63018,1.36044c-1.69583,0.37041 -5.22681,0.32639 -6.92394,0.00169c-1.97741,-0.37833 -4.05507,-2.22273 -5.78299,-3.11498c-0.95811,-0.49473 -2.03941,-0.73119 -3.00517,-1.21089c-5.57584,-2.76949 -9.62208,-6.25517 -11.61258,-12.22667c-1.44304,-2.89733 -2.70819,-5.83405 -4.02164,-8.78689c-0.51085,-1.14845 -1.38259,-2.14787 -1.72215,-3.35807c-0.32182,-1.14702 0.23962,-2.40794 0.0149,-3.57787c-0.20927,-1.08952 -1.74565,-4.41722 -0.43126,-5.50341c0.94221,-0.77865 2.29687,-0.96168 3.21724,-1.76601c0.53272,-0.46555 0.86611,-1.12198 1.2984,-1.68203l0.21749,-0.1951c0,0 0.70446,-0.70453 0.43558,-1.55273c2.03206,-1.41484 4.33261,-1.90289 7.2951,-2.32602z" data-paper-data="{&quot;noHover&quot;:false,&quot;origItem&quot;:[&quot;Path&quot;,{&quot;applyMatrix&quot;:true,&quot;segments&quot;:[[[417.45305,279.62632],[6.44109,-4.48468],[0.8523,2.68853]],[416.07588,284.54431],[[415.38719,285.16194],[0,0],[-1.37026,1.7752]],[[411.27641,290.48755],[1.68858,-1.47569],[-2.91733,2.54951]],[[401.08485,296.07588],[2.98655,-2.46807],[-4.16623,3.44294]],[[402.45909,313.50478],[-0.66333,-3.4535],[0.71228,3.70835]],[[402.41556,324.83312],[-1.02009,-3.63575],[1.07628,3.83601]],[[407.87629,335.46517],[-1.61921,-3.64026],[4.16325,9.35972]],[[420.61921,363.27579],[-4.57406,-9.18378],[6.30934,18.92801]],[[457.37157,401.97023],[-17.67393,-8.77854],[3.06116,1.52046]],[[466.88201,405.80348],[-3.03698,-1.5682],[5.47704,2.82818]],[[485.18481,415.67447],[-6.26784,-1.19919],[5.37942,1.02921]],[[507.10357,415.67447],[-5.37532,1.17408],[3.05272,-0.66677]],[[515.42931,411.36689],[-2.85603,1.2676],[5.22049,-2.31702]],[[527.84177,406.88657],[-5.43875,1.75629],[8.22061,-6.30018]],[[553.89704,388.63474],[-6.53828,8.39832],[4.44258,-5.70643]],[[558.7376,373.26569],[-1.43704,6.38883],[0.41277,-1.83511]],[[561.18079,368.17915],[-0.56624,1.79371],[1.65406,-5.23964]],[[564.39396,352.01179],[-0.72264,5.44679],[1.16499,-8.78103]],[[558.31081,328.11113],[3.53616,7.55527],[-6.63297,-14.17186]],[[531.69787,293.0219],[13.81387,8.28832],[-8.91903,-8.87309]],[[495.03575,269.77768],[12.99082,2.3418],[-6.25649,-1.12783]],[[475.96395,269.86459],[6.35733,0],[-12.20279,0]],[[440.55575,272.26974],[12.01115,-1.71552],[-9.3903,1.34119]]],&quot;closed&quot;:true}]}" fill="#ff6e00"/><path d="M242.39823,155.72604c-1.49648,0.49883 -1.99529,-0.99766 -1.99529,-0.99766l-0.44475,-1.58999c-0.0007,-4.69642 0.06955,-9.36528 -0.35733,-14.04573c0,0 -0.14281,-1.57094 1.42813,-1.71376c1.57094,-0.14282 1.71376,1.42813 1.71376,1.42813c0.43286,4.77644 0.36958,9.53851 0.37028,14.33088l0.28286,0.59282c0,0 0.49882,1.49649 -0.99766,1.99529z" fill="#000000"/><path d="M249.17545,154.35178c-1.57743,0 -1.57742,-1.57742 -1.57742,-1.57742v-0.36381c0,-5.06348 0.27657,-10.01719 0.73408,-15.05872c0,0 0.14282,-1.57094 1.71376,-1.42812c1.57094,0.14282 1.42812,1.71376 1.42812,1.71376c-0.45056,4.94711 -0.72113,9.80463 -0.72113,14.7731v0.36381c0,0 0,1.57743 -1.57743,1.57743z" fill="#000000"/><path d="M258.05411,152.18946c1.31249,0.875 0.4375,2.1875 0.4375,2.1875l-1.33465,1.6273c-3.58783,1.77952 -6.80838,5.18405 -10.89329,5.94518c-6.74518,1.25679 -11.88153,-3.68727 -15.78248,-8.55347c0,0 -0.98542,-1.23175 0.24635,-2.21716c1.23175,-0.98541 2.21717,0.24635 2.21717,0.24635c1.30716,1.63755 1.80051,2.38849 3.48619,3.84217c1.22233,1.05409 3.63761,3.27417 5.40303,3.59794c5.42933,0.99569 9.46991,-3.44629 13.91216,-5.68277l0.12054,-0.55552c0,0 0.875,-1.3125 2.18749,-0.43751z" fill="#000000"/><path d="M200.44989,101.81799c1.11541,1.11541 0,2.23081 0,2.23081l-0.8326,0.82353c-2.29969,1.91823 -5.15647,3.76481 -7.35872,5.88649c1.20249,1.65913 1.85253,3.64207 2.8764,5.39827c0.42528,-0.41451 0.84997,-0.82709 1.2651,-1.24222l1.33182,-0.9247c0,0 1.31249,-0.875 2.18749,0.43751c0.875,1.31249 -0.4375,2.18749 -0.4375,2.18749l-0.851,0.53052c-0.399,0.399 -0.83464,0.8072 -1.284,1.22695c0.43462,0.24553 0.86801,0.49465 1.21254,0.84071c0.71232,0.71544 1.14918,1.66026 1.72377,2.49038l0.46219,0.89717c0,0 0.70543,1.41088 -0.70544,2.11632c-1.41089,0.70544 -2.11632,-0.70543 -2.11632,-0.70543l-0.26541,-0.55805c-0.39556,-0.62508 -0.66208,-1.35371 -1.18665,-1.87526c-0.40026,-0.39795 -0.88341,-0.70691 -1.36838,-1.01212c-1.25621,1.3512 -2.30721,2.83332 -2.58935,4.50455c0,0 -0.30935,1.54679 -1.85615,1.23743c-1.54678,-0.30935 -1.23743,-1.85616 -1.23743,-1.85616c0.51861,-2.34714 1.85707,-4.24909 3.44534,-5.99067c-0.80521,-1.3012 -1.64303,-3.19881 -2.18993,-4.21877c-0.17879,-0.33343 -0.37,-0.65173 -0.57146,-0.9584c-0.9899,1.42159 -1.74968,2.84002 -3.115,4.22516c0,0 -1.11541,1.11541 -2.2308,0c-1.11541,-1.11541 0,-2.2308 0,-2.2308c1.49757,-1.4715 2.20599,-2.96653 3.32655,-4.52522c-0.43234,-0.47882 -0.87646,-0.95466 -1.32009,-1.44762c-0.0435,-0.04835 -0.087,-0.09693 -0.13048,-0.14571c-1.64643,2.28233 -3.15955,4.64339 -4.44295,7.2118c0,0 -0.70544,1.41089 -2.11633,0.70543c-1.41089,-0.70544 -0.70544,-2.11633 -0.70544,-2.11633c1.47499,-2.94818 3.23163,-5.63884 5.14552,-8.24513c-1.93023,-2.18828 -4.05833,-4.24696 -6.95441,-4.78236c0,0 -1.54678,-0.30935 -1.23743,-1.85616c0.30935,-1.54678 1.85616,-1.23742 1.85616,-1.23742c3.5033,0.74044 5.95936,2.89088 8.24671,5.35635c0.49028,-0.62902 0.98757,-1.25636 1.49005,-1.88455l1.25392,-0.78928c0,0 1.41089,-0.70544 2.11633,0.70543c0.70544,1.41089 -0.70544,2.11633 -0.70544,2.11633l-0.20128,-0.06169c-0.61398,0.76736 -1.22048,1.53302 -1.8156,2.30222c0.17417,0.19621 0.34899,0.39227 0.52483,0.58764c0.36159,0.40175 0.73448,0.79466 1.10591,1.18884c2.24032,-2.127 5.09017,-3.98365 7.40155,-5.91164l0.62261,-0.63168c0,0 1.11541,-1.11541 2.2308,0z" fill="#039a00"/></g></g></g></svg>